{
.appVersion = "1230";
DisplayStrings = (
"/Abreveacute"
);
copyright = "Copyright 2019 The Bevietnam Project Authors (https://github.com/bettergui/beVietnam)";
customParameters = (
{
name = Axes;
value = (
{
Name = Weight;
Tag = wght;
}
);
},
{
name = "Enforce Compatibility Check";
value = 1;
},
{
name = license;
value = "This Font Software is licensed under the SIL Open Font License, Version 1.1. This license is available with a FAQ at: http://scripts.sil.org/OFL";
},
{
name = fsType;
value = (
);
},
{
name = licenseURL;
value = "http://scripts.sil.org/OFL";
}
);
date = "2019-05-04 16:28:44 +0000";
designer = "Gabriel Lam";
designerURL = be.net/bygabriel;
familyName = "Be Vietnam";
featurePrefixes = (
{
automatic = 1;
code = "languagesystem DFLT dflt;\012languagesystem latn dflt;\012languagesystem cyrl dflt;\012languagesystem latn CRT;\012languagesystem latn KAZ;\012languagesystem latn TRK;\012languagesystem latn AZE;\012languagesystem cyrl TAT;\012";
name = Languagesystems;
}
);
features = (
{
automatic = 1;
code = "feature locl;\012feature subs;\012feature sinf;\012feature sups;\012feature numr;\012feature dnom;\012feature frac;\012feature ordn;\012feature case;\012feature salt;\012feature ss01;\012feature ss02;\012";
name = aalt;
},
{
automatic = 1;

glyphs = (
{
glyphname = A;
lastChange = "2019-07-18 14:24:21 +0000";
layers = (
{
anchors = (
{
name = bottom;
position = "{336, 0}";
},
{
name = ogonek;
position = "{657, 51}";
},
{
name = top;
position = "{447, 700}";
}
);
guideLines = (
{
angle = 90;
position = "{336, 582}";
}
);
layerId = "D085834A-C5B8-45AD-B7CB-7C394966C9BB";
paths = (
{
closed = 1;
nodes = (
"202 0 LINE",
"406 465 LINE",
"414 465 LINE",
"473 0 LINE",
"666 0 LINE",
"539 700 LINE",
"362 700 LINE",
"9 0 LINE"
);
},
{
closed = 1;
nodes = (
"573 141 LINE",
"596 285 LINE",
"168 285 LINE",
"145 141 LINE"
);
}
);
width = 669;
},
{
anchors = (
{
name = bottom;
position = "{341, 0}";
},
{
name = ogonek;
position = "{681, 27}";
},
{
name = top;
position = "{464, 700}";
}
);
guideLines = (
{
angle = 248.6942;
position = "{222, 350}";
},
{
angle = 248.6942;
position = "{187, 350}";
}
);
layerId = "B45F0BEB-E489-4392-AE53-309DD1ADE040";
paths = (
{
closed = 1;
nodes = (
"85 0 LINE",
"455 653 LINE",
"457 653 LINE",
"601 0 LINE",
"636 0 LINE",
"481 700 LINE",
"446 700 LINE",
"50 0 LINE"
);
},
{
closed = 1;
nodes = (
"551 235 LINE",
"557 267 LINE",
"221 267 LINE",
"215 235 LINE"
);
}
);
width = 686;
}
);
leftKerningGroup = A;
rightKerningGroup = A;
unicode = 0041;
},
{
glyphname = AE;
lastChange = "2019-07-18 14:24:21 +0000";
layers = (
{
guideLines = (
{
position = "{675, 666}";
},
{
angle = 68.6691;
position = "{-147, 327}";
}
);
layerId = "B45F0BEB-E489-4392-AE53-309DD1ADE040";
paths = (
{
closed = 1;
nodes = (
"501 0 LINE",
"624 700 LINE",
"590 700 LINE",
"467 0 LINE"
);
},
{
closed = 1;
nodes = (
"892 343 LINE",
"898 375 LINE",
"559 375 LINE",
"553 343 LINE"
);
},
{
closed = 1;
nodes = (
"984 666 LINE",
"990 700 LINE",
"606 700 LINE",
"600 666 LINE"
);
},
{
closed = 1;
nodes = (
"867 0 LINE",
"873 34 LINE",
"489 34 LINE",
"483 0 LINE"
);
},
{
closed = 1;
nodes = (
"70 0 LINE",
"575 666 LINE",
"584 666 LINE",
"467 0 LINE",
"501 0 LINE",
"624 700 LINE",
"559 700 LINE",
"35 0 LINE"
);
},
{
closed = 1;
nodes = (
"533 235 LINE",
"539 267 LINE",
"242 267 LINE",
"236 235 LINE"
);
}
);
width = 946;
},
{
guideLines = (
{
position = "{759, 535}";
},
{
angle = 250.929;
position = "{-72, 350}";
},
{
angle = 250.929;
position = "{-265, 350}";
},
{
angle = 246.3191;
position = "{352, 350}";
},
{
angle = 246.3191;
position = "{144, 350}";
}
);
layerId = "D085834A-C5B8-45AD-B7CB-7C394966C9BB";
paths = (
{
closed = 1;
nodes = (
"644 0 LINE",
"755 700 LINE",
"563 700 LINE",
"452 0 LINE"
);
},
{
closed = 1;
nodes = (
"935 280 LINE",
"959 427 LINE",
"568 427 LINE",
"544 280 LINE"
);
},
{
closed = 1;
nodes = (
"1031 535 LINE",
"1057 700 LINE",
"682 700 LINE",
"656 535 LINE"
);
},
{
closed = 1;
nodes = (
"946 0 LINE",
"972 165 LINE",
"597 165 LINE",
"571 0 LINE"
);
},
{
closed = 1;
nodes = (
"208 0 LINE",
"528 535 LINE",
"536 535 LINE",
"451 0 LINE",
"644 0 LINE",
"755 700 LINE",
"424 700 LINE",
"-10 0 LINE"
);
},
{
closed = 1;
nodes = (
"551 141 LINE",
"574 285 LINE",
"184 285 LINE",
"161 141 LINE"
);
}
);
width = 976;
}
);
unicode = 00C6;
},
{
glyphname = B;
lastChange = "2019-07-18 14:24:21 +0000";
layers = (
{
guideLines = (
{
angle = 90;
position = "{229, 493}";
},
{
angle = 270;
position = "{43, 493}";
}
);
layerId = "D085834A-C5B8-45AD-B7CB-7C394966C9BB";
paths = (
{
closed = 1;
nodes = (
"377 -1 LINE SMOOTH",
"532 -1 OFFCURVE",
"629 119 OFFCURVE",
"629 236 CURVE SMOOTH",
"629 323 OFFCURVE",
"566 365 OFFCURVE",
"516 373 CURVE",
"518 381 LINE",
"587 401 OFFCURVE",
"634 473 OFFCURVE",
"634 554 CURVE SMOOTH",
"634 641 OFFCURVE",
"573 700 OFFCURVE",
"461 700 CURVE SMOOTH",
"151 700 LINE",
"40 -1 LINE"
);
},
{
closed = 1;
nodes = (
"275 294 LINE",
"382 294 LINE SMOOTH",
"406 294 OFFCURVE",
"451 281 OFFCURVE",
"451 233 CURVE SMOOTH",
"451 183 OFFCURVE",
"414 148 OFFCURVE",
"359 148 CURVE SMOOTH",
"252 148 LINE"
);
},
{
closed = 1;
nodes = (
"316 552 LINE",
"381 552 LINE SMOOTH",
"406 552 OFFCURVE",
"449 544 OFFCURVE",
"449 500 CURVE SMOOTH",
"449 454 OFFCURVE",
"416 426 OFFCURVE",
"361 426 CURVE SMOOTH",
"296 426 LINE"
);
}
);
width = 624;
},
{
guideLines = (
{
position = "{35, 376}";
},
{
position = "{35, 341}";
},
{
angle = 90;
position = "{579, 270}";
},
{
angle = 90;
position = "{543, 358}";
},
{
angle = 270;
position = "{92, 195}";
},
{
angle = 90;
position = "{124, 195}";
},
{
position = "{236, 665}";
}
);
layerId = "B45F0BEB-E489-4392-AE53-309DD1ADE040";
paths = (
{
closed = 1;
nodes = (
"368 0 LINE SMOOTH",
"515 0 OFFCURVE",
"617 111 OFFCURVE",
"617 229 CURVE SMOOTH",
"617 333 OFFCURVE",
"517 359 OFFCURVE",
"488 360 CURVE",
"489 364 LINE",
"528 369 OFFCURVE",
"649 425 OFFCURVE",
"649 556 CURVE SMOOTH",
"649 619 OFFCURVE",
"617 700 OFFCURVE",
"481 700 CURVE SMOOTH",
"215 700 LINE",
"92 0 LINE"
);
},
{
closed = 1;
nodes = (
"184 341 LINE",
"416 341 LINE SMOOTH",
"503 341 OFFCURVE",
"580 315 OFFCURVE",
"580 225 CURVE SMOOTH",
"580 110 OFFCURVE",
"495 35 OFFCURVE",
"362 35 CURVE SMOOTH",
"130 35 LINE"
);
},
{
closed = 1;
nodes = (
"241 665 LINE",
"465 665 LINE SMOOTH",
"549 665 OFFCURVE",
"614 634 OFFCURVE",
"614 556 CURVE SMOOTH",
"614 454 OFFCURVE",
"528 376 OFFCURVE",
"414 376 CURVE SMOOTH",
"190 376 LINE"
);
}
);
width = 624;
}
);
leftKerningGroup = h;
rightKerningGroup = B;
unicode = 0042;
},
{
glyphname = C;
lastChange = "2019-07-18 14:24:21 +0000";
layers = (
{
anchors = (
{
name = bottom;
position = "{364, -10}";
},
{
name = top;
position = "{464, 700}";
}
);
guideLines = (
{
angle = 90;
position = "{227, -76}";
},
{
angle = 90;
position = "{31, -76}";
},
{
position = "{378, 447}";
},
{
position = "{705, 545}";
},
{
angle = 90;
position = "{473, 143}";
},
{
position = "{537, -10}";
}
);
layerId = "D085834A-C5B8-45AD-B7CB-7C394966C9BB";
paths = (
{
closed = 1;
nodes = (
"529 -10 OFFCURVE",
"649 114 OFFCURVE",
"695 253 CURVE",
"513 253 LINE",
"497 211 OFFCURVE",
"450 155 OFFCURVE",
"380 155 CURVE SMOOTH",
"306 155 OFFCURVE",
"277 213 OFFCURVE",
"277 290 CURVE SMOOTH",
"277 438 OFFCURVE",
"348 549 OFFCURVE",
"443 549 CURVE SMOOTH",
"508 549 OFFCURVE",
"544 498 OFFCURVE",
"545 450 CURVE",
"728 450 LINE",
"725 593 OFFCURVE",
"643 714 OFFCURVE",
"466 714 CURVE SMOOTH",
"255 714 OFFCURVE",
"80 519 OFFCURVE",
"80 282 CURVE SMOOTH",
"80 128 OFFCURVE",
"165 -10 OFFCURVE",
"351 -10 CURVE SMOOTH"
);
}
);
width = 687;
},
{
anchors = (
{
name = bottom;
position = "{404, 0}";
},
{
name = top;
position = "{485, 700}";
}
);
guideLines = (
{
angle = 90;
position = "{153, 50}";
},
{
angle = 90;
position = "{117, 138}";
},
{
position = "{42, 713}";
},
{
position = "{33, -7}";
}
);
layerId = "B45F0BEB-E489-4392-AE53-309DD1ADE040";
paths = (
{
closed = 1;
nodes = (
"521 -5 OFFCURVE",
"637 74 OFFCURVE",
"702 205 CURVE",
"665 205 LINE",
"605 95 OFFCURVE",
"502 30 OFFCURVE",
"383 30 CURVE SMOOTH",
"236 30 OFFCURVE",
"159 119 OFFCURVE",
"159 266 CURVE SMOOTH",
"159 505 OFFCURVE",
"303 681 OFFCURVE",
"498 681 CURVE SMOOTH",
"626 681 OFFCURVE",
"709 605 OFFCURVE",
"722 479 CURVE",
"758 479 LINE",
"747 626 OFFCURVE",
"658 715 OFFCURVE",
"504 715 CURVE SMOOTH",
"286 715 OFFCURVE",
"121 519 OFFCURVE",
"121 262 CURVE SMOOTH",
"121 98 OFFCURVE",
"212 -5 OFFCURVE",
"377 -5 CURVE SMOOTH"
);
}
);
width = 724;
}
);
leftKerningGroup = O;
rightKerningGroup = O;
unicode = 0043;
},
{
glyphname = D;
lastChange = "2019-07-18 14:24:21 +0000";
layers = (
{
anchors = (
{
name = bottom;
position = "{336, 0}";
},
{
name = center;
position = "{391, 350}";
},
{
name = top;
position = "{438, 701}";
}
);
guideLines = (
{
position = "{232, 534}";
}
);
layerId = "D085834A-C5B8-45AD-B7CB-7C394966C9BB";
paths = (
{
closed = 1;
nodes = (
"324 1 LINE SMOOTH",
"543 1 OFFCURVE",
"704 183 OFFCURVE",
"704 431 CURVE SMOOTH",
"704 606 OFFCURVE",
"597 701 OFFCURVE",
"438 701 CURVE SMOOTH",
"151 701 LINE",
"40 1 LINE"
);
},
{
closed = 1;
nodes = (
"309 534 LINE",
"371 534 LINE SMOOTH",
"431 534 OFFCURVE",
"498 524 OFFCURVE",
"498 414 CURVE SMOOTH",
"498 247 OFFCURVE",
"427 171 OFFCURVE",
"314 171 CURVE SMOOTH",
"252 171 LINE"
);
}
);
width = 672;
},
{
anchors = (
{
name = bottom;
position = "{347, 0}";
},
{
name = center;
position = "{409, 350}";
},
{
name = top;
position = "{457, 700}";
}
);
guideLines = (
{
angle = 270;
position = "{92, 436}";
},
{
angle = 90;
position = "{611, 75}";
},
{
position = "{686, 671}";
},
{
position = "{738, 349}";
},
{
angle = 180;
position = "{317, 34}";
},
{
angle = 90;
position = "{644, -97}";
},
{
angle = 270;
position = "{92, 233}";
}
);
layerId = "B45F0BEB-E489-4392-AE53-309DD1ADE040";
paths = (
{
closed = 1;
nodes = (
"333 0 LINE SMOOTH",
"549 0 OFFCURVE",
"714 189 OFFCURVE",
"714 437 CURVE SMOOTH",
"714 598 OFFCURVE",
"621 700 OFFCURVE",
"456 700 CURVE SMOOTH",
"215 700 LINE",
"92 0 LINE"
);
},
{
closed = 1;
nodes = (
"243 666 LINE",
"450 666 LINE SMOOTH",
"594 666 OFFCURVE",
"679 574 OFFCURVE",
"679 428 CURVE SMOOTH",
"679 207 OFFCURVE",
"529 34 OFFCURVE",
"339 34 CURVE SMOOTH",
"132 34 LINE"
);
}
);
width = 694;
}
);
leftKerningGroup = h;
rightKerningGroup = O;
unicode = 0044;
},
{
glyphname = Eth;
lastChange = "2019-07-18 14:24:21 +0000";
layers = (
{
layerId = "B45F0BEB-E489-4392-AE53-309DD1ADE040";
paths = (
{
closed = 1;
nodes = (
"378 342 LINE",
"383 370 LINE",
"122 370 LINE",
"117 342 LINE"
);
},
{
closed = 1;
nodes = (
"309 -2 LINE SMOOTH",
"567 -2 OFFCURVE",
"739 173 OFFCURVE",
"739 435 CURVE SMOOTH",
"739 605 OFFCURVE",
"632 700 OFFCURVE",
"433 700 CURVE SMOOTH",
"241 700 LINE",
"117 -2 LINE"
);
},
{
closed = 1;
nodes = (
"269 666 LINE",
"427 666 LINE SMOOTH",
"488 666 OFFCURVE",
"706 668 OFFCURVE",
"706 433 CURVE SMOOTH",
"706 19 OFFCURVE",
"329 32 OFFCURVE",
"315 32 CURVE SMOOTH",
"157 32 LINE"
);
}
);
width = 720;
},
{
layerId = "D085834A-C5B8-45AD-B7CB-7C394966C9BB";
paths = (
{
closed = 1;
nodes = (
"375 296 LINE",
"395 421 LINE",
"92 421 LINE",
"72 296 LINE"
);
},
{
closed = 1;
nodes = (
"355 1 LINE SMOOTH",
"574 1 OFFCURVE",
"735 183 OFFCURVE",
"735 431 CURVE SMOOTH",
"735 606 OFFCURVE",
"628 701 OFFCURVE",
"469 701 CURVE SMOOTH",
"182 701 LINE",
"71 1 LINE"
);
},
{
closed = 1;
nodes = (
"340 534 LINE",
"402 534 LINE SMOOTH",
"462 534 OFFCURVE",
"529 524 OFFCURVE",
"529 414 CURVE SMOOTH",
"529 247 OFFCURVE",
"458 171 OFFCURVE",
"345 171 CURVE SMOOTH",
"283 171 LINE"
);
}
);
width = 703;
}
);
rightKerningGroup = O;
unicode = 00D0;
},
{
glyphname = Dcroat;
lastChange = "2019-07-18 14:24:21 +0000";
layers = (
{
guideLines = (
{
angle = 90;
position = "{71, -88}";
}
);
layerId = "D085834A-C5B8-45AD-B7CB-7C394966C9BB";
paths = (
{
closed = 1;
nodes = (
"375 296 LINE",
"395 421 LINE",
"92 421 LINE",
"72 296 LINE"
);
},
{
closed = 1;
nodes = (
"355 1 LINE SMOOTH",
"574 1 OFFCURVE",
"735 183 OFFCURVE",
"735 431 CURVE SMOOTH",
"735 606 OFFCURVE",
"628 701 OFFCURVE",
"469 701 CURVE SMOOTH",
"182 701 LINE",
"71 1 LINE"
);
},
{
closed = 1;
nodes = (
"340 534 LINE",
"402 534 LINE SMOOTH",
"462 534 OFFCURVE",
"529 524 OFFCURVE",
"529 414 CURVE SMOOTH",
"529 247 OFFCURVE",
"458 171 OFFCURVE",
"345 171 CURVE SMOOTH",
"283 171 LINE"
);
}
);
width = 703;
},
{
guideLines = (
{
angle = 90;
position = "{654, 154}";
},
{
angle = 90;
position = "{118, -29}";
}
);
layerId = "B45F0BEB-E489-4392-AE53-309DD1ADE040";
paths = (
{
closed = 1;
nodes = (
"378 342 LINE",
"383 370 LINE",
"122 370 LINE",
"117 342 LINE"
);
},
{
closed = 1;
nodes = (
"309 -2 LINE SMOOTH",
"567 -2 OFFCURVE",
"739 173 OFFCURVE",
"739 435 CURVE SMOOTH",
"739 605 OFFCURVE",
"632 700 OFFCURVE",
"433 700 CURVE SMOOTH",
"241 700 LINE",
"117 -2 LINE"
);
},
{
closed = 1;
nodes = (
"269 666 LINE",
"427 666 LINE SMOOTH",
"488 666 OFFCURVE",
"706 668 OFFCURVE",
"706 433 CURVE SMOOTH",
"706 19 OFFCURVE",
"329 32 OFFCURVE",
"315 32 CURVE SMOOTH",
"157 32 LINE"
);
}
);
width = 720;
}
);
rightKerningGroup = O;
unicode = 0110;
},
{
glyphname = E;
lastChange = "2019-07-18 14:24:21 +0000";
layers = (
{
anchors = (
{
name = bottom;
position = "{285, 0}";
},
{
name = ogonek;
position = "{578, 51}";
},
{
name = top;
position = "{396, 700}";
},
{
name = topleft;
position = "{131, 700}";
}
);
guideLines = (
{
angle = 90;
position = "{535, 575}";
},
{
angle = 90;
position = "{285, 575}";
},
{
angle = 90;
position = "{41, 575}";
}
);
layerId = "D085834A-C5B8-45AD-B7CB-7C394966C9BB";
paths = (
{
closed = 1;
nodes = (
"233 0 LINE",
"344 700 LINE",
"152 700 LINE",
"41 0 LINE"
);
},
{
closed = 1;
nodes = (
"524 280 LINE",
"548 427 LINE",
"157 427 LINE",
"133 280 LINE"
);
},
{
closed = 1;
nodes = (
"620 535 LINE",
"646 700 LINE",
"271 700 LINE",
"245 535 LINE"
);
},
{
closed = 1;
nodes = (
"535 0 LINE",
"561 165 LINE",
"186 165 LINE",
"160 0 LINE"
);
}
);
width = 565;
},
{
anchors = (
{
name = bottom;
position = "{292, 0}";
},
{
name = ogonek;
position = "{536, 27}";
},
{
name = top;
position = "{415, 700}";
},
{
name = topleft;
position = "{143, 700}";
}
);
guideLines = (
{
angle = 90;
position = "{292, 590}";
},
{
position = "{300, 666}";
},
{
angle = 90;
position = "{92, 590}";
},
{
angle = 90;
position = "{492, 590}";
}
);
layerId = "B45F0BEB-E489-4392-AE53-309DD1ADE040";
paths = (
{
closed = 1;
nodes = (
"126 0 LINE",
"249 700 LINE",
"215 700 LINE",
"92 0 LINE"
);
},
{
closed = 1;
nodes = (
"517 343 LINE",
"523 375 LINE",
"184 375 LINE",
"178 343 LINE"
);
},
{
closed = 1;
nodes = (
"609 666 LINE",
"615 700 LINE",
"231 700 LINE",
"225 666 LINE"
);
},
{
closed = 1;
nodes = (
"492 0 LINE",
"498 34 LINE",
"114 34 LINE",
"108 0 LINE"
);
}
);
width = 571;
}
);
leftKerningGroup = h;
rightKerningGroup = E;
unicode = 0045;
},
{
glyphname = F;
lastChange = "2019-07-18 14:24:21 +0000";
layers = (
{
layerId = "D085834A-C5B8-45AD-B7CB-7C394966C9BB";
paths = (
{
closed = 1;
nodes = (
"234 0 LINE",
"345 700 LINE",
"153 700 LINE",
"42 0 LINE"
);
},
{
closed = 1;
nodes = (
"525 281 LINE",
"548 428 LINE",
"159 428 LINE",
"136 281 LINE"
);
},
{
closed = 1;
nodes = (
"599 535 LINE",
"625 700 LINE",
"272 700 LINE",
"246 535 LINE"
);
}
);
width = 507;
},
{
layerId = "B45F0BEB-E489-4392-AE53-309DD1ADE040";
paths = (
{
closed = 1;
nodes = (
"126 0 LINE",
"249 700 LINE",
"215 700 LINE",
"92 0 LINE"
);
},
{
closed = 1;
nodes = (
"502 343 LINE",
"508 375 LINE",
"182 373 LINE",
"176 343 LINE"
);
},
{
closed = 1;
nodes = (
"599 666 LINE",
"605 700 LINE",
"232 700 LINE",
"226 666 LINE"
);
}
);
width = 520;
}
);
leftKerningGroup = h;
rightKerningGroup = F;
unicode = 0046;
},
{
glyphname = G;
lastChange = "2019-07-18 14:24:21 +0000";
layers = (
{
anchors = (
{
name = bottom;
position = "{361, 0}";
},
{
name = top;
position = "{470, 700}";
}
);
guideLines = (
{
position = "{631, 447}";
},
{
position = "{437, 53}";
},
{
angle = 90;
position = "{231, -76}";
},
{
angle = 90;
position = "{35, -76}";
},
{
angle = 90;
position = "{227, -76}";
},
{
angle = 90;
position = "{467, 143}";
},
{
position = "{409, -10}";
}
);
layerId = "D085834A-C5B8-45AD-B7CB-7C394966C9BB";
paths = (
{
closed = 1;
nodes = (
"475 -10 OFFCURVE",
"530 76 OFFCURVE",
"540 91 CURVE",
"548 91 LINE",
"534 0 LINE",
"672 0 LINE",
"734 394 LINE",
"446 394 LINE",
"425 259 LINE",
"520 259 LINE",
"520 254 LINE SMOOTH",
"520 207 OFFCURVE",
"477 139 OFFCURVE",
"391 139 CURVE SMOOTH",
"316 139 OFFCURVE",
"276 190 OFFCURVE",
"276 280 CURVE SMOOTH",
"276 432 OFFCURVE",
"350 548 OFFCURVE",
"446 548 CURVE SMOOTH",
"507 548 OFFCURVE",
"535 511 OFFCURVE",
"541 465 CURVE",
"741 465 LINE",
"723 605 OFFCURVE",
"638 714 OFFCURVE",
"471 714 CURVE SMOOTH",
"256 714 OFFCURVE",
"84 518 OFFCURVE",
"84 273 CURVE SMOOTH",
"84 120 OFFCURVE",
"163 -10 OFFCURVE",
"335 -10 CURVE SMOOTH"
);
}
);
width = 717;
},
{
anchors = (
{
name = bottom;
position = "{358, 0}";
},
{
name = top;
position = "{491, 700}";
}
);
guideLines = (
{
angle = 90;
position = "{648, 409}";
},
{
position = "{606, 716}";
}
);
layerId = "B45F0BEB-E489-4392-AE53-309DD1ADE040";
paths = (
{
closed = 1;
nodes = (
"549 -5 OFFCURVE",
"626 129 OFFCURVE",
"626 129 CURVE",
"634 129 LINE",
"611 0 LINE",
"645 0 LINE",
"706 346 LINE",
"435 346 LINE",
"430 316 LINE",
"674 316 LINE",
"666 277 LINE SMOOTH",
"636 129 OFFCURVE",
"521 30 OFFCURVE",
"372 30 CURVE SMOOTH",
"234 30 OFFCURVE",
"153 117 OFFCURVE",
"153 267 CURVE SMOOTH",
"153 503 OFFCURVE",
"296 680 OFFCURVE",
"487 680 CURVE SMOOTH",
"617 680 OFFCURVE",
"687 615 OFFCURVE",
"700 505 CURVE",
"737 505 LINE",
"725 608 OFFCURVE",
"661 715 OFFCURVE",
"493 715 CURVE SMOOTH",
"284 715 OFFCURVE",
"117 518 OFFCURVE",
"117 269 CURVE SMOOTH",
"117 130 OFFCURVE",
"180 -5 OFFCURVE",
"366 -5 CURVE SMOOTH"
);
}
);
width = 715;
}
);
leftKerningGroup = O;
unicode = 0047;
},
{
glyphname = H;
lastChange = "2019-07-18 14:24:21 +0000";
layers = (
{
layerId = "D085834A-C5B8-45AD-B7CB-7C394966C9BB";
paths = (
{
closed = 1;
nodes = (
"640 0 LINE",
"751 700 LINE",
"559 700 LINE",
"448 0 LINE"
);
},
{
closed = 1;
nodes = (
"231 0 LINE",
"342 700 LINE",
"151 700 LINE",
"40 0 LINE"
);
},
{
closed = 1;
nodes = (
"520 277 LINE",
"543 424 LINE",
"254 424 LINE",
"231 277 LINE"
);
}
);
width = 680;
},
{
layerId = "B45F0BEB-E489-4392-AE53-309DD1ADE040";
paths = (
{
closed = 1;
nodes = (
"586 0 LINE",
"709 700 LINE",
"675 700 LINE",
"552 0 LINE"
);
},
{
closed = 1;
nodes = (
"126 0 LINE",
"249 700 LINE",
"215 700 LINE",
"92 0 LINE"
);
},
{
closed = 1;
nodes = (
"639 337 LINE",
"645 369 LINE",
"163 369 LINE",
"157 337 LINE"
);
}
);
width = 678;
}
);
leftKerningGroup = h;
rightKerningGroup = I;
unicode = 0048;
},
{
glyphname = Hbar;
lastChange = "2019-07-18 14:24:21 +0000";
layers = (
{
layerId = "B45F0BEB-E489-4392-AE53-309DD1ADE040";
paths = (
{
closed = 1;
nodes = (
"593 0 LINE",
"716 700 LINE",
"682 700 LINE",
"559 0 LINE"
);
},
{
closed = 1;
nodes = (
"133 0 LINE",
"256 700 LINE",
"222 700 LINE",
"99 0 LINE"
);
},
{
closed = 1;
nodes = (
"646 337 LINE",
"652 369 LINE",
"170 369 LINE",
"164 337 LINE"
);
},
{
closed = 1;
nodes = (
"750 525 LINE",
"755 557 LINE",
"133 557 LINE",
"128 525 LINE"
);
}
);
width = 692;
},
{
layerId = "D085834A-C5B8-45AD-B7CB-7C394966C9BB";
paths = (
{
closed = 1;
nodes = (
"649 0 LINE",
"760 700 LINE",
"568 700 LINE",
"457 0 LINE"
);
},
{
closed = 1;
nodes = (
"240 0 LINE",
"351 700 LINE",
"160 700 LINE",
"49 0 LINE"
);
},
{
closed = 1;
nodes = (
"538 277 LINE",
"561 424 LINE",
"272 424 LINE",
"249 277 LINE"
);
},
{
closed = 1;
nodes = (
"772 491 LINE",
"795 638 LINE",
"106 638 LINE",
"83 491 LINE"
);
}
);
width = 699;
}
);
unicode = 0126;
},
{
glyphname = I;
lastChange = "2019-07-18 14:24:21 +0000";
layers = (
{
anchors = (
{
name = bottom;
position = "{146, 0}";
},
{
name = ogonek;
position = "{285, 51}";
},
{
name = top;
position = "{257, 700}";
},
{
name = topleft;
position = "{131, 700}";
}
);
guideLines = (
{
angle = 90;
position = "{89, 103}";
},
{
angle = 90;
position = "{-49, 103}";
}
);
layerId = "D085834A-C5B8-45AD-B7CB-7C394966C9BB";
paths = (
{
closed = 1;
nodes = (
"242 0 LINE",
"353 700 LINE",
"161 700 LINE",
"50 0 LINE"
);
}
);
width = 292;
},
{
anchors = (
{
name = bottom;
position = "{110, 0}";
},
{
name = ogonek;
position = "{171, 27}";
},
{
name = top;
position = "{233, 700}";
},
{
name = topleft;
position = "{143, 700}";
}
);
layerId = "B45F0BEB-E489-4392-AE53-309DD1ADE040";
paths = (
{
closed = 1;
nodes = (
"127 0 LINE",
"250 700 LINE",
"215 700 LINE",
"92 0 LINE"
);
}
);
width = 219;
}
);
leftKerningGroup = h;
rightKerningGroup = I;
unicode = 0049;
},
{
glyphname = J;
lastChange = "2019-07-18 14:24:21 +0000";
layers = (
{
layerId = "D085834A-C5B8-45AD-B7CB-7C394966C9BB";
paths = (
{
closed = 1;
nodes = (
"335 -3 OFFCURVE",
"357 132 OFFCURVE",
"362 163 CURVE SMOOTH",
"447 700 LINE",
"257 700 LINE",
"182 224 LINE SMOOTH",
"175 179 OFFCURVE",
"167 137 OFFCURVE",
"99 137 CURVE SMOOTH",
"88 137 OFFCURVE",
"68 138 OFFCURVE",
"57 140 CURVE",
"36 6 LINE",
"53 2 OFFCURVE",
"94 -3 OFFCURVE",
"133 -3 CURVE SMOOTH"
);
}
);
width = 386;
},
{
layerId = "B45F0BEB-E489-4392-AE53-309DD1ADE040";
paths = (
{
closed = 1;
nodes = (
"206 -3 OFFCURVE",
"234 60 OFFCURVE",
"245 123 CURVE SMOOTH",
"346 700 LINE",
"314 700 LINE",
"212 123 LINE SMOOTH",
"205 81 OFFCURVE",
"193 26 OFFCURVE",
"111 26 CURVE SMOOTH",
"94 26 OFFCURVE",
"75 28 OFFCURVE",
"63 31 CURVE",
"58 3 LINE",
"70 -1 OFFCURVE",
"87 -3 OFFCURVE",
"109 -3 CURVE SMOOTH"
);
}
);
width = 327;
}
);
rightKerningGroup = U;
unicode = 004A;
},
{
glyphname = K;
lastChange = "2019-07-18 14:24:21 +0000";
layers = (
{
guideLines = (
{
angle = 50.9214;
position = "{534, 547}";
},
{
angle = 119.2887;
position = "{530, 209}";
}
);
layerId = "D085834A-C5B8-45AD-B7CB-7C394966C9BB";
paths = (
{
closed = 1;
nodes = (
"228 0 LINE",
"259 196 LINE",
"345 278 LINE",
"436 0 LINE",
"647 0 LINE",
"483 406 LINE",
"769 700 LINE",
"556 700 LINE",
"303 442 LINE",
"298 442 LINE",
"339 700 LINE",
"151 700 LINE",
"40 0 LINE"
);
}
);
width = 683;
},
{
guideLines = (
{
angle = 128.295;
position = "{323, 186}";
},
{
angle = 128.295;
position = "{395, 205}";
},
{
angle = 46.7234;
position = "{380, 543}";
},
{
angle = 45.9946;
position = "{339, 542}";
},
{
angle = 129.967;
position = "{358, 204}";
}
);
layerId = "B45F0BEB-E489-4392-AE53-309DD1ADE040";
paths = (
{
closed = 1;
nodes = (
"125 0 LINE",
"180 312 LINE",
"240 365 LINE",
"483 0 LINE",
"529 0 LINE",
"267 395 LINE",
"615 700 LINE",
"563 700 LINE",
"194 364 LINE",
"189 364 LINE",
"248 700 LINE",
"213 700 LINE",
"90 0 LINE"
);
}
);
width = 594;
}
);
leftKerningGroup = h;
rightKerningGroup = K;
unicode = 004B;
},
{
glyphname = L;
lastChange = "2019-07-18 14:24:21 +0000";
layers = (
{
anchors = (
{
name = bottom;
position = "{269, 0}";
},
{
name = center;
position = "{324, 350}";
},
{
name = top;
position = "{245, 700}";
},
{
name = topright;
position = "{629, 700}";
}
);
layerId = "D085834A-C5B8-45AD-B7CB-7C394966C9BB";
paths = (
{
closed = 1;
nodes = (
"232 0 LINE",
"343 700 LINE",
"151 700 LINE",
"40 0 LINE"
);
},
{
closed = 1;
nodes = (
"511 0 LINE",
"537 165 LINE",
"187 165 LINE",
"161 0 LINE"
);
}
);
width = 538;
},
{
anchors = (
{
name = bottom;
position = "{262, 0}";
},
{
name = center;
position = "{324, 350}";
},
{
name = top;
position = "{233, 700}";
},
{
name = topright;
position = "{627, 700}";
}
);
layerId = "B45F0BEB-E489-4392-AE53-309DD1ADE040";
paths = (
{
closed = 1;
nodes = (
"125 0 LINE",
"250 700 LINE",
"215 700 LINE",
"93 0 LINE"
);
},
{
closed = 1;
nodes = (
"477 0 LINE",
"483 34 LINE",
"117 34 LINE",
"111 0 LINE"
);
}
);
width = 524;
}
);
leftKerningGroup = h;
rightKerningGroup = L;
unicode = 004C;
},
{
glyphname = M;
lastChange = "2019-07-18 14:24:21 +0000";
layers = (
{
guideLines = (
{
angle = 90;
position = "{428, 141}";
},
{
angle = -71.9988;
position = "{465, 253}";
},
{
angle = -71.9988;
position = "{298, 219}";
},
{
position = "{750, 437}";
}
);
layerId = "D085834A-C5B8-45AD-B7CB-7C394966C9BB";
paths = (
{
closed = 1;
nodes = (
"227 0 LINE",
"296 437 LINE",
"301 437 LINE",
"369 0 LINE",
"487 0 LINE",
"693 437 LINE",
"698 437 LINE",
"629 0 LINE",
"816 0 LINE",
"927 700 LINE",
"642 700 LINE",
"488 373 LINE",
"486 373 LINE",
"436 700 LINE",
"151 700 LINE",
"40 0 LINE"
);
}
);
width = 856;
},
{
guideLines = (
{
angle = 112.0326;
position = "{232, 380}";
},
{
angle = 112.0326;
position = "{270, 380}";
},
{
angle = 90;
position = "{680, -63}";
},
{
angle = 90;
position = "{420, -63}";
}
);
layerId = "B45F0BEB-E489-4392-AE53-309DD1ADE040";
paths = (
{
closed = 1;
nodes = (
"126 0 LINE",
"237 632 LINE",
"241 632 LINE",
"386 0 LINE",
"420 0 LINE",
"787 632 LINE",
"791 632 LINE",
"680 0 LINE",
"714 0 LINE",
"837 700 LINE",
"789 700 LINE",
"416 60 LINE",
"412 60 LINE",
"263 700 LINE",
"215 700 LINE",
"92 0 LINE"
);
}
);
width = 806;
}
);
leftKerningGroup = h;
rightKerningGroup = I;
unicode = 004D;
},
{
glyphname = N;
lastChange = "2019-07-18 14:24:21 +0000";
layers = (
{
anchors = (
{
name = bottom;
position = "{346, 0}";
},
{
name = top;
position = "{457, 700}";
}
);
guideLines = (
{
position = "{750, 399}";
},
{
position = "{750, 437}";
}
);
layerId = "D085834A-C5B8-45AD-B7CB-7C394966C9BB";
paths = (
{
closed = 1;
nodes = (
"229 -1 LINE",
"290 387 LINE",
"293 387 LINE",
"426 -1 LINE",
"651 -1 LINE",
"762 700 LINE",
"573 700 LINE",
"508 290 LINE",
"506 290 LINE",
"374 700 LINE",
"151 700 LINE",
"40 -1 LINE"
);
}
);
width = 691;
},
{
anchors = (
{
name = bottom;
position = "{361, 0}";
},
{
name = top;
position = "{484, 700}";
}
);
guideLines = (
{
angle = 90;
position = "{150, 269}";
},
{
position = "{537, 592}";
},
{
angle = -53.9726;
position = "{367, 370}";
},
{
angle = -53.9726;
position = "{362, 319}";
}
);
layerId = "B45F0BEB-E489-4392-AE53-309DD1ADE040";
paths = (
{
closed = 1;
nodes = (
"126 0 LINE",
"238 638 LINE",
"242 638 LINE",
"594 0 LINE",
"629 0 LINE",
"752 700 LINE",
"718 700 LINE",
"606 62 LINE",
"602 62 LINE",
"250 700 LINE",
"215 700 LINE",
"92 0 LINE"
);
}
);
width = 721;
}
);
leftKerningGroup = h;
rightKerningGroup = I;
unicode = 004E;
},
{
glyphname = O;
lastChange = "2019-07-18 14:24:21 +0000";
layers = (
{
anchors = (
{
name = bottom;
position = "{357, 0}";
},
{
name = center;
position = "{413, 350}";
},
{
name = ogonek;
position = "{645, 10}";
},
{
name = top;
position = "{468, 700}";
},
{
name = topleft;
position = "{131, 700}";
},
{
name = topright;
position = "{645, 494}";
}
);
guideLines = (
{
angle = 90;
position = "{179, 221}";
},
{
angle = 90;
position = "{234, 88}";
},
{
position = "{507, 349}";
},
{
position = "{537, -10}";
},
{
position = "{681, 159}";
},
{
position = "{616, 714}";
},
{
angle = 90;
position = "{357, 575}";
},
{
position = "{706, 545}";
},
{
angle = 90;
position = "{30, 80}";
}
);
layerId = "D085834A-C5B8-45AD-B7CB-7C394966C9BB";
paths = (
{
closed = 1;
nodes = (
"574 -10 OFFCURVE",
"742 178 OFFCURVE",
"742 424 CURVE SMOOTH",
"742 582 OFFCURVE",
"658 714 OFFCURVE",
"470 714 CURVE SMOOTH",
"252 714 OFFCURVE",
"79 519 OFFCURVE",
"79 274 CURVE SMOOTH",
"79 120 OFFCURVE",
"162 -10 OFFCURVE",
"355 -10 CURVE SMOOTH"
);
},
{
closed = 1;
nodes = (
"310 159 OFFCURVE",
"285 223 OFFCURVE",
"285 294 CURVE SMOOTH",
"285 429 OFFCURVE",
"357 545 OFFCURVE",
"442 545 CURVE SMOOTH",
"512 545 OFFCURVE",
"537 480 OFFCURVE",
"537 407 CURVE SMOOTH",
"537 270 OFFCURVE",
"467 159 OFFCURVE",
"381 159 CURVE SMOOTH"
);
}
);
width = 716;
},
{
anchors = (
{
name = bottom;
position = "{373, 0}";
},
{
name = center;
position = "{435, 350}";
},
{
name = ogonek;
position = "{673, 10}";
},
{
name = top;
position = "{496, 700}";
},
{
name = topleft;
position = "{143, 700}";
},
{
name = topright;
position = "{660, 700}";
}
);
guideLines = (
{
position = "{22, 679}";
},
{
position = "{42, 713}";
},
{
position = "{33, -7}";
},
{
position = "{34, 28}";
},
{
angle = 90;
position = "{96, 153}";
},
{
angle = 90;
position = "{62, 153}";
}
);
layerId = "B45F0BEB-E489-4392-AE53-309DD1ADE040";
paths = (
{
closed = 1;
nodes = (
"589 -5 OFFCURVE",
"754 191 OFFCURVE",
"754 448 CURVE SMOOTH",
"754 613 OFFCURVE",
"663 715 OFFCURVE",
"499 715 CURVE SMOOTH",
"281 715 OFFCURVE",
"116 519 OFFCURVE",
"116 262 CURVE SMOOTH",
"116 98 OFFCURVE",
"207 -5 OFFCURVE",
"372 -5 CURVE SMOOTH"
);
},
{
closed = 1;
nodes = (
"235 30 OFFCURVE",
"151 123 OFFCURVE",
"151 273 CURVE SMOOTH",
"151 502 OFFCURVE",
"301 681 OFFCURVE",
"493 681 CURVE SMOOTH",
"635 681 OFFCURVE",
"719 589 OFFCURVE",
"719 439 CURVE SMOOTH",
"719 210 OFFCURVE",
"570 30 OFFCURVE",
"378 30 CURVE SMOOTH"
);
}
);
width = 745;
}
);
leftKerningGroup = O;
rightKerningGroup = O;
unicode = 004F;
},
{
glyphname = Oslash;
lastChange = "2019-07-18 14:24:21 +0000";
layers = (
{
components = (
{
name = O;
transform = "{1, 0, 0, 1, -1, 0}";
}
);
layerId = "B45F0BEB-E489-4392-AE53-309DD1ADE040";
paths = (
{
closed = 1;
nodes = (
"131 -43 LINE",
"774 743 LINE",
"737 743 LINE",
"94 -43 LINE"
);
}
);
width = 744;
},
{
components = (
{
name = O;
transform = "{1, 0, 0, 1, 13, 0}";
}
);
layerId = "D085834A-C5B8-45AD-B7CB-7C394966C9BB";
paths = (
{
closed = 1;
nodes = (
"195 -43 LINE",
"823 743 LINE",
"652 743 LINE",
"24 -43 LINE"
);
}
);
width = 741;
}
);
unicode = 00D8;
},
{
glyphname = OE;
lastChange = "2019-07-18 14:24:21 +0000";
layers = (
{
layerId = "B45F0BEB-E489-4392-AE53-309DD1ADE040";
paths = (
{
closed = 1;
nodes = (
"877 0 LINE",
"883 34 LINE",
"517 34 LINE",
"572 343 LINE",
"903 343 LINE",
"909 375 LINE",
"578 375 LINE",
"629 666 LINE",
"995 666 LINE",
"1001 700 LINE",
"485 700 LINE SMOOTH",
"268 700 OFFCURVE",
"104 512 OFFCURVE",
"104 262 CURVE SMOOTH",
"104 101 OFFCURVE",
"196 0 OFFCURVE",
"361 0 CURVE SMOOTH"
);
},
{
closed = 1;
nodes = (
"224 33 OFFCURVE",
"139 125 OFFCURVE",
"139 272 CURVE SMOOTH",
"139 495 OFFCURVE",
"288 667 OFFCURVE",
"479 667 CURVE SMOOTH",
"595 667 LINE",
"483 33 LINE",
"367 33 LINE SMOOTH"
);
}
);
width = 956;
},
{
guideLines = (
{
angle = 180;
position = "{488, 534}";
},
{
position = "{488, 171}";
}
);
layerId = "D085834A-C5B8-45AD-B7CB-7C394966C9BB";
paths = (
{
closed = 1;
nodes = (
"946 0 LINE",
"972 165 LINE",
"670 165 LINE",
"688 280 LINE",
"935 280 LINE",
"958 427 LINE",
"711 427 LINE",
"728 535 LINE",
"1030 535 LINE",
"1057 700 LINE",
"468 700 LINE SMOOTH",
"247 700 OFFCURVE",
"79 517 OFFCURVE",
"79 276 CURVE SMOOTH",
"79 122 OFFCURVE",
"164 0 OFFCURVE",
"357 0 CURVE SMOOTH"
);
},
{
closed = 1;
nodes = (
"311 170 OFFCURVE",
"285 228 OFFCURVE",
"285 297 CURVE SMOOTH",
"285 428 OFFCURVE",
"354 533 OFFCURVE",
"441 533 CURVE SMOOTH",
"536 533 LINE",
"479 170 LINE",
"384 170 LINE SMOOTH"
);
}
);
width = 976;
}
);
leftKerningGroup = O;
rightKerningGroup = E;
unicode = 0152;
},
{
glyphname = P;
lastChange = "2019-07-18 14:24:21 +0000";
layers = (
{
guideLines = (
{
angle = 90;
position = "{194, 89}";
},
{
angle = 90;
position = "{59, 76}";
},
{
position = "{-185, 700}";
},
{
position = "{245, 534}";
}
);
layerId = "D085834A-C5B8-45AD-B7CB-7C394966C9BB";
paths = (
{
closed = 1;
nodes = (
"352 203 LINE SMOOTH",
"527 203 OFFCURVE",
"656 326 OFFCURVE",
"656 493 CURVE SMOOTH",
"656 607 OFFCURVE",
"582 700 OFFCURVE",
"431 700 CURVE SMOOTH",
"313 700 LINE",
"287 534 LINE",
"373 534 LINE SMOOTH",
"421 534 OFFCURVE",
"468 520 OFFCURVE",
"468 466 CURVE SMOOTH",
"468 400 OFFCURVE",
"421 358 OFFCURVE",
"345 358 CURVE SMOOTH",
"259 358 LINE",
"234 203 LINE"
);
},
{
closed = 1;
nodes = (
"228 0 LINE",
"339 700 LINE",
"151 700 LINE",
"40 0 LINE"
);
}
);
width = 586;
},
{
guideLines = (
{
position = "{236, 665}";
},
{
angle = 90;
position = "{509, 102}";
},
{
angle = 90;
position = "{542, -70}";
}
);
layerId = "B45F0BEB-E489-4392-AE53-309DD1ADE040";
paths = (
{
closed = 1;
nodes = (
"355 262 LINE SMOOTH",
"539 262 OFFCURVE",
"631 395 OFFCURVE",
"631 527 CURVE SMOOTH",
"631 610 OFFCURVE",
"589 700 OFFCURVE",
"432 700 CURVE SMOOTH",
"242 700 LINE",
"236 666 LINE",
"426 666 LINE SMOOTH",
"509 666 OFFCURVE",
"598 637 OFFCURVE",
"598 526 CURVE SMOOTH",
"598 386 OFFCURVE",
"505 296 OFFCURVE",
"361 296 CURVE SMOOTH",
"171 296 LINE",
"165 262 LINE"
);
},
{
closed = 1;
nodes = (
"124 0 LINE",
"247 700 LINE",
"215 700 LINE",
"92 0 LINE"
);
}
);
width = 584;
}
);
leftKerningGroup = h;
rightKerningGroup = nine;
unicode = 0050;
},
{
glyphname = Thorn;
lastChange = "2019-07-18 14:24:21 +0000";
layers = (
{
layerId = "B45F0BEB-E489-4392-AE53-309DD1ADE040";
paths = (
{
closed = 1;
nodes = (
"332 131 LINE SMOOTH",
"516 131 OFFCURVE",
"608 265 OFFCURVE",
"608 396 CURVE SMOOTH",
"608 479 OFFCURVE",
"566 569 OFFCURVE",
"409 569 CURVE SMOOTH",
"219 569 LINE",
"213 535 LINE",
"403 535 LINE SMOOTH",
"486 535 OFFCURVE",
"575 506 OFFCURVE",
"575 395 CURVE SMOOTH",
"575 255 OFFCURVE",
"482 165 OFFCURVE",
"338 165 CURVE SMOOTH",
"148 165 LINE",
"142 131 LINE"
);
},
{
closed = 1;
nodes = (
"124 0 LINE",
"247 700 LINE",
"215 700 LINE",
"92 0 LINE"
);
}
);
width = 584;
},
{
layerId = "D085834A-C5B8-45AD-B7CB-7C394966C9BB";
paths = (
{
closed = 1;
nodes = (
"336 102 LINE SMOOTH",
"511 102 OFFCURVE",
"640 225 OFFCURVE",
"640 392 CURVE SMOOTH",
"640 506 OFFCURVE",
"566 599 OFFCURVE",
"415 599 CURVE SMOOTH",
"297 599 LINE",
"271 433 LINE",
"357 433 LINE SMOOTH",
"405 433 OFFCURVE",
"452 419 OFFCURVE",
"452 365 CURVE SMOOTH",
"452 299 OFFCURVE",
"405 257 OFFCURVE",
"329 257 CURVE SMOOTH",
"243 257 LINE",
"218 102 LINE"
);
},
{
closed = 1;
nodes = (
"228 0 LINE",
"339 700 LINE",
"151 700 LINE",
"40 0 LINE"
);
}
);
width = 611;
}
);
unicode = 00DE;
},
{
glyphname = Q;
lastChange = "2019-07-18 14:24:21 +0000";
layers = (
{
components = (
{
name = O;
}
);
layerId = "B45F0BEB-E489-4392-AE53-309DD1ADE040";
paths = (
{
closed = 1;
nodes = (
"654 -67 LINE",
"440 263 LINE",
"396 263 LINE",
"610 -67 LINE"
);
}
);
width = 743;
},
{
components = (
{
name = O;
}
);
layerId = "D085834A-C5B8-45AD-B7CB-7C394966C9BB";
paths = (
{
closed = 1;
nodes = (
"655 -33 LINE",
"479 282 LINE",
"318 282 LINE",
"494 -33 LINE"
);
}
);
width = 711;
}
);
leftKerningGroup = O;
rightKerningGroup = O;
unicode = 0051;
},
{
glyphname = R;
lastChange = "2019-07-18 14:24:21 +0000";
layers = (
{
anchors = (
{
name = bottom;
position = "{299, 0}";
},
{
name = top;
position = "{410, 700}";
}
);
guideLines = (
{
position = "{479, 534}";
}
);
layerId = "D085834A-C5B8-45AD-B7CB-7C394966C9BB";
paths = (
{
closed = 1;
nodes = (
"230 0 LINE",
"341 700 LINE",
"151 700 LINE",
"40 0 LINE"
);
},
{
closed = 1;
nodes = (
"601 0 LINE",
"500 282 LINE",
"313 259 LINE",
"405 0 LINE"
);
},
{
closed = 1;
nodes = (
"356 228 LINE SMOOTH",
"531 228 OFFCURVE",
"657 343 OFFCURVE",
"657 502 CURVE SMOOTH",
"657 612 OFFCURVE",
"583 700 OFFCURVE",
"431 700 CURVE SMOOTH",
"313 700 LINE",
"287 535 LINE",
"373 535 LINE SMOOTH",
"423 535 OFFCURVE",
"470 522 OFFCURVE",
"470 474 CURVE SMOOTH",
"470 417 OFFCURVE",
"423 381 OFFCURVE",
"348 381 CURVE SMOOTH",
"262 381 LINE",
"238 228 LINE"
);
}
);
width = 610;
},
{
anchors = (
{
name = bottom;
position = "{297, 0}";
},
{
name = top;
position = "{400, 700}";
}
);
guideLines = (
{
position = "{428, 637}";
},
{
angle = 90;
position = "{507, 180}";
},
{
angle = 90;
position = "{540, 8}";
}
);
layerId = "B45F0BEB-E489-4392-AE53-309DD1ADE040";
paths = (
{
closed = 1;
nodes = (
"126 0 LINE",
"249 700 LINE",
"215 700 LINE",
"92 0 LINE"
);
},
{
closed = 1;
nodes = (
"541 0 LINE",
"374 314 LINE",
"331 317 LINE",
"497 0 LINE"
);
},
{
closed = 1;
nodes = (
"363 305 LINE SMOOTH",
"549 305 OFFCURVE",
"634 427 OFFCURVE",
"634 540 CURVE SMOOTH",
"634 615 OFFCURVE",
"592 700 OFFCURVE",
"432 700 CURVE SMOOTH",
"242 700 LINE",
"236 666 LINE",
"426 666 LINE SMOOTH",
"509 666 OFFCURVE",
"601 640 OFFCURVE",
"601 538 CURVE SMOOTH",
"601 417 OFFCURVE",
"511 339 OFFCURVE",
"369 339 CURVE SMOOTH",
"179 339 LINE",
"173 305 LINE"
);
}
);
width = 603;
}
);
leftKerningGroup = h;
rightKerningGroup = nine;
unicode = 0052;
},
{
glyphname = S;
lastChange = "2019-07-18 14:24:21 +0000";
layers = (
{
anchors = (
{
name = bottom;
position = "{347, -6}";
},
{
name = top;
position = "{465, 699}";
}
);
guideLines = (
{
angle = 90;
position = "{364, -110}";
},
{
position = "{73, 591}";
},
{
angle = 90;
position = "{-68, 421}";
},
{
position = "{-49, 111}";
},
{
position = "{594, -10}";
},
{
angle = 163.6442;
position = "{388, 265}";
},
{
angle = 163.6442;
position = "{395, 439}";
},
{
position = "{652, 557}";
},
{
position = "{652, 714}";
},
{
angle = 90;
position = "{243, 373}";
},
{
angle = 90;
position = "{573, -110}";
},
{
angle = 90;
position = "{52, 313}";
}
);
layerId = "D085834A-C5B8-45AD-B7CB-7C394966C9BB";
paths = (
{
closed = 1;
nodes = (
"486 -10 OFFCURVE",
"620 104 OFFCURVE",
"620 252 CURVE SMOOTH",
"620 356 OFFCURVE",
"541 405 OFFCURVE",
"460 424 CURVE SMOOTH",
"387 441 LINE SMOOTH",
"366 446 OFFCURVE",
"322 457 OFFCURVE",
"322 495 CURVE SMOOTH",
"322 530 OFFCURVE",
"349 556 OFFCURVE",
"387 556 CURVE SMOOTH",
"436 556 OFFCURVE",
"444 520 OFFCURVE",
"444 496 CURVE SMOOTH",
"444 492 LINE",
"660 492 LINE",
"660 498 LINE SMOOTH",
"660 604 OFFCURVE",
"593 714 OFFCURVE",
"420 714 CURVE SMOOTH",
"251 714 OFFCURVE",
"128 609 OFFCURVE",
"128 463 CURVE SMOOTH",
"128 334 OFFCURVE",
"248 297 OFFCURVE",
"297 286 CURVE SMOOTH",
"364 271 LINE SMOOTH",
"387 266 OFFCURVE",
"417 251 OFFCURVE",
"417 220 CURVE SMOOTH",
"417 183 OFFCURVE",
"383 155 OFFCURVE",
"341 155 CURVE SMOOTH",
"292 155 OFFCURVE",
"277 192 OFFCURVE",
"277 223 CURVE SMOOTH",
"277 231 LINE",
"71 231 LINE",
"70 222 LINE SMOOTH",
"57 106 OFFCURVE",
"132 -10 OFFCURVE",
"311 -10 CURVE SMOOTH"
);
}
);
width = 608;
},
{
anchors = (
{
name = bottom;
position = "{301, -7}";
},
{
name = top;
position = "{421, 700}";
}
);
guideLines = (
{
position = "{19, -7}";
},
{
position = "{37, 680}";
},
{
position = "{573, 715}";
}
);
layerId = "B45F0BEB-E489-4392-AE53-309DD1ADE040";
paths = (
{
closed = 1;
nodes = (
"452 -7 OFFCURVE",
"571 95 OFFCURVE",
"571 225 CURVE SMOOTH",
"571 335 OFFCURVE",
"457 361 OFFCURVE",
"406 371 CURVE SMOOTH",
"309 390 LINE SMOOTH",
"240 404 OFFCURVE",
"204 441 OFFCURVE",
"204 497 CURVE SMOOTH",
"204 598 OFFCURVE",
"298 680 OFFCURVE",
"414 680 CURVE SMOOTH",
"570 680 OFFCURVE",
"582 559 OFFCURVE",
"582 502 CURVE SMOOTH",
"582 500 LINE",
"623 500 LINE",
"623 502 LINE SMOOTH",
"623 603 OFFCURVE",
"576 715 OFFCURVE",
"421 715 CURVE SMOOTH",
"278 715 OFFCURVE",
"168 617 OFFCURVE",
"168 491 CURVE SMOOTH",
"168 378 OFFCURVE",
"281 359 OFFCURVE",
"305 354 CURVE SMOOTH",
"419 332 LINE SMOOTH",
"483 320 OFFCURVE",
"534 284 OFFCURVE",
"534 217 CURVE SMOOTH",
"534 111 OFFCURVE",
"436 29 OFFCURVE",
"308 29 CURVE SMOOTH",
"154 29 OFFCURVE",
"130 146 OFFCURVE",
"130 223 CURVE SMOOTH",
"130 226 LINE",
"89 226 LINE",
"89 224 LINE SMOOTH",
"89 117 OFFCURVE",
"134 -7 OFFCURVE",
"301 -7 CURVE SMOOTH"
);
}
);
width = 595;
}
);
leftKerningGroup = S;
rightKerningGroup = S;
unicode = 0053;
},
{
glyphname = T;
lastChange = "2019-07-18 14:24:21 +0000";
layers = (
{
anchors = (
{
name = bottom;
position = "{311, -6}";
},
{
name = center;
position = "{354, 350}";
},
{
name = top;
position = "{409, 700}";
}
);
guideLines = (
{
position = "{305, 626}";
}
);
layerId = "D085834A-C5B8-45AD-B7CB-7C394966C9BB";
paths = (
{
closed = 1;
nodes = (
"393 0 LINE",
"504 700 LINE",
"314 700 LINE",
"203 0 LINE"
);
},
{
closed = 1;
nodes = (
"651 535 LINE",
"677 700 LINE",
"141 700 LINE",
"115 535 LINE"
);
}
);
width = 596;
},
{
anchors = (
{
name = bottom;
position = "{294, -6}";
},
{
name = center;
position = "{354, 350}";
},
{
name = top;
position = "{416, 700}";
}
);
layerId = "B45F0BEB-E489-4392-AE53-309DD1ADE040";
paths = (
{
closed = 1;
nodes = (
"309 0 LINE",
"432 700 LINE",
"398 700 LINE",
"275 0 LINE"
);
},
{
closed = 1;
nodes = (
"649 666 LINE",
"655 700 LINE",
"175 700 LINE",
"169 666 LINE"
);
}
);
width = 585;
}
);
leftKerningGroup = T;
rightKerningGroup = T;
unicode = 0054;
},
{
glyphname = Tbar;
lastChange = "2019-07-18 14:24:21 +0000";
layers = (
{
layerId = "B45F0BEB-E489-4392-AE53-309DD1ADE040";
paths = (
{
closed = 1;
nodes = (
"309 0 LINE",
"432 700 LINE",
"398 700 LINE",
"275 0 LINE"
);
},
{
closed = 1;
nodes = (
"649 666 LINE",
"655 700 LINE",
"175 700 LINE",
"169 666 LINE"
);
},
{
closed = 1;
nodes = (
"561 391 LINE",
"567 425 LINE",
"167 425 LINE",
"161 391 LINE"
);
}
);
width = 584;
},
{
layerId = "D085834A-C5B8-45AD-B7CB-7C394966C9BB";
paths = (
{
closed = 1;
nodes = (
"393 0 LINE",
"504 700 LINE",
"314 700 LINE",
"203 0 LINE"
);
},
{
closed = 1;
nodes = (
"651 535 LINE",
"677 700 LINE",
"141 700 LINE",
"115 535 LINE"
);
},
{
closed = 1;
nodes = (
"571 282 LINE",
"590 402 LINE",
"134 402 LINE",
"115 282 LINE"
);
}
);
width = 596;
}
);
unicode = 0166;
},
{
glyphname = U;
lastChange = "2019-07-18 14:24:21 +0000";
layers = (
{
anchors = (
{
name = bottom;
position = "{342, 0}";
},
{
name = ogonek;
position = "{464, 49}";
},
{
name = top;
position = "{453, 700}";
},
{
name = topright;
position = "{718, 494}";
}
);
guideLines = (
{
angle = 90;
position = "{235, 92}";
},
{
position = "{550, -10}";
},
{
angle = 90;
position = "{344, 92}";
},
{
angle = 90;
position = "{342, 92}";
},
{
angle = 90;
position = "{451, 92}";
}
);
layerId = "D085834A-C5B8-45AD-B7CB-7C394966C9BB";
paths = (
{
closed = 1;
nodes = (
"483 -10 OFFCURVE",
"648 54 OFFCURVE",
"688 305 CURVE SMOOTH",
"751 700 LINE",
"562 700 LINE",
"501 320 LINE SMOOTH",
"484 215 OFFCURVE",
"441 171 OFFCURVE",
"370 171 CURVE SMOOTH",
"297 171 OFFCURVE",
"268 215 OFFCURVE",
"285 320 CURVE SMOOTH",
"346 700 LINE",
"156 700 LINE",
"93 305 LINE SMOOTH",
"53 53 OFFCURVE",
"200 -10 OFFCURVE",
"341 -10 CURVE SMOOTH"
);
}
);
width = 685;
},
{
anchors = (
{
name = bottom;
position = "{344, 0}";
},
{
name = ogonek;
position = "{410, 18}";
},
{
name = top;
position = "{467, 700}";
},
{
name = topright;
position = "{766, 700}";
}
);
guideLines = (
{
angle = 90;
position = "{550, 132}";
},
{
angle = 90;
position = "{133, 99}";
},
{
position = "{17, 42}";
}
);
layerId = "B45F0BEB-E489-4392-AE53-309DD1ADE040";
paths = (
{
closed = 1;
nodes = (
"536 -9 OFFCURVE",
"630 131 OFFCURVE",
"662 310 CURVE SMOOTH",
"731 700 LINE",
"698 700 LINE",
"628 306 LINE SMOOTH",
"618 249 OFFCURVE",
"575 25 OFFCURVE",
"348 25 CURVE SMOOTH",
"116 25 OFFCURVE",
"153 253 OFFCURVE",
"162 306 CURVE SMOOTH",
"232 700 LINE",
"199 700 LINE",
"130 310 LINE SMOOTH",
"99 134 OFFCURVE",
"142 -9 OFFCURVE",
"342 -9 CURVE SMOOTH"
);
}
);
width = 683;
}
);
leftKerningGroup = U;
rightKerningGroup = U;
unicode = 0055;
},
{
glyphname = V;
lastChange = "2019-07-18 14:24:21 +0000";
layers = (
{
guideLines = (
{
angle = 105.9607;
position = "{268, 454}";
},
{
angle = 73.0493;
position = "{565, 344}";
},
{
angle = -72.9733;
position = "{116, 344}";
}
);
layerId = "D085834A-C5B8-45AD-B7CB-7C394966C9BB";
paths = (
{
closed = 1;
nodes = (
"460 -1 LINE",
"785 700 LINE",
"595 700 LINE",
"377 207 LINE",
"371 207 LINE",
"308 700 LINE",
"118 700 LINE",
"221 -1 LINE"
);
}
);
width = 680;
},
{
guideLines = (
{
angle = 90;
position = "{305, 15}";
},
{
angle = -69.8099;
position = "{149, 344}";
},
{
angle = 69.8099;
position = "{462, 344}";
}
);
layerId = "B45F0BEB-E489-4392-AE53-309DD1ADE040";
paths = (
{
closed = 1;
nodes = (
"335 0 LINE",
"715 700 LINE",
"679 700 LINE",
"312 27 LINE",
"306 27 LINE",
"177 700 LINE",
"141 700 LINE",
"275 0 LINE"
);
}
);
width = 610;
}
);
leftKerningGroup = V;
rightKerningGroup = V;
unicode = 0056;
},
{
glyphname = W;
lastChange = "2019-07-18 14:24:21 +0000";
layers = (
{
anchors = (
{
name = bottom;
position = "{499, 0}";
},
{
name = top;
position = "{610, 700}";
}
);
guideLines = (
{
angle = 90;
position = "{156, 416}";
},
{
angle = 90;
position = "{983, 406}";
},
{
angle = 90;
position = "{499, 404}";
},
{
angle = 90;
position = "{499, 416}";
},
{
angle = -76.2184;
position = "{95, 344}";
},
{
angle = 76.14;
position = "{904, 344}";
}
);
layerId = "D085834A-C5B8-45AD-B7CB-7C394966C9BB";
paths = (
{
closed = 1;
nodes = (
"399 -1 LINE",
"552 354 LINE",
"558 354 LINE",
"599 -1 LINE",
"819 -1 LINE",
"1103 700 LINE",
"912 700 LINE",
"753 258 LINE",
"747 258 LINE",
"692 700 LINE",
"527 700 LINE",
"332 258 LINE",
"326 258 LINE",
"309 700 LINE",
"119 700 LINE",
"179 -1 LINE"
);
}
);
width = 999;
},
{
anchors = (
{
name = bottom;
position = "{495, 0}";
},
{
name = top;
position = "{618, 700}";
}
);
guideLines = (
{
angle = 90;
position = "{495, 617}";
},
{
position = "{522, 700}";
},
{
position = "{522, 0}";
},
{
position = "{522, 77}";
},
{
position = "{369, 26}";
},
{
angle = 105.5554;
position = "{110, 370}";
},
{
angle = 105.5554;
position = "{153, 370}";
},
{
angle = 251.2342;
position = "{393, 357}";
},
{
angle = 251.2342;
position = "{364, 363}";
},
{
angle = 74.4072;
position = "{872, 344}";
}
);
layerId = "B45F0BEB-E489-4392-AE53-309DD1ADE040";
paths = (
{
closed = 1;
nodes = (
"275 0 LINE",
"606 647 LINE",
"612 647 LINE",
"715 0 LINE",
"776 0 LINE",
"1094 700 LINE",
"1060 700 LINE",
"751 26 LINE",
"745 26 LINE",
"636 700 LINE",
"601 700 LINE",
"253 26 LINE",
"247 26 LINE",
"176 700 LINE",
"141 700 LINE",
"214 0 LINE"
);
}
);
width = 990;
}
);
leftKerningGroup = V;
rightKerningGroup = V;
unicode = 0057;
},
{
glyphname = X;
lastChange = "2019-07-18 14:24:21 +0000";
layers = (
{
guideLines = (
{
angle = 57.187;
position = "{565, 518}";
},
{
angle = -57.6729;
position = "{131, 518}";
},
{
angle = 237.6729;
position = "{131, 183}";
},
{
angle = 122.813;
position = "{565, 183}";
}
);
layerId = "D085834A-C5B8-45AD-B7CB-7C394966C9BB";
paths = (
{
closed = 1;
nodes = (
"222 0 LINE",
"379 217 LINE",
"385 217 LINE",
"476 0 LINE",
"683 0 LINE",
"512 350 LINE",
"793 700 LINE",
"587 700 LINE",
"428 484 LINE",
"422 484 LINE",
"333 700 LINE",
"127 700 LINE",
"292 350 LINE",
"15 0 LINE"
);
}
);
width = 693;
},
{
guideLines = (
{
angle = 235.6442;
position = "{177, 183}";
},
{
angle = 124.0047;
position = "{466, 183}";
},
{
angle = 55.9953;
position = "{466, 518}";
},
{
angle = -55.6442;
position = "{177, 518}";
}
);
layerId = "B45F0BEB-E489-4392-AE53-309DD1ADE040";
paths = (
{
closed = 1;
nodes = (
"94 0 LINE",
"376 325 LINE",
"382 325 LINE",
"546 0 LINE",
"589 0 LINE",
"415 350 LINE",
"712 700 LINE",
"669 700 LINE",
"391 374 LINE",
"385 374 LINE",
"217 700 LINE",
"176 700 LINE",
"353 350 LINE",
"52 0 LINE"
);
}
);
width = 640;
}
);
leftKerningGroup = X;
rightKerningGroup = X;
unicode = 0058;
},
{
glyphname = Y;
lastChange = "2019-07-18 14:24:21 +0000";
layers = (
{
anchors = (
{
name = bottom;
position = "{339, 0}";
},
{
name = top;
position = "{450, 700}";
},
{
name = topleft;
position = "{131, 700}";
}
);
guideLines = (
{
angle = 90;
position = "{342, 363}";
},
{
angle = -63.6852;
position = "{134, 462}";
},
{
angle = 63.6852;
position = "{550, 462}";
}
);
layerId = "D085834A-C5B8-45AD-B7CB-7C394966C9BB";
paths = (
{
closed = 1;
nodes = (
"473 232 LINE",
"779 700 LINE",
"582 700 LINE",
"410 417 LINE",
"405 417 LINE",
"323 700 LINE",
"127 700 LINE",
"284 232 LINE",
"247 0 LINE",
"436 0 LINE"
);
}
);
width = 673;
},
{
anchors = (
{
name = bottom;
position = "{288, 0}";
},
{
name = top;
position = "{411, 700}";
},
{
name = topleft;
position = "{143, 700}";
}
);
guideLines = (
{
angle = 90;
position = "{288, 71}";
},
{
angle = -62.4243;
position = "{159, 478}";
},
{
angle = 62.5298;
position = "{416, 478}";
}
);
layerId = "B45F0BEB-E489-4392-AE53-309DD1ADE040";
paths = (
{
closed = 1;
nodes = (
"351 264 LINE",
"653 700 LINE",
"610 700 LINE",
"347 317 LINE",
"339 317 LINE",
"209 700 LINE",
"166 700 LINE",
"316 264 LINE",
"269 -1 LINE",
"305 0 LINE"
);
}
);
width = 585;
}
);
leftKerningGroup = Y;
rightKerningGroup = Y;
unicode = 0059;
},
{
glyphname = Z;
lastChange = "2019-07-18 14:24:21 +0000";
layers = (
{
anchors = (
{
name = bottom;
position = "{319, 0}";
},
{
name = center;
position = "{374, 350}";
},
{
name = top;
position = "{430, 700}";
}
);
layerId = "D085834A-C5B8-45AD-B7CB-7C394966C9BB";
paths = (
{
closed = 1;
nodes = (
"591 0 LINE",
"618 171 LINE",
"289 171 LINE",
"289 173 LINE",
"675 530 LINE",
"702 700 LINE",
"150 700 LINE",
"123 530 LINE",
"450 530 LINE",
"450 528 LINE",
"66 171 LINE",
"39 0 LINE"
);
}
);
width = 637;
},
{
anchors = (
{
name = bottom;
position = "{300, 0}";
},
{
name = center;
position = "{362, 350}";
},
{
name = top;
position = "{423, 700}";
}
);
layerId = "B45F0BEB-E489-4392-AE53-309DD1ADE040";
paths = (
{
closed = 1;
nodes = (
"525 0 LINE",
"531 35 LINE",
"110 35 LINE",
"111 37 LINE",
"642 665 LINE",
"648 700 LINE",
"182 700 LINE",
"176 665 LINE",
"597 665 LINE",
"597 663 LINE",
"65 35 LINE",
"59 0 LINE"
);
}
);
width = 600;
}
);
unicode = 005A;
},
{
glyphname = B.ss01;
lastChange = "2019-07-18 14:24:21 +0000";
layers = (
{
guideLines = (
{
position = "{422, 220}";
},
{
position = "{422, 169}";
}
);
layerId = "B45F0BEB-E489-4392-AE53-309DD1ADE040";
paths = (
{
closed = 1;
nodes = (
"370 0 LINE SMOOTH",
"520 0 OFFCURVE",
"584 80 OFFCURVE",
"599 163 CURVE SMOOTH",
"608 214 LINE SMOOTH",
"629 334 OFFCURVE",
"507 357 OFFCURVE",
"478 359 CURVE",
"479 363 LINE",
"514 367 OFFCURVE",
"616 407 OFFCURVE",
"633 499 CURVE SMOOTH",
"642 550 LINE SMOOTH",
"654 620 OFFCURVE",
"619 700 OFFCURVE",
"483 700 CURVE SMOOTH",
"215 700 LINE",
"92 0 LINE"
);
},
{
closed = 1;
nodes = (
"242 667 LINE",
"478 667 LINE SMOOTH",
"579 667 OFFCURVE",
"615 613 OFFCURVE",
"603 539 CURVE SMOOTH",
"597 503 LINE SMOOTH",
"585 429 OFFCURVE",
"514 375 OFFCURVE",
"414 375 CURVE SMOOTH",
"190 375 LINE"
);
},
{
closed = 1;
nodes = (
"184 341 LINE",
"436 341 LINE SMOOTH",
"545 341 OFFCURVE",
"581 284 OFFCURVE",
"569 207 CURVE SMOOTH",
"563 169 LINE SMOOTH",
"551 92 OFFCURVE",
"500 35 OFFCURVE",
"376 35 CURVE SMOOTH",
"130 35 LINE"
);
}
);
width = 615;
},
{
guideLines = (
{
position = "{190, 225}";
},
{
position = "{176, 184}";
},
{
position = "{190, 550}";
},
{
position = "{176, 509}";
}
);
layerId = "D085834A-C5B8-45AD-B7CB-7C394966C9BB";
paths = (
{
closed = 1;
nodes = (
"377 -1 LINE SMOOTH",
"521 -1 OFFCURVE",
"600 96 OFFCURVE",
"615 184 CURVE SMOOTH",
"622 225 LINE SMOOTH",
"638 318 OFFCURVE",
"567 365 OFFCURVE",
"516 373 CURVE",
"518 381 LINE",
"556 392 OFFCURVE",
"611 431 OFFCURVE",
"623 509 CURVE SMOOTH",
"629 550 LINE SMOOTH",
"642 639 OFFCURVE",
"597 700 OFFCURVE",
"476 700 CURVE SMOOTH",
"151 700 LINE",
"40 -1 LINE"
);
},
{
closed = 1;
nodes = (
"316 552 LINE",
"401 552 LINE SMOOTH",
"450 552 OFFCURVE",
"454 522 OFFCURVE",
"451 502 CURVE SMOOTH",
"447 476 LINE SMOOTH",
"444 455 OFFCURVE",
"427 426 OFFCURVE",
"381 426 CURVE SMOOTH",
"296 426 LINE"
);
},
{
closed = 1;
nodes = (
"275 294 LINE",
"393 294 LINE SMOOTH",
"450 294 OFFCURVE",
"457 260 OFFCURVE",
"453 236 CURVE SMOOTH",
"448 206 LINE SMOOTH",
"444 182 OFFCURVE",
"424 148 OFFCURVE",
"370 148 CURVE SMOOTH",
"252 148 LINE"
);
}
);
width = 616;
}
);
leftKerningGroup = h;
rightKerningGroup = B;
},
{
glyphname = C.ss01;
lastChange = "2019-07-18 14:24:21 +0000";
layers = (
{
guideLines = (
{
position = "{606, 716}";
}
);
layerId = "B45F0BEB-E489-4392-AE53-309DD1ADE040";
paths = (
{
closed = 1;
nodes = (
"499 -5 OFFCURVE",
"613 74 OFFCURVE",
"665 205 CURVE",
"628 205 LINE",
"581 95 OFFCURVE",
"490 29 OFFCURVE",
"358 29 CURVE SMOOTH",
"185 29 OFFCURVE",
"126 159 OFFCURVE",
"153 317 CURVE SMOOTH",
"166 393 LINE SMOOTH",
"193 551 OFFCURVE",
"300 681 OFFCURVE",
"473 681 CURVE SMOOTH",
"605 681 OFFCURVE",
"685 605 OFFCURVE",
"685 479 CURVE",
"721 479 LINE",
"723 626 OFFCURVE",
"636 715 OFFCURVE",
"482 715 CURVE SMOOTH",
"292 715 OFFCURVE",
"163 574 OFFCURVE",
"133 403 CURVE SMOOTH",
"116 307 LINE SMOOTH",
"86 136 OFFCURVE",
"164 -5 OFFCURVE",
"355 -5 CURVE SMOOTH"
);
}
);
width = 699;
},
{
layerId = "D085834A-C5B8-45AD-B7CB-7C394966C9BB";
paths = (
{
closed = 1;
nodes = (
"515 -10 OFFCURVE",
"632 111 OFFCURVE",
"680 253 CURVE",
"492 253 LINE",
"476 211 OFFCURVE",
"440 151 OFFCURVE",
"364 151 CURVE SMOOTH",
"282 151 OFFCURVE",
"254 213 OFFCURVE",
"270 319 CURVE SMOOTH",
"280 384 LINE SMOOTH",
"297 493 OFFCURVE",
"347 554 OFFCURVE",
"428 554 CURVE SMOOTH",
"502 554 OFFCURVE",
"523 494 OFFCURVE",
"524 449 CURVE",
"713 449 LINE",
"709 593 OFFCURVE",
"630 713 OFFCURVE",
"453 714 CURVE SMOOTH",
"264 716 OFFCURVE",
"121 580 OFFCURVE",
"91 387 CURVE SMOOTH",
"80 317 LINE SMOOTH",
"49 122 OFFCURVE",
"149 -10 OFFCURVE",
"335 -10 CURVE SMOOTH"
);
}
);
width = 672;
}
);
leftKerningGroup = O;
rightKerningGroup = O;
},
{
glyphname = D.ss01;
lastChange = "2019-07-18 14:24:21 +0000";
layers = (
{
guideLines = (
{
position = "{521, 396}";
},
{
position = "{521, 303}";
}
);
layerId = "B45F0BEB-E489-4392-AE53-309DD1ADE040";
paths = (
{
closed = 1;
nodes = (
"333 0 LINE SMOOTH",
"523 0 OFFCURVE",
"650 137 OFFCURVE",
"680 303 CURVE SMOOTH",
"697 396 LINE SMOOTH",
"727 558 OFFCURVE",
"651 700 OFFCURVE",
"456 700 CURVE SMOOTH",
"215 700 LINE",
"92 0 LINE"
);
},
{
closed = 1;
nodes = (
"244 667 LINE",
"451 667 LINE SMOOTH",
"627 667 OFFCURVE",
"687 540 OFFCURVE",
"660 387 CURVE SMOOTH",
"647 313 LINE SMOOTH",
"620 160 OFFCURVE",
"515 33 OFFCURVE",
"339 33 CURVE SMOOTH",
"132 33 LINE"
);
}
);
width = 677;
},
{
guideLines = (
{
position = "{303, 318}";
},
{
position = "{303, 386}";
}
);
layerId = "D085834A-C5B8-45AD-B7CB-7C394966C9BB";
paths = (
{
closed = 1;
nodes = (
"307 0 LINE SMOOTH",
"508 0 OFFCURVE",
"639 139 OFFCURVE",
"668 318 CURVE SMOOTH",
"679 386 LINE SMOOTH",
"707 558 OFFCURVE",
"625 698 OFFCURVE",
"418 700 CURVE SMOOTH",
"151 702 LINE",
"40 0 LINE"
);
},
{
closed = 1;
nodes = (
"310 535 LINE",
"392 535 LINE SMOOTH",
"474 535 OFFCURVE",
"505 476 OFFCURVE",
"490 383 CURVE SMOOTH",
"480 320 LINE SMOOTH",
"465 228 OFFCURVE",
"417 167 OFFCURVE",
"333 167 CURVE SMOOTH",
"251 167 LINE"
);
}
);
width = 648;
}
);
},
{
glyphname = Eth.ss01;
lastChange = "2019-07-18 14:24:21 +0000";
layers = (
{
layerId = "B45F0BEB-E489-4392-AE53-309DD1ADE040";
paths = (
{
closed = 1;
nodes = (
"378 342 LINE",
"383 370 LINE",
"122 370 LINE",
"117 342 LINE"
);
},
{
closed = 1;
nodes = (
"359 0 LINE SMOOTH",
"550 0 OFFCURVE",
"677 137 OFFCURVE",
"706 303 CURVE SMOOTH",
"722 396 LINE SMOOTH",
"751 563 OFFCURVE",
"672 700 OFFCURVE",
"482 700 CURVE SMOOTH",
"241 700 LINE",
"118 0 LINE"
);
},
{
closed = 1;
nodes = (
"269 667 LINE",
"476 667 LINE SMOOTH",
"653 667 OFFCURVE",
"713 540 OFFCURVE",
"686 387 CURVE SMOOTH",
"673 313 LINE SMOOTH",
"646 160 OFFCURVE",
"541 33 OFFCURVE",
"365 33 CURVE SMOOTH",
"158 33 LINE"
);
}
);
width = 703;
},
{
layerId = "D085834A-C5B8-45AD-B7CB-7C394966C9BB";
paths = (
{
closed = 1;
nodes = (
"375 296 LINE",
"395 421 LINE",
"92 421 LINE",
"72 296 LINE"
);
},
{
closed = 1;
nodes = (
"338 1 LINE SMOOTH",
"539 1 OFFCURVE",
"670 139 OFFCURVE",
"699 318 CURVE SMOOTH",
"710 386 LINE SMOOTH",
"738 560 OFFCURVE",
"653 697 OFFCURVE",
"449 699 CURVE SMOOTH",
"182 701 LINE",
"71 1 LINE"
);
},
{
closed = 1;
nodes = (
"340 534 LINE",
"422 534 LINE SMOOTH",
"505 534 OFFCURVE",
"536 476 OFFCURVE",
"521 383 CURVE SMOOTH",
"511 320 LINE SMOOTH",
"496 228 OFFCURVE",
"448 168 OFFCURVE",
"364 168 CURVE SMOOTH",
"282 168 LINE"
);
}
);
width = 679;
}
);
rightKerningGroup = O;
},
{
glyphname = Dcroat.ss01;
lastChange = "2019-07-18 14:24:21 +0000";
layers = (
{
guideLines = (
{
angle = 90;
position = "{71, -88}";
}
);
layerId = "D085834A-C5B8-45AD-B7CB-7C394966C9BB";
paths = (
{
closed = 1;
nodes = (
"375 296 LINE",
"395 421 LINE",
"92 421 LINE",
"72 296 LINE"
);
},
{
closed = 1;
nodes = (
"338 1 LINE SMOOTH",
"539 1 OFFCURVE",
"670 139 OFFCURVE",
"699 318 CURVE SMOOTH",
"710 386 LINE SMOOTH",
"738 560 OFFCURVE",
"653 697 OFFCURVE",
"449 699 CURVE SMOOTH",
"182 701 LINE",
"71 1 LINE"
);
},
{
closed = 1;
nodes = (
"340 534 LINE",
"422 534 LINE SMOOTH",
"505 534 OFFCURVE",
"536 476 OFFCURVE",
"521 383 CURVE SMOOTH",
"511 320 LINE SMOOTH",
"496 228 OFFCURVE",
"448 168 OFFCURVE",
"364 168 CURVE SMOOTH",
"282 168 LINE"
);
}
);
width = 679;
},
{
guideLines = (
{
angle = 90;
position = "{654, 154}";
},
{
angle = 90;
position = "{118, -29}";
}
);
layerId = "B45F0BEB-E489-4392-AE53-309DD1ADE040";
paths = (
{
closed = 1;
nodes = (
"378 342 LINE",
"383 370 LINE",
"122 370 LINE",
"117 342 LINE"
);
},
{
closed = 1;
nodes = (
"359 0 LINE SMOOTH",
"550 0 OFFCURVE",
"677 137 OFFCURVE",
"706 303 CURVE SMOOTH",
"722 396 LINE SMOOTH",
"751 563 OFFCURVE",
"672 700 OFFCURVE",
"482 700 CURVE SMOOTH",
"241 700 LINE",
"118 0 LINE"
);
},
{
closed = 1;
nodes = (
"269 667 LINE",
"476 667 LINE SMOOTH",
"653 667 OFFCURVE",
"713 540 OFFCURVE",
"686 387 CURVE SMOOTH",
"673 313 LINE SMOOTH",
"646 160 OFFCURVE",
"541 33 OFFCURVE",
"365 33 CURVE SMOOTH",
"158 33 LINE"
);
}
);
width = 703;
}
);
rightKerningGroup = O;
},
{
glyphname = G.ss01;
lastChange = "2019-07-18 14:24:21 +0000";
layers = (
{
anchors = (
{
name = bottom;
position = "{352, 0}";
},
{
name = top;
position = "{478, 700}";
}
);
layerId = "B45F0BEB-E489-4392-AE53-309DD1ADE040";
paths = (
{
closed = 1;
nodes = (
"536 -5 OFFCURVE",
"614 129 OFFCURVE",
"614 129 CURVE",
"622 129 LINE",
"599 0 LINE",
"633 0 LINE",
"694 346 LINE",
"423 346 LINE",
"418 316 LINE",
"662 316 LINE",
"654 277 LINE SMOOTH",
"624 129 OFFCURVE",
"509 29 OFFCURVE",
"360 29 CURVE SMOOTH",
"184 29 OFFCURVE",
"126 159 OFFCURVE",
"153 317 CURVE SMOOTH",
"166 393 LINE SMOOTH",
"193 551 OFFCURVE",
"300 681 OFFCURVE",
"475 681 CURVE SMOOTH",
"605 681 OFFCURVE",
"685 605 OFFCURVE",
"685 479 CURVE",
"721 479 LINE",
"723 626 OFFCURVE",
"636 715 OFFCURVE",
"481 715 CURVE SMOOTH",
"292 715 OFFCURVE",
"163 574 OFFCURVE",
"133 403 CURVE SMOOTH",
"116 307 LINE SMOOTH",
"86 136 OFFCURVE",
"164 -5 OFFCURVE",
"354 -5 CURVE SMOOTH"
);
}
);
width = 704;
},
{
anchors = (
{
name = bottom;
position = "{349, 0}";
},
{
name = top;
position = "{456, 700}";
}
);
layerId = "D085834A-C5B8-45AD-B7CB-7C394966C9BB";
paths = (
{
closed = 1;
nodes = (
"465 -10 OFFCURVE",
"511 76 OFFCURVE",
"521 91 CURVE",
"529 91 LINE",
"515 0 LINE",
"653 0 LINE",
"715 394 LINE",
"417 394 LINE",
"396 259 LINE",
"505 259 LINE",
"503 245 LINE SMOOTH",
"495 192 OFFCURVE",
"448 139 OFFCURVE",
"375 139 CURVE SMOOTH",
"282 139 OFFCURVE",
"257 203 OFFCURVE",
"275 319 CURVE SMOOTH",
"285 384 LINE SMOOTH",
"302 493 OFFCURVE",
"352 554 OFFCURVE",
"433 554 CURVE SMOOTH",
"500 554 OFFCURVE",
"524 505 OFFCURVE",
"529 460 CURVE",
"718 460 LINE",
"711 597 OFFCURVE",
"631 713 OFFCURVE",
"458 714 CURVE SMOOTH",
"269 715 OFFCURVE",
"126 580 OFFCURVE",
"96 387 CURVE SMOOTH",
"85 317 LINE SMOOTH",
"54 122 OFFCURVE",
"146 -10 OFFCURVE",
"322 -10 CURVE SMOOTH"
);
}
);
width = 698;
}
);
leftKerningGroup = O;
},
{
glyphname = J.ss01;
lastChange = "2019-07-18 14:24:21 +0000";
layers = (
{
layerId = "B45F0BEB-E489-4392-AE53-309DD1ADE040";
paths = (
{
closed = 1;
nodes = (
"79 167 LINE",
"53 21 OFFCURVE",
"153 -5 OFFCURVE",
"215 -5 CURVE SMOOTH",
"278 -5 OFFCURVE",
"385 21 OFFCURVE",
"411 167 CURVE SMOOTH",
"505 700 LINE",
"470 700 LINE",
"376 167 LINE SMOOTH",
"354 44 OFFCURVE",
"270 29 OFFCURVE",
"221 29 CURVE SMOOTH",
"173 29 OFFCURVE",
"92 44 OFFCURVE",
"114 167 CURVE"
);
}
);
width = 477;
},
{
layerId = "D085834A-C5B8-45AD-B7CB-7C394966C9BB";
paths = (
{
closed = 1;
nodes = (
"71 262 LINE",
"42 80 OFFCURVE",
"137 -10 OFFCURVE",
"278 -10 CURVE SMOOTH",
"425 -10 OFFCURVE",
"543 83 OFFCURVE",
"567 233 CURVE SMOOTH",
"642 702 LINE",
"452 699 LINE",
"378 233 LINE SMOOTH",
"366 159 OFFCURVE",
"326 151 OFFCURVE",
"303 151 CURVE SMOOTH",
"282 151 OFFCURVE",
"245 163 OFFCURVE",
"261 262 CURVE"
);
}
);
width = 581;
}
);
rightKerningGroup = U;
},
{
glyphname = O.ss01;
lastChange = "2019-07-18 14:24:21 +0000";
layers = (
{
anchors = (
{
name = bottom;
position = "{356, 0}";
},
{
name = center;
position = "{418, 350}";
},
{
name = ogonek;
position = "{643, 10}";
},
{
name = top;
position = "{479, 700}";
},
{
name = topleft;
position = "{143, 700}";
},
{
name = topright;
position = "{650, 700}";
}
);
guideLines = (
{
position = "{131, 713}";
},
{
position = "{42, 713}";
},
{
position = "{33, -7}";
}
);
layerId = "B45F0BEB-E489-4392-AE53-309DD1ADE040";
paths = (
{
closed = 1;
nodes = (
"545 -5 OFFCURVE",
"674 136 OFFCURVE",
"704 307 CURVE SMOOTH",
"721 403 LINE SMOOTH",
"751 574 OFFCURVE",
"673 715 OFFCURVE",
"482 715 CURVE SMOOTH",
"292 715 OFFCURVE",
"163 574 OFFCURVE",
"133 403 CURVE SMOOTH",
"116 307 LINE SMOOTH",
"86 136 OFFCURVE",
"164 -5 OFFCURVE",
"355 -5 CURVE SMOOTH"
);
},
{
closed = 1;
nodes = (
"184 29 OFFCURVE",
"126 159 OFFCURVE",
"153 317 CURVE SMOOTH",
"166 393 LINE SMOOTH",
"193 551 OFFCURVE",
"298 681 OFFCURVE",
"476 681 CURVE SMOOTH",
"653 681 OFFCURVE",
"711 551 OFFCURVE",
"684 393 CURVE SMOOTH",
"671 317 LINE SMOOTH",
"644 159 OFFCURVE",
"538 29 OFFCURVE",
"361 29 CURVE SMOOTH"
);
}
);
width = 712;
},
{
anchors = (
{
name = bottom;
position = "{340, 0}";
},
{
name = center;
position = "{398, 350}";
},
{
name = ogonek;
position = "{618, 10}";
},
{
name = top;
position = "{451, 700}";
},
{
name = topleft;
position = "{131, 700}";
},
{
name = topright;
position = "{634, 493}";
}
);
guideLines = (
{
position = "{478, -10}";
},
{
position = "{622, 159}";
},
{
position = "{647, 545}";
},
{
angle = 90;
position = "{234, 88}";
},
{
angle = 90;
position = "{30, 80}";
},
{
position = "{616, 714}";
}
);
layerId = "D085834A-C5B8-45AD-B7CB-7C394966C9BB";
paths = (
{
closed = 1;
nodes = (
"543 -10 OFFCURVE",
"672 135 OFFCURVE",
"701 317 CURVE SMOOTH",
"712 387 LINE SMOOTH",
"740 567 OFFCURVE",
"658 714 OFFCURVE",
"453 714 CURVE SMOOTH",
"250 714 OFFCURVE",
"119 567 OFFCURVE",
"91 387 CURVE SMOOTH",
"80 317 LINE SMOOTH",
"51 134 OFFCURVE",
"136 -10 OFFCURVE",
"338 -10 CURVE SMOOTH"
);
},
{
closed = 1;
nodes = (
"282 151 OFFCURVE",
"254 213 OFFCURVE",
"270 319 CURVE SMOOTH",
"280 384 LINE SMOOTH",
"297 493 OFFCURVE",
"347 554 OFFCURVE",
"428 554 CURVE SMOOTH",
"510 554 OFFCURVE",
"541 492 OFFCURVE",
"523 384 CURVE SMOOTH",
"512 319 LINE SMOOTH",
"494 213 OFFCURVE",
"446 151 OFFCURVE",
"364 151 CURVE SMOOTH"
);
}
);
width = 686;
}
);
leftKerningGroup = O;
rightKerningGroup = O;
},
{
glyphname = Oslash.ss01;
lastChange = "2019-07-18 14:24:21 +0000";
layers = (
{
components = (
{
name = O.ss01;
transform = "{1, 0, 0, 1, -1, 0}";
}
);
layerId = "B45F0BEB-E489-4392-AE53-309DD1ADE040";
paths = (
{
closed = 1;
nodes = (
"131 -43 LINE",
"774 743 LINE",
"737 743 LINE",
"94 -43 LINE"
);
}
);
width = 710;
},
{
components = (
{
name = O.ss01;
transform = "{1, 0, 0, 1, 13, 0}";
}
);
layerId = "D085834A-C5B8-45AD-B7CB-7C394966C9BB";
paths = (
{
closed = 1;
nodes = (
"195 -43 LINE",
"823 743 LINE",
"652 743 LINE",
"24 -43 LINE"
);
}
);
width = 737;
}
);
},
{
glyphname = OE.ss01;
lastChange = "2019-07-18 14:24:21 +0000";
layers = (
{
layerId = "B45F0BEB-E489-4392-AE53-309DD1ADE040";
paths = (
{
closed = 1;
nodes = (
"860 0 LINE",
"866 34 LINE",
"500 34 LINE",
"554 343 LINE",
"885 343 LINE",
"891 375 LINE",
"560 375 LINE",
"611 666 LINE",
"977 666 LINE",
"983 700 LINE",
"467 700 LINE SMOOTH",
"276 700 OFFCURVE",
"148 563 OFFCURVE",
"119 396 CURVE SMOOTH",
"103 303 LINE SMOOTH",
"74 137 OFFCURVE",
"154 0 OFFCURVE",
"344 0 CURVE SMOOTH"
);
},
{
closed = 1;
nodes = (
"173 33 OFFCURVE",
"113 160 OFFCURVE",
"140 313 CURVE SMOOTH",
"153 387 LINE SMOOTH",
"180 540 OFFCURVE",
"285 667 OFFCURVE",
"461 667 CURVE SMOOTH",
"577 667 LINE",
"465 33 LINE",
"349 33 LINE SMOOTH"
);
}
);
width = 939;
},
{
guideLines = (
{
angle = 180;
position = "{472, 534}";
},
{
position = "{472, 171}";
}
);
layerId = "D085834A-C5B8-45AD-B7CB-7C394966C9BB";
paths = (
{
closed = 1;
nodes = (
"930 0 LINE",
"956 165 LINE",
"654 165 LINE",
"672 280 LINE",
"919 280 LINE",
"942 427 LINE",
"695 427 LINE",
"712 535 LINE",
"1014 535 LINE",
"1041 699 LINE",
"452 699 LINE SMOOTH",
"243 699 OFFCURVE",
"119 558 OFFCURVE",
"91 386 CURVE SMOOTH",
"80 318 LINE SMOOTH",
"52 147 OFFCURVE",
"133 0 OFFCURVE",
"341 0 CURVE SMOOTH"
);
},
{
closed = 1;
nodes = (
"286 170 OFFCURVE",
"254 228 OFFCURVE",
"269 320 CURVE SMOOTH",
"279 383 LINE SMOOTH",
"294 476 OFFCURVE",
"342 533 OFFCURVE",
"425 533 CURVE SMOOTH",
"520 533 LINE",
"463 170 LINE",
"368 170 LINE SMOOTH"
);
}
);
width = 960;
}
);
leftKerningGroup = O;
rightKerningGroup = E;
},
{
glyphname = P.ss01;
lastChange = "2019-07-21 01:57:08 +0000";
layers = (
{
layerId = "B45F0BEB-E489-4392-AE53-309DD1ADE040";
paths = (
{
closed = 1;
nodes = (
"342 220 LINE SMOOTH",
"507 220 OFFCURVE",
"593 306 OFFCURVE",
"611 413 CURVE SMOOTH",
"627 506 LINE SMOOTH",
"646 614 OFFCURVE",
"591 700 OFFCURVE",
"426 700 CURVE SMOOTH",
"215 700 LINE",
"131 220 LINE"
);
},
{
closed = 1;
nodes = (
"244 667 LINE",
"421 667 LINE SMOOTH",
"568 667 OFFCURVE",
"607 591 OFFCURVE",
"592 506 CURVE SMOOTH",
"576 413 LINE SMOOTH",
"561 328 OFFCURVE",
"495 253 OFFCURVE",
"348 253 CURVE SMOOTH",
"171 253 LINE"
);
},
{
closed = 1;
nodes = (
"124 0 LINE",
"247 700 LINE",
"215 700 LINE",
"92 0 LINE"
);
}
);
width = 579;
},
{
guideLines = (
{
position = "{10, 199}";
},
{
position = "{440, 33}";
},
{
position = "{27, 530}";
},
{
position = "{457, 364}";
}
);
layerId = "D085834A-C5B8-45AD-B7CB-7C394966C9BB";
paths = (
{
closed = 1;
nodes = (
"352 203 LINE SMOOTH",
"526 203 OFFCURVE",
"636 308 OFFCURVE",
"655 433 CURVE SMOOTH",
"661 472 LINE SMOOTH",
"680 595 OFFCURVE",
"608 700 OFFCURVE",
"431 700 CURVE SMOOTH",
"151 700 LINE",
"72 203 LINE"
);
},
{
closed = 1;
nodes = (
"310 534 LINE",
"405 534 LINE SMOOTH",
"456 534 OFFCURVE",
"475 498 OFFCURVE",
"471 469 CURVE SMOOTH",
"466 435 LINE SMOOTH",
"462 407 OFFCURVE",
"429 369 OFFCURVE",
"378 369 CURVE SMOOTH",
"283 369 LINE"
);
},
{
closed = 1;
nodes = (
"228 0 LINE",
"339 700 LINE",
"151 700 LINE",
"40 0 LINE"
);
}
);
width = 590;
}
);
leftKerningGroup = h;
leftMetricsKey = P;
rightMetricsKey = P;
},
{
glyphname = Q.ss01;
lastChange = "2019-07-18 14:24:21 +0000";
layers = (
{
layerId = "B45F0BEB-E489-4392-AE53-309DD1ADE040";
paths = (
{
closed = 1;
nodes = (
"545 -5 OFFCURVE",
"674 136 OFFCURVE",
"704 307 CURVE SMOOTH",
"721 403 LINE SMOOTH",
"751 574 OFFCURVE",
"673 715 OFFCURVE",
"482 715 CURVE SMOOTH",
"292 715 OFFCURVE",
"163 574 OFFCURVE",
"133 403 CURVE SMOOTH",
"116 307 LINE SMOOTH",
"86 136 OFFCURVE",
"164 -5 OFFCURVE",
"355 -5 CURVE SMOOTH"
);
},
{
closed = 1;
nodes = (
"638 -67 LINE",
"424 263 LINE",
"380 263 LINE",
"594 -67 LINE"
);
},
{
closed = 1;
nodes = (
"184 29 OFFCURVE",
"126 159 OFFCURVE",
"153 317 CURVE SMOOTH",
"166 393 LINE SMOOTH",
"193 551 OFFCURVE",
"298 681 OFFCURVE",
"476 681 CURVE SMOOTH",
"653 681 OFFCURVE",
"711 551 OFFCURVE",
"684 393 CURVE SMOOTH",
"671 317 LINE SMOOTH",
"644 159 OFFCURVE",
"538 29 OFFCURVE",
"361 29 CURVE SMOOTH"
);
}
);
width = 712;
},
{
layerId = "D085834A-C5B8-45AD-B7CB-7C394966C9BB";
paths = (
{
closed = 1;
nodes = (
"543 -10 OFFCURVE",
"672 135 OFFCURVE",
"701 317 CURVE SMOOTH",
"712 387 LINE SMOOTH",
"740 567 OFFCURVE",
"658 714 OFFCURVE",
"453 714 CURVE SMOOTH",
"250 714 OFFCURVE",
"119 567 OFFCURVE",
"91 387 CURVE SMOOTH",
"80 317 LINE SMOOTH",
"51 134 OFFCURVE",
"136 -10 OFFCURVE",
"338 -10 CURVE SMOOTH"
);
},
{
closed = 1;
nodes = (
"640 -33 LINE",
"463 282 LINE",
"302 282 LINE",
"479 -33 LINE"
);
},
{
closed = 1;
nodes = (
"282 151 OFFCURVE",
"254 213 OFFCURVE",
"270 319 CURVE SMOOTH",
"280 384 LINE SMOOTH",
"297 493 OFFCURVE",
"347 554 OFFCURVE",
"428 554 CURVE SMOOTH",
"510 554 OFFCURVE",
"541 492 OFFCURVE",
"523 384 CURVE SMOOTH",
"512 319 LINE SMOOTH",
"494 213 OFFCURVE",
"446 151 OFFCURVE",
"364 151 CURVE SMOOTH"
);
}
);
width = 681;
}
);
leftKerningGroup = O;
rightKerningGroup = O;
},
{
glyphname = R.ss01;
lastChange = "2019-07-21 01:56:55 +0000";
layers = (
{
layerId = "B45F0BEB-E489-4392-AE53-309DD1ADE040";
paths = (
{
closed = 1;
nodes = (
"124 0 LINE",
"247 700 LINE",
"215 700 LINE",
"92 0 LINE"
);
},
{
closed = 1;
nodes = (
"541 0 LINE",
"380 282 LINE",
"339 279 LINE",
"497 0 LINE"
);
},
{
closed = 1;
nodes = (
"360 275 LINE SMOOTH",
"525 275 OFFCURVE",
"601 351 OFFCURVE",
"617 446 CURVE SMOOTH",
"631 528 LINE SMOOTH",
"647 623 OFFCURVE",
"601 700 OFFCURVE",
"435 700 CURVE SMOOTH",
"215 700 LINE",
"140 275 LINE"
);
},
{
closed = 1;
nodes = (
"244 669 LINE",
"430 669 LINE SMOOTH",
"577 669 OFFCURVE",
"609 602 OFFCURVE",
"596 528 CURVE SMOOTH",
"582 446 LINE SMOOTH",
"569 371 OFFCURVE",
"512 306 OFFCURVE",
"366 306 CURVE SMOOTH",
"180 306 LINE"
);
}
);
width = 599;
},
{
layerId = "D085834A-C5B8-45AD-B7CB-7C394966C9BB";
paths = (
{
closed = 1;
nodes = (
"228 0 LINE",
"339 700 LINE",
"151 700 LINE",
"40 0 LINE"
);
},
{
closed = 1;
nodes = (
"601 0 LINE",
"500 282 LINE",
"313 259 LINE",
"405 0 LINE"
);
},
{
closed = 1;
nodes = (
"370 230 LINE SMOOTH",
"542 230 OFFCURVE",
"639 329 OFFCURVE",
"657 450 CURVE SMOOTH",
"662 483 LINE SMOOTH",
"680 603 OFFCURVE",
"618 700 OFFCURVE",
"445 700 CURVE SMOOTH",
"151 700 LINE",
"76 230 LINE"
);
},
{
closed = 1;
nodes = (
"310 535 LINE",
"419 535 LINE SMOOTH",
"470 535 OFFCURVE",
"476 503 OFFCURVE",
"473 480 CURVE SMOOTH",
"469 452 LINE SMOOTH",
"466 429 OFFCURVE",
"447 395 OFFCURVE",
"397 395 CURVE SMOOTH",
"288 395 LINE"
);
}
);
width = 610;
}
);
leftKerningGroup = h;
leftMetricsKey = R;
rightKerningGroup = nine;
rightMetricsKey = R;
},
{
glyphname = G.ss02;
lastChange = "2019-07-18 14:24:21 +0000";
layers = (
{
layerId = "B45F0BEB-E489-4392-AE53-309DD1ADE040";
paths = (
{
closed = 1;
nodes = (
"536 -5 OFFCURVE",
"669 99 OFFCURVE",
"700 277 CURVE SMOOTH",
"715 364 LINE",
"438 364 LINE",
"433 334 LINE",
"677 334 LINE",
"667 277 LINE SMOOTH",
"636 99 OFFCURVE",
"512 30 OFFCURVE",
"378 30 CURVE SMOOTH",
"239 30 OFFCURVE",
"153 119 OFFCURVE",
"153 271 CURVE SMOOTH",
"153 501 OFFCURVE",
"301 680 OFFCURVE",
"493 680 CURVE SMOOTH",
"627 680 OFFCURVE",
"688 609 OFFCURVE",
"700 505 CURVE",
"737 505 LINE",
"725 608 OFFCURVE",
"661 715 OFFCURVE",
"499 715 CURVE SMOOTH",
"273 715 OFFCURVE",
"117 508 OFFCURVE",
"117 270 CURVE SMOOTH",
"117 130 OFFCURVE",
"181 -5 OFFCURVE",
"372 -5 CURVE SMOOTH"
);
}
);
width = 701;
},
{
layerId = "D085834A-C5B8-45AD-B7CB-7C394966C9BB";
paths = (
{
closed = 1;
nodes = (
"529 -10 OFFCURVE",
"671 91 OFFCURVE",
"695 246 CURVE SMOOTH",
"721 412 LINE",
"438 412 LINE",
"417 277 LINE",
"534 277 LINE",
"530 254 LINE SMOOTH",
"522 207 OFFCURVE",
"483 139 OFFCURVE",
"393 139 CURVE SMOOTH",
"316 139 OFFCURVE",
"276 189 OFFCURVE",
"276 280 CURVE SMOOTH",
"276 431 OFFCURVE",
"349 548 OFFCURVE",
"447 548 CURVE SMOOTH",
"507 548 OFFCURVE",
"535 511 OFFCURVE",
"540 465 CURVE",
"729 465 LINE",
"729 605 OFFCURVE",
"638 714 OFFCURVE",
"471 714 CURVE SMOOTH",
"258 714 OFFCURVE",
"84 518 OFFCURVE",
"84 276 CURVE SMOOTH",
"84 108 OFFCURVE",
"187 -10 OFFCURVE",
"365 -10 CURVE SMOOTH"
);
}
);
width = 696;
}
);
},
{
glyphname = a;
lastChange = "2019-07-24 03:55:59 +0000";
layers = (
{
anchors = (
{
name = bottom;
position = "{306, 0}";
},
{
name = ogonek;
position = "{612, 51}";
},
{
name = top;
position = "{397, 530}";
}
);
guideLines = (
{
angle = 90;
position = "{684, 149}";
},
{
angle = 90;
position = "{345, 192}";
},
{
position = "{568, -10}";
},
{
position = "{437, 21}";
},
{
angle = 90;
position = "{544, 161}";
},
{
position = "{204, 462}";
},
{
angle = 3.6412;
position = "{393, 214}";
},
{
position = "{437, 53}";
},
{
position = "{638, 540}";
},
{
position = "{636, 37}";
},
{
angle = 90;
position = "{301, -72}";
},
{
angle = 90;
position = "{35, 0}";
},
{
angle = 90;
position = "{227, -100}";
},
{
angle = 184.0042;
position = "{300, 315}";
},
{
position = "{138, 400}";
},
{
position = "{324, 74}";
}
);
layerId = "D085834A-C5B8-45AD-B7CB-7C394966C9BB";
paths = (
{
closed = 1;
nodes = (
"328 -10 OFFCURVE",
"374 63 OFFCURVE",
"381 74 CURVE",
"389 74 LINE",
"377 0 LINE",
"569 0 LINE",
"653 530 LINE",
"461 530 LINE",
"450 462 LINE",
"442 462 LINE",
"440 472 OFFCURVE",
"415 540 OFFCURVE",
"313 540 CURVE SMOOTH",
"171 540 OFFCURVE",
"65 388 OFFCURVE",
"65 185 CURVE SMOOTH",
"65 64 OFFCURVE",
"119 -10 OFFCURVE",
"224 -10 CURVE SMOOTH"
);
},
{
closed = 1;
nodes = (
"275 140 OFFCURVE",
"262 182 OFFCURVE",
"262 225 CURVE SMOOTH",
"262 318 OFFCURVE",
"305 389 OFFCURVE",
"362 389 CURVE SMOOTH",
"410 389 OFFCURVE",
"424 347 OFFCURVE",
"424 304 CURVE SMOOTH",
"424 214 OFFCURVE",
"379 140 OFFCURVE",
"323 140 CURVE SMOOTH"
);
}
);
width = 609;
},
{
anchors = (
{
name = bottom;
position = "{298, 0}";
},
{
name = ogonek;
position = "{561, 27}";
},
{
name = top;
position = "{383, 525}";
}
);
guideLines = (
{
angle = 90;
position = "{64, 7}";
},
{
position = "{508, 33}";
},
{
position = "{293, 103}";
},
{
angle = 90;
position = "{125, 172}";
},
{
angle = 90;
position = "{280, 135}";
},
{
angle = 183.6914;
position = "{333, 251}";
},
{
angle = 183.6914;
position = "{342, 263}";
},
{
angle = 183.6914;
position = "{342, 300}";
},
{
position = "{501, -5}";
},
{
position = "{471, 507}";
},
{
position = "{471, 542}";
},
{
position = "{502, 416}";
},
{
angle = 90;
position = "{480, 136}";
},
{
angle = 90;
position = "{80, 125}";
},
{
angle = 90;
position = "{280, 126}";
}
);
layerId = "B45F0BEB-E489-4392-AE53-309DD1ADE040";
paths = (
{
closed = 1;
nodes = (
"379 -5 OFFCURVE",
"451 55 OFFCURVE",
"499 125 CURVE",
"506 125 LINE",
"484 0 LINE",
"518 0 LINE",
"610 525 LINE",
"576 525 LINE",
"556 413 LINE",
"549 413 LINE",
"529 478 OFFCURVE",
"481 542 OFFCURVE",
"376 542 CURVE SMOOTH",
"216 542 OFFCURVE",
"85 390 OFFCURVE",
"85 204 CURVE SMOOTH",
"85 87 OFFCURVE",
"148 -5 OFFCURVE",
"276 -5 CURVE SMOOTH"
);
},
{
closed = 1;
nodes = (
"173 31 OFFCURVE",
"121 106 OFFCURVE",
"121 207 CURVE SMOOTH",
"121 376 OFFCURVE",
"229 506 OFFCURVE",
"369 506 CURVE SMOOTH",
"480 506 OFFCURVE",
"532 431 OFFCURVE",
"532 329 CURVE SMOOTH",
"532 161 OFFCURVE",
"424 31 OFFCURVE",
"285 31 CURVE SMOOTH"
);
}
);
width = 609;
}
);
leftKerningGroup = o;
leftMetricsKey = o;
rightKerningGroup = a;
unicode = 0061;
},
{
glyphname = ae;
lastChange = "2019-07-18 14:24:21 +0000";
layers = (
{
guideLines = (
{
angle = 90;
position = "{503, 51}";
},
{
angle = 90;
position = "{527, 51}";
},
{
position = "{513, 256}";
},
{
position = "{513, 289}";
},
{
angle = 90;
position = "{438, -106}";
},
{
angle = 90;
position = "{468, -85}";
},
{
angle = 90;
position = "{97, -151}";
},
{
angle = 90;
position = "{205, -119}";
},
{
angle = 90;
position = "{279, -106}";
},
{
angle = 90;
position = "{464, -85}";
}
);
layerId = "B45F0BEB-E489-4392-AE53-309DD1ADE040";
paths = (
{
closed = 1;
nodes = (
"333 -5 OFFCURVE",
"432 42 OFFCURVE",
"489 148 CURVE",
"493 148 LINE",
"507 61 OFFCURVE",
"572 -5 OFFCURVE",
"683 -5 CURVE SMOOTH",
"806 -5 OFFCURVE",
"887 74 OFFCURVE",
"927 154 CURVE",
"892 154 LINE",
"848 78 OFFCURVE",
"778 29 OFFCURVE",
"689 29 CURVE SMOOTH",
"566 29 OFFCURVE",
"506 132 OFFCURVE",
"523 250 CURVE SMOOTH",
"524 257 LINE",
"954 257 LINE",
"956 267 LINE SMOOTH",
"962 299 OFFCURVE",
"1004 542 OFFCURVE",
"779 542 CURVE SMOOTH",
"674 542 OFFCURVE",
"585 480 OFFCURVE",
"537 386 CURVE",
"533 386 LINE",
"530 488 OFFCURVE",
"463 537 OFFCURVE",
"367 537 CURVE SMOOTH",
"266 537 OFFCURVE",
"174 483 OFFCURVE",
"137 386 CURVE",
"172 386 LINE",
"192 434 OFFCURVE",
"245 504 OFFCURVE",
"359 504 CURVE SMOOTH",
"511 504 OFFCURVE",
"507 381 OFFCURVE",
"500 342 CURVE SMOOTH",
"490 289 LINE",
"329 289 LINE SMOOTH",
"218 289 OFFCURVE",
"83 259 OFFCURVE",
"83 119 CURVE SMOOTH",
"83 41 OFFCURVE",
"146 -5 OFFCURVE",
"239 -5 CURVE SMOOTH"
);
},
{
closed = 1;
nodes = (
"169 33 OFFCURVE",
"120 64 OFFCURVE",
"120 124 CURVE SMOOTH",
"120 256 OFFCURVE",
"268 257 OFFCURVE",
"324 257 CURVE SMOOTH",
"484 257 LINE",
"474 200 LINE SMOOTH",
"460 120 OFFCURVE",
"377 33 OFFCURVE",
"246 33 CURVE SMOOTH"
);
},
{
closed = 1;
nodes = (
"558 413 OFFCURVE",
"648 507 OFFCURVE",
"773 507 CURVE SMOOTH",
"870 507 OFFCURVE",
"944 455 OFFCURVE",
"922 289 CURVE",
"530 289 LINE"
);
}
);
width = 971;
},
{
guideLines = (
{
angle = 90;
position = "{411, 225}";
},
{
position = "{467, 211}";
},
{
position = "{835, 540}";
},
{
position = "{797, 493}";
},
{
angle = 90;
position = "{403, 225}";
},
{
position = "{467, 321}";
}
);
layerId = "D085834A-C5B8-45AD-B7CB-7C394966C9BB";
paths = (
{
closed = 1;
nodes = (
"306 -10 OFFCURVE",
"374 25 OFFCURVE",
"414 70 CURVE",
"422 70 LINE",
"456 22 OFFCURVE",
"510 -10 OFFCURVE",
"597 -10 CURVE SMOOTH",
"737 -10 OFFCURVE",
"834 72 OFFCURVE",
"876 176 CURVE",
"690 176 LINE",
"677 155 OFFCURVE",
"653 138 OFFCURVE",
"617 138 CURVE SMOOTH",
"579 138 OFFCURVE",
"554 161 OFFCURVE",
"558 202 CURVE SMOOTH",
"559 212 LINE",
"884 212 LINE",
"892 264 LINE SMOOTH",
"920 448 OFFCURVE",
"836 540 OFFCURVE",
"690 540 CURVE SMOOTH",
"618 540 OFFCURVE",
"564 517 OFFCURVE",
"520 486 CURVE",
"512 486 LINE",
"480 516 OFFCURVE",
"435 540 OFFCURVE",
"358 540 CURVE SMOOTH",
"163 540 OFFCURVE",
"112 388 OFFCURVE",
"105 344 CURVE",
"281 344 LINE",
"291 388 OFFCURVE",
"328 396 OFFCURVE",
"350 396 CURVE SMOOTH",
"390 396 OFFCURVE",
"398 369 OFFCURVE",
"394 337 CURVE SMOOTH",
"392 321 LINE",
"323 320 LINE SMOOTH",
"156 318 OFFCURVE",
"57 248 OFFCURVE",
"57 125 CURVE SMOOTH",
"57 47 OFFCURVE",
"111 -10 OFFCURVE",
"221 -10 CURVE SMOOTH"
);
},
{
closed = 1;
nodes = (
"260 118 OFFCURVE",
"243 134 OFFCURVE",
"243 157 CURVE SMOOTH",
"243 190 OFFCURVE",
"271 211 OFFCURVE",
"315 211 CURVE SMOOTH",
"374 211 LINE",
"371 191 LINE SMOOTH",
"365 152 OFFCURVE",
"331 118 OFFCURVE",
"289 118 CURVE SMOOTH"
);
},
{
closed = 1;
nodes = (
"587 373 OFFCURVE",
"620 396 OFFCURVE",
"661 396 CURVE SMOOTH",
"702 396 OFFCURVE",
"729 372 OFFCURVE",
"721 321 CURVE",
"579 321 LINE"
);
}
);
width = 881;
}
);
unicode = 00E6;
},
{
glyphname = b;
lastChange = "2019-07-21 01:55:49 +0000";
layers = (
{
guideLines = (
{
angle = 90;
position = "{242, 228}";
},
{
position = "{118, 387}";
},
{
position = "{415, 462}";
},
{
position = "{575, 451}";
},
{
angle = 90;
position = "{562, -100}";
},
{
angle = 90;
position = "{370, 0}";
},
{
position = "{562, 387}";
},
{
position = "{274, 387}";
},
{
position = "{310, 471}";
},
{
position = "{605, 264}";
}
);
layerId = "D085834A-C5B8-45AD-B7CB-7C394966C9BB";
paths = (
{
closed = 1;
nodes = (
"523 -10 OFFCURVE",
"628 141 OFFCURVE",
"628 346 CURVE SMOOTH",
"628 469 OFFCURVE",
"573 540 OFFCURVE",
"468 540 CURVE SMOOTH",
"365 540 OFFCURVE",
"319 472 OFFCURVE",
"313 462 CURVE",
"305 462 LINE",
"351 751 LINE",
"159 751 LINE",
"40 0 LINE",
"232 0 LINE",
"244 74 LINE",
"252 74 LINE",
"255 63 OFFCURVE",
"278 -10 OFFCURVE",
"380 -10 CURVE SMOOTH"
);
},
{
closed = 1;
nodes = (
"283 138 OFFCURVE",
"269 181 OFFCURVE",
"269 225 CURVE SMOOTH",
"269 316 OFFCURVE",
"313 387 OFFCURVE",
"369 387 CURVE SMOOTH",
"417 387 OFFCURVE",
"431 346 OFFCURVE",
"431 303 CURVE SMOOTH",
"431 211 OFFCURVE",
"387 138 OFFCURVE",
"330 138 CURVE SMOOTH"
);
}
);
width = 609;
},
{
guideLines = (
{
position = "{163, 53}";
},
{
angle = 90;
position = "{235, 234}";
},
{
position = "{648, 26}";
},
{
position = "{528, 417}";
},
{
position = "{589, 542}";
},
{
position = "{411, 103}";
},
{
position = "{619, -5}";
},
{
position = "{528, 506}";
}
);
layerId = "B45F0BEB-E489-4392-AE53-309DD1ADE040";
paths = (
{
closed = 1;
nodes = (
"488 -5 OFFCURVE",
"618 147 OFFCURVE",
"618 332 CURVE SMOOTH",
"618 450 OFFCURVE",
"554 542 OFFCURVE",
"424 542 CURVE SMOOTH",
"317 542 OFFCURVE",
"248 478 OFFCURVE",
"205 413 CURVE",
"198 413 LINE",
"257 750 LINE",
"223 750 LINE",
"91 0 LINE",
"125 0 LINE",
"147 125 LINE",
"154 125 LINE",
"177 55 OFFCURVE",
"228 -5 OFFCURVE",
"331 -5 CURVE SMOOTH"
);
},
{
closed = 1;
nodes = (
"223 31 OFFCURVE",
"171 106 OFFCURVE",
"171 208 CURVE SMOOTH",
"171 375 OFFCURVE",
"279 506 OFFCURVE",
"418 506 CURVE SMOOTH",
"531 506 OFFCURVE",
"582 431 OFFCURVE",
"582 330 CURVE SMOOTH",
"582 161 OFFCURVE",
"474 31 OFFCURVE",
"334 31 CURVE SMOOTH"
);
}
);
width = 628;
}
);
leftKerningGroup = h;
rightKerningGroup = o;
rightMetricsKey = o;
unicode = 0062;
},
{
glyphname = c;
lastChange = "2019-07-21 01:56:51 +0000";
layers = (
{
anchors = (
{
name = bottom;
position = "{327, 0}";
},
{
name = top;
position = "{371, 530}";
}
);
guideLines = (
{
angle = 90;
position = "{215, -76}";
},
{
angle = 90;
position = "{677, 287}";
},
{
position = "{493, 392}";
},
{
position = "{502, 427}";
},
{
position = "{637, 540}";
},
{
position = "{557, -10}";
},
{
angle = 90;
position = "{29, -76}";
}
);
layerId = "D085834A-C5B8-45AD-B7CB-7C394966C9BB";
paths = (
{
closed = 1;
nodes = (
"438 -10 OFFCURVE",
"536 90 OFFCURVE",
"573 212 CURVE",
"387 212 LINE",
"376 172 OFFCURVE",
"349 141 OFFCURVE",
"312 141 CURVE SMOOTH",
"265 141 OFFCURVE",
"253 178 OFFCURVE",
"253 217 CURVE SMOOTH",
"253 317 OFFCURVE",
"293 389 OFFCURVE",
"351 389 CURVE SMOOTH",
"389 389 OFFCURVE",
"405 357 OFFCURVE",
"404 318 CURVE",
"590 318 LINE",
"591 440 OFFCURVE",
"525 540 OFFCURVE",
"373 540 CURVE SMOOTH",
"199 540 OFFCURVE",
"67 397 OFFCURVE",
"67 210 CURVE SMOOTH",
"67 93 OFFCURVE",
"130 -10 OFFCURVE",
"286 -10 CURVE SMOOTH"
);
}
);
width = 569;
},
{
anchors = (
{
name = bottom;
position = "{294, -6}";
},
{
name = top;
position = "{379, 525}";
}
);
guideLines = (
{
angle = 90;
position = "{38, 44}";
},
{
position = "{473, -5}";
},
{
position = "{462, 507}";
},
{
position = "{462, 542}";
},
{
position = "{462, 28}";
},
{
angle = 90;
position = "{294, -58}";
},
{
position = "{334, 506}";
}
);
layerId = "B45F0BEB-E489-4392-AE53-309DD1ADE040";
paths = (
{
closed = 1;
nodes = (
"428 -6 OFFCURVE",
"512 94 OFFCURVE",
"541 189 CURVE",
"508 189 LINE",
"477 99 OFFCURVE",
"405 29 OFFCURVE",
"292 29 CURVE SMOOTH",
"177 29 OFFCURVE",
"122 105 OFFCURVE",
"122 209 CURVE SMOOTH",
"122 376 OFFCURVE",
"233 507 OFFCURVE",
"376 507 CURVE SMOOTH",
"488 507 OFFCURVE",
"537 437 OFFCURVE",
"536 347 CURVE",
"569 347 LINE",
"574 442 OFFCURVE",
"523 542 OFFCURVE",
"382 542 CURVE SMOOTH",
"211 542 OFFCURVE",
"113 399 OFFCURVE",
"90 268 CURVE",
"67 139 OFFCURVE",
"113 -6 OFFCURVE",
"286 -6 CURVE SMOOTH"
);
}
);
width = 560;
}
);
leftKerningGroup = o;
leftMetricsKey = o;
rightKerningGroup = o;
unicode = 0063;
},
{
glyphname = d;
lastChange = "2019-07-21 01:55:53 +0000";
layers = (
{
guideLines = (
{
position = "{344, 542}";
},
{
position = "{328, 428}";
},
{
position = "{431, 74}";
}
);
layerId = "D085834A-C5B8-45AD-B7CB-7C394966C9BB";
paths = (
{
closed = 1;
nodes = (
"329 -10 OFFCURVE",
"375 63 OFFCURVE",
"382 74 CURVE",
"390 74 LINE",
"378 0 LINE",
"570 0 LINE",
"689 751 LINE",
"497 751 LINE",
"451 462 LINE",
"443 462 LINE",
"441 472 OFFCURVE",
"416 540 OFFCURVE",
"313 540 CURVE SMOOTH",
"171 540 OFFCURVE",
"66 390 OFFCURVE",
"66 185 CURVE SMOOTH",
"66 64 OFFCURVE",
"120 -10 OFFCURVE",
"226 -10 CURVE SMOOTH"
);
},
{
closed = 1;
nodes = (
"276 138 OFFCURVE",
"262 180 OFFCURVE",
"262 223 CURVE SMOOTH",
"262 316 OFFCURVE",
"306 387 OFFCURVE",
"363 387 CURVE SMOOTH",
"411 387 OFFCURVE",
"425 344 OFFCURVE",
"425 302 CURVE SMOOTH",
"425 211 OFFCURVE",
"379 138 OFFCURVE",
"324 138 CURVE SMOOTH"
);
}
);
width = 610;
},
{
guideLines = (
{
position = "{230, 86}";
},
{
position = "{440, -5}";
},
{
position = "{801, 33}";
},
{
position = "{589, -5}";
},
{
position = "{542, -5}";
}
);
layerId = "B45F0BEB-E489-4392-AE53-309DD1ADE040";
paths = (
{
closed = 1;
nodes = (
"379 -5 OFFCURVE",
"451 55 OFFCURVE",
"499 125 CURVE",
"506 125 LINE",
"484 0 LINE",
"518 0 LINE",
"650 750 LINE",
"616 750 LINE",
"556 413 LINE",
"549 413 LINE",
"529 478 OFFCURVE",
"481 542 OFFCURVE",
"376 542 CURVE SMOOTH",
"216 542 OFFCURVE",
"85 390 OFFCURVE",
"85 204 CURVE SMOOTH",
"85 87 OFFCURVE",
"148 -5 OFFCURVE",
"276 -5 CURVE SMOOTH"
);
},
{
closed = 1;
nodes = (
"173 31 OFFCURVE",
"121 106 OFFCURVE",
"121 207 CURVE SMOOTH",
"121 376 OFFCURVE",
"229 506 OFFCURVE",
"369 506 CURVE SMOOTH",
"480 506 OFFCURVE",
"532 431 OFFCURVE",
"532 329 CURVE SMOOTH",
"532 161 OFFCURVE",
"424 31 OFFCURVE",
"285 31 CURVE SMOOTH"
);
}
);
width = 609;
}
);
leftKerningGroup = o;
leftMetricsKey = o;
rightKerningGroup = I;
unicode = 0064;
},
{
glyphname = eth;
lastChange = "2019-07-18 14:24:21 +0000";
layers = (
{
guideLines = (
{
angle = 90;
position = "{499, 317}";
},
{
position = "{370, -5}";
},
{
angle = 180;
position = "{266, 268}";
}
);
layerId = "B45F0BEB-E489-4392-AE53-309DD1ADE040";
paths = (
{
closed = 1;
nodes = (
"445 -5 OFFCURVE",
"552 121 OFFCURVE",
"578 268 CURVE SMOOTH",
"604 416 LINE SMOOTH",
"661 740 OFFCURVE",
"422 765 OFFCURVE",
"385 765 CURVE",
"380 736 LINE",
"398 736 OFFCURVE",
"599 719 OFFCURVE",
"599 419 CURVE SMOOTH",
"599 416 LINE",
"565 416 LINE",
"544 481 OFFCURVE",
"497 542 OFFCURVE",
"389 542 CURVE SMOOTH",
"230 542 OFFCURVE",
"100 389 OFFCURVE",
"100 204 CURVE SMOOTH",
"100 86 OFFCURVE",
"164 -5 OFFCURVE",
"293 -5 CURVE SMOOTH"
);
},
{
closed = 1;
nodes = (
"188 31 OFFCURVE",
"136 105 OFFCURVE",
"136 206 CURVE SMOOTH",
"136 375 OFFCURVE",
"244 506 OFFCURVE",
"383 506 CURVE SMOOTH",
"494 506 OFFCURVE",
"547 432 OFFCURVE",
"547 329 CURVE SMOOTH",
"547 161 OFFCURVE",
"439 31 OFFCURVE",
"299 31 CURVE SMOOTH"
);
},
{
closed = 1;
nodes = (
"645 739 LINE",
"634 764 LINE",
"400 641 LINE",
"410 616 LINE"
);
}
);
width = 621;
},
{
layerId = "D085834A-C5B8-45AD-B7CB-7C394966C9BB";
paths = (
{
closed = 1;
nodes = (
"473 -10 OFFCURVE",
"568 151 OFFCURVE",
"589 284 CURVE SMOOTH",
"622 492 LINE SMOOTH",
"670 793 OFFCURVE",
"408 842 OFFCURVE",
"285 841 CURVE",
"263 700 LINE",
"350 702 OFFCURVE",
"455 655 OFFCURVE",
"431 502 CURVE SMOOTH",
"425 463 LINE",
"417 463 LINE",
"415 470 OFFCURVE",
"391 539 OFFCURVE",
"291 539 CURVE SMOOTH",
"154 539 OFFCURVE",
"45 397 OFFCURVE",
"45 222 CURVE SMOOTH",
"45 105 OFFCURVE",
"102 -10 OFFCURVE",
"272 -10 CURVE SMOOTH"
);
},
{
closed = 1;
nodes = (
"250 140 OFFCURVE",
"237 182 OFFCURVE",
"237 225 CURVE SMOOTH",
"237 317 OFFCURVE",
"281 392 OFFCURVE",
"338 392 CURVE SMOOTH",
"386 392 OFFCURVE",
"399 348 OFFCURVE",
"399 305 CURVE SMOOTH",
"399 214 OFFCURVE",
"354 140 OFFCURVE",
"297 140 CURVE SMOOTH"
);
},
{
closed = 1;
nodes = (
"661 737 LINE",
"624 824 LINE",
"307 656 LINE",
"343 569 LINE"
);
}
);
width = 600;
}
);
leftKerningGroup = o;
rightKerningGroup = dcroat;
unicode = 00F0;
},
{
glyphname = dcroat;
lastChange = "2019-07-21 01:48:00 +0000";
layers = (
{
components = (
{
name = d;
}
);
guideLines = (
{
angle = 90;
position = "{569, 141}";
}
);
layerId = "D085834A-C5B8-45AD-B7CB-7C394966C9BB";
paths = (
{
closed = 1;
nodes = (
"711 571 LINE",
"730 691 LINE",
"415 691 LINE",
"396 571 LINE"
);
}
);
width = 631;
},
{
components = (
{
name = d;
}
);
guideLines = (
{
angle = 90;
position = "{616, 343}";
},
{
angle = 90;
position = "{532, 374}";
}
);
layerId = "B45F0BEB-E489-4392-AE53-309DD1ADE040";
paths = (
{
closed = 1;
nodes = (
"726 626 LINE",
"731 656 LINE",
"419 656 LINE",
"414 626 LINE"
);
}
);
width = 671;
}
);
leftKerningGroup = o;
rightKerningGroup = dcroat;
unicode = 0111;
},
{
glyphname = e;
lastChange = "2019-07-25 04:57:33 +0000";
layers = (
{
anchors = (
{
name = bottom;
position = "{325, 0}";
},
{
name = ogonek;
position = "{417, 44}";
},
{
name = top;
position = "{392, 530}";
}
);
guideLines = (
{
position = "{622, 96}";
},
{
position = "{643, 428}";
},
{
position = "{743, 128}";
},
{
position = "{636, -10}";
},
{
position = "{708, 540}";
},
{
position = "{159, 397}";
},
{
position = "{464, 176}";
},
{
position = "{464, 318}";
}
);
layerId = "D085834A-C5B8-45AD-B7CB-7C394966C9BB";
paths = (
{
closed = 1;
nodes = (
"434 0 OFFCURVE",
"528 82 OFFCURVE",
"568 186 CURVE",
"382 186 LINE",
"370 165 OFFCURVE",
"344 148 OFFCURVE",
"310 148 CURVE SMOOTH",
"269 148 OFFCURVE",
"242 177 OFFCURVE",
"247 214 CURVE SMOOTH",
"248 222 LINE",
"364 222 LINE SMOOTH",
"545 222 OFFCURVE",
"599 324 OFFCURVE",
"599 397 CURVE SMOOTH",
"599 471 OFFCURVE",
"543 550 OFFCURVE",
"386 550 CURVE SMOOTH",
"195 550 OFFCURVE",
"70 408 OFFCURVE",
"70 224 CURVE SMOOTH",
"70 103 OFFCURVE",
"135 0 OFFCURVE",
"292 0 CURVE SMOOTH"
);
},
{
closed = 1;
nodes = (
"277 392 OFFCURVE",
"324 416 OFFCURVE",
"369 416 CURVE SMOOTH",
"403 416 OFFCURVE",
"423 402 OFFCURVE",
"423 382 CURVE SMOOTH",
"423 365 OFFCURVE",
"408 341 OFFCURVE",
"356 341 CURVE SMOOTH",
"270 341 LINE"
);
}
);
width = 569;
},
{
anchors = (
{
name = bottom;
position = "{332, 0}";
},
{
name = ogonek;
position = "{414, 24}";
},
{
name = top;
position = "{387, 525}";
}
);
guideLines = (
{
angle = 90;
position = "{648, 245}";
},
{
angle = 90;
position = "{677, 67}";
},
{
position = "{210, 53}";
},
{
position = "{617, 507}";
},
{
position = "{617, 28}";
},
{
angle = 180;
position = "{128, 280}";
},
{
position = "{128, 250}";
},
{
angle = 90;
position = "{137, 44}";
},
{
angle = 90;
position = "{170, 45}";
},
{
position = "{561, 507}";
},
{
position = "{561, 542}";
},
{
position = "{572, -5}";
}
);
layerId = "B45F0BEB-E489-4392-AE53-309DD1ADE040";
paths = (
{
closed = 1;
nodes = (
"418 -5 OFFCURVE",
"491 74 OFFCURVE",
"530 154 CURVE",
"495 154 LINE",
"454 80 OFFCURVE",
"383 29 OFFCURVE",
"297 29 CURVE SMOOTH",
"169 29 OFFCURVE",
"110 139 OFFCURVE",
"126 250 CURVE SMOOTH",
"127 257 LINE",
"367 257 LINE SMOOTH",
"487 257 OFFCURVE",
"558 317 OFFCURVE",
"558 403 CURVE SMOOTH",
"558 472 OFFCURVE",
"513 542 OFFCURVE",
"387 542 CURVE SMOOTH",
"203 542 OFFCURVE",
"87 391 OFFCURVE",
"87 217 CURVE SMOOTH",
"87 92 OFFCURVE",
"154 -5 OFFCURVE",
"293 -5 CURVE SMOOTH"
);
},
{
closed = 1;
nodes = (
"161 417 OFFCURVE",
"241 507 OFFCURVE",
"380 507 CURVE SMOOTH",
"496 507 OFFCURVE",
"521 445 OFFCURVE",
"521 401 CURVE SMOOTH",
"521 345 OFFCURVE",
"483 289 OFFCURVE",
"372 289 CURVE SMOOTH",
"133 289 LINE"
);
}
);
width = 563;
}
);
leftKerningGroup = o;
leftMetricsKey = o;
rightKerningGroup = o;
rightMetricsKey = o;
unicode = 0065;
},
{
glyphname = f;
lastChange = "2019-07-21 01:28:12 +0000";
layers = (
{
layerId = "D085834A-C5B8-45AD-B7CB-7C394966C9BB";
paths = (
{
closed = 1;
nodes = (
"452 383 LINE",
"475 530 LINE",
"114 530 LINE",
"91 383 LINE"
);
},
{
closed = 1;
nodes = (
"89 -11 LINE SMOOTH",
"82 -53 OFFCURVE",
"76 -96 OFFCURVE",
"17 -96 CURVE SMOOTH",
"4 -96 OFFCURVE",
"-23 -94 OFFCURVE",
"-35 -92 CURVE",
"-55 -222 LINE",
"-44 -227 OFFCURVE",
"12 -234 OFFCURVE",
"51 -234 CURVE SMOOTH",
"235 -234 OFFCURVE",
"264 -106 OFFCURVE",
"271 -60 CURVE SMOOTH",
"363 524 LINE SMOOTH",
"370 566 OFFCURVE",
"376 609 OFFCURVE",
"435 609 CURVE SMOOTH",
"448 609 OFFCURVE",
"475 607 OFFCURVE",
"487 605 CURVE",
"506 728 LINE",
"495 733 OFFCURVE",
"439 740 OFFCURVE",
"400 740 CURVE SMOOTH",
"216 740 OFFCURVE",
"187 612 OFFCURVE",
"180 566 CURVE SMOOTH"
);
}
);
width = 406;
},
{
guideLines = (
{
position = "{354, 715}";
}
);
layerId = "B45F0BEB-E489-4392-AE53-309DD1ADE040";
paths = (
{
closed = 1;
nodes = (
"388 495 LINE",
"394 525 LINE",
"148 525 LINE",
"142 495 LINE"
);
},
{
closed = 1;
nodes = (
"112 -124 LINE SMOOTH",
"105 -166 OFFCURVE",
"95 -221 OFFCURVE",
"12 -221 CURVE SMOOTH",
"-5 -221 OFFCURVE",
"-24 -219 OFFCURVE",
"-36 -216 CURVE",
"-41 -244 LINE",
"-29 -248 OFFCURVE",
"-11 -250 OFFCURVE",
"10 -250 CURVE SMOOTH",
"107 -250 OFFCURVE",
"136 -188 OFFCURVE",
"147 -124 CURVE SMOOTH",
"277 611 LINE SMOOTH",
"284 653 OFFCURVE",
"294 708 OFFCURVE",
"377 708 CURVE SMOOTH",
"394 708 OFFCURVE",
"413 706 OFFCURVE",
"425 703 CURVE",
"430 731 LINE",
"418 735 OFFCURVE",
"400 737 OFFCURVE",
"379 737 CURVE SMOOTH",
"282 737 OFFCURVE",
"253 674 OFFCURVE",
"242 611 CURVE SMOOTH"
);
}
);
width = 356;
}
);
leftKerningGroup = f;
rightKerningGroup = f;
unicode = 0066;
},
{
glyphname = g;
lastChange = "2019-07-21 01:56:44 +0000";
layers = (
{
anchors = (
{
name = bottom;
position = "{242, -250}";
},
{
name = top;
position = "{379, 525}";
}
);
guideLines = (
{
position = "{513, -199}";
},
{
angle = 90;
position = "{286, 131}";
}
);
layerId = "B45F0BEB-E489-4392-AE53-309DD1ADE040";
paths = (
{
closed = 1;
nodes = (
"401 -199 OFFCURVE",
"499 -103 OFFCURVE",
"521 20 CURVE SMOOTH",
"610 524 LINE",
"576 524 LINE",
"555 409 LINE",
"548 409 LINE",
"531 486 OFFCURVE",
"469 544 OFFCURVE",
"371 544 CURVE SMOOTH",
"217 544 OFFCURVE",
"87 396 OFFCURVE",
"87 220 CURVE SMOOTH",
"87 98 OFFCURVE",
"161 14 OFFCURVE",
"279 14 CURVE SMOOTH",
"371 14 OFFCURVE",
"451 63 OFFCURVE",
"500 140 CURVE",
"508 140 LINE",
"487 20 LINE SMOOTH",
"466 -99 OFFCURVE",
"383 -164 OFFCURVE",
"266 -164 CURVE SMOOTH",
"232 -164 OFFCURVE",
"201 -157 OFFCURVE",
"188 -153 CURVE",
"182 -187 LINE",
"195 -192 OFFCURVE",
"223 -199 OFFCURVE",
"260 -199 CURVE SMOOTH"
);
},
{
closed = 1;
nodes = (
"179 50 OFFCURVE",
"127 127 OFFCURVE",
"127 226 CURVE SMOOTH",
"127 383 OFFCURVE",
"235 508 OFFCURVE",
"371 508 CURVE SMOOTH",
"482 508 OFFCURVE",
"534 430 OFFCURVE",
"534 334 CURVE SMOOTH",
"534 178 OFFCURVE",
"424 50 OFFCURVE",
"290 50 CURVE SMOOTH"
);
}
);
width = 610;
},
{
anchors = (
{
name = bottom;
position = "{265, -250}";
},
{
name = top;
position = "{389, 530}";
}
);
guideLines = (
{
angle = 270;
position = "{377, 39}";
},
{
position = "{561, -234}";
}
);
layerId = "D085834A-C5B8-45AD-B7CB-7C394966C9BB";
paths = (
{
closed = 1;
nodes = (
"531 -238 OFFCURVE",
"567 -9 OFFCURVE",
"575 39 CURVE SMOOTH",
"653 530 LINE",
"461 530 LINE",
"449 456 LINE",
"441 456 LINE",
"439 466 OFFCURVE",
"414 540 OFFCURVE",
"313 540 CURVE SMOOTH",
"172 540 OFFCURVE",
"66 391 OFFCURVE",
"66 193 CURVE SMOOTH",
"66 75 OFFCURVE",
"120 0 OFFCURVE",
"226 0 CURVE SMOOTH",
"331 0 OFFCURVE",
"375 73 OFFCURVE",
"382 84 CURVE",
"390 84 LINE",
"383 39 LINE SMOOTH",
"377 1 OFFCURVE",
"364 -76 OFFCURVE",
"269 -76 CURVE SMOOTH",
"242 -76 OFFCURVE",
"207 -70 OFFCURVE",
"196 -66 CURVE",
"173 -215 LINE",
"185 -220 OFFCURVE",
"201 -233 OFFCURVE",
"263 -234 CURVE SMOOTH"
);
},
{
closed = 1;
nodes = (
"276 150 OFFCURVE",
"263 193 OFFCURVE",
"263 235 CURVE SMOOTH",
"263 315 OFFCURVE",
"302 389 OFFCURVE",
"362 389 CURVE SMOOTH",
"411 389 OFFCURVE",
"424 345 OFFCURVE",
"424 304 CURVE SMOOTH",
"424 228 OFFCURVE",
"384 150 OFFCURVE",
"325 150 CURVE SMOOTH"
);
}
);
width = 609;
}
);
leftKerningGroup = o;
leftMetricsKey = o;
rightKerningGroup = g;
unicode = 0067;
},
{
glyphname = h;
lastChange = "2019-07-21 01:46:05 +0000";
layers = (
{
guideLines = (
{
position = "{433, 476}";
},
{
angle = 90;
position = "{270, 246}";
},
{
angle = 90;
position = "{191, 246}";
},
{
angle = 90;
position = "{351, 246}";
},
{
angle = 90;
position = "{320, 246}";
},
{
position = "{98, 387}";
}
);
layerId = "D085834A-C5B8-45AD-B7CB-7C394966C9BB";
paths = (
{
closed = 1;
nodes = (
"232 0 LINE",
"280 300 LINE SMOOTH",
"287 344 OFFCURVE",
"304 387 OFFCURVE",
"358 387 CURVE SMOOTH",
"410 387 OFFCURVE",
"416 346 OFFCURVE",
"409 300 CURVE SMOOTH",
"361 0 LINE",
"551 0 LINE",
"604 334 LINE SMOOTH",
"614 396 OFFCURVE",
"625 540 OFFCURVE",
"461 540 CURVE SMOOTH",
"359 540 OFFCURVE",
"313 462 OFFCURVE",
"313 462 CURVE",
"305 462 LINE",
"349 740 LINE",
"157 740 LINE",
"40 0 LINE"
);
}
);
width = 591;
},
{
guideLines = (
{
position = "{274, 750}";
},
{
position = "{498, 504}";
},
{
position = "{498, 542}";
}
);
layerId = "B45F0BEB-E489-4392-AE53-309DD1ADE040";
paths = (
{
closed = 1;
nodes = (
"126 0 LINE",
"180 306 LINE SMOOTH",
"203 438 OFFCURVE",
"311 503 OFFCURVE",
"405 503 CURVE SMOOTH",
"509 503 OFFCURVE",
"584 443 OFFCURVE",
"560 306 CURVE SMOOTH",
"506 0 LINE",
"540 0 LINE",
"594 306 LINE SMOOTH",
"618 442 OFFCURVE",
"556 542 OFFCURVE",
"424 542 CURVE SMOOTH",
"276 542 OFFCURVE",
"207 417 OFFCURVE",
"207 417 CURVE SMOOTH",
"200 417 LINE",
"258 750 LINE",
"224 750 LINE",
"92 0 LINE"
);
}
);
width = 622;
}
);
leftKerningGroup = h;
rightKerningGroup = n;
unicode = 0068;
},
{
glyphname = hbar;
lastChange = "2019-07-18 14:24:21 +0000";
layers = (
{
guideLines = (
{
angle = 90;
position = "{92, -70}";
},
{
angle = 90;
position = "{8, -39}";
}
);
layerId = "B45F0BEB-E489-4392-AE53-309DD1ADE040";
paths = (
{
closed = 1;
nodes = (
"126 0 LINE",
"174 272 LINE SMOOTH",
"197 402 OFFCURVE",
"294 504 OFFCURVE",
"430 504 CURVE SMOOTH",
"596 504 OFFCURVE",
"568 352 OFFCURVE",
"562 317 CURVE SMOOTH",
"506 0 LINE",
"540 0 LINE",
"596 318 LINE SMOOTH",
"603 360 OFFCURVE",
"636 542 OFFCURVE",
"442 542 CURVE SMOOTH",
"275 542 OFFCURVE",
"205 407 OFFCURVE",
"205 407 CURVE SMOOTH",
"197 407 LINE",
"257 750 LINE",
"224 750 LINE",
"92 0 LINE"
);
},
{
closed = 1;
nodes = (
"430 626 LINE",
"436 656 LINE",
"124 656 LINE",
"118 626 LINE"
);
}
);
width = 600;
},
{
layerId = "D085834A-C5B8-45AD-B7CB-7C394966C9BB";
paths = (
{
closed = 1;
nodes = (
"258 0 LINE",
"306 300 LINE SMOOTH",
"313 344 OFFCURVE",
"330 387 OFFCURVE",
"384 387 CURVE SMOOTH",
"436 387 OFFCURVE",
"442 346 OFFCURVE",
"435 300 CURVE SMOOTH",
"387 0 LINE",
"577 0 LINE",
"630 334 LINE SMOOTH",
"635 364 OFFCURVE",
"662 540 OFFCURVE",
"498 540 CURVE SMOOTH",
"396 540 OFFCURVE",
"349 473 OFFCURVE",
"338 456 CURVE",
"330 456 LINE",
"377 751 LINE",
"185 751 LINE",
"66 0 LINE"
);
},
{
closed = 1;
nodes = (
"415 571 LINE",
"434 691 LINE",
"119 691 LINE",
"100 571 LINE"
);
}
);
width = 617;
}
);
unicode = 0127;
},
{
glyphname = idotless;
lastChange = "2019-07-18 14:24:21 +0000";
layers = (
{
anchors = (
{
name = bottom;
position = "{108, 0}";
},
{
name = ogonek;
position = "{169, 27}";
},
{
name = top;
position = "{201, 525}";
}
);
guideLines = (
{
angle = 90;
position = "{108, -26}";
}
);
layerId = "B45F0BEB-E489-4392-AE53-309DD1ADE040";
paths = (
{
closed = 1;
nodes = (
"125 0 LINE",
"218 525 LINE",
"184 525 LINE",
"91 0 LINE"
);
}
);
width = 216;
},
{
anchors = (
{
name = bottom;
position = "{159, 0}";
},
{
name = ogonek;
position = "{297, 51}";
},
{
name = top;
position = "{243, 530}";
}
);
layerId = "D085834A-C5B8-45AD-B7CB-7C394966C9BB";
paths = (
{
closed = 1;
nodes = (
"254 0 LINE",
"338 530 LINE",
"148 530 LINE",
"64 0 LINE"
);
}
);
width = 318;
}
);
unicode = 0131;
},
{
glyphname = j;
lastChange = "2019-07-18 14:24:21 +0000";
layers = (
{
components = (
{
name = dotaccentcomb;
transform = "{1, 0, 0, 1, -3, 0}";
}
);
guideLines = (
{
angle = 90;
position = "{251, 374}";
},
{
position = "{580, -258}";
},
{
position = "{580, 610}";
},
{
angle = 90;
position = "{61, 374}";
},
{
position = "{-8, -254}";
},
{
position = "{561, -234}";
}
);
layerId = "D085834A-C5B8-45AD-B7CB-7C394966C9BB";
paths = (
{
closed = 1;
nodes = (
"214 -234 OFFCURVE",
"236 -94 OFFCURVE",
"240 -68 CURVE SMOOTH",
"338 551 LINE",
"148 551 LINE",
"60 -7 LINE SMOOTH",
"53 -52 OFFCURVE",
"45 -94 OFFCURVE",
"-23 -94 CURVE SMOOTH",
"-33 -94 OFFCURVE",
"-54 -93 OFFCURVE",
"-64 -91 CURVE",
"-85 -221 LINE",
"-68 -225 OFFCURVE",
"-32 -234 OFFCURVE",
"18 -234 CURVE SMOOTH"
);
}
);
width = 312;
},
{
components = (
{
name = dotaccentcomb;
transform = "{1, 0, 0, 1, 2, 0}";
}
);
guideLines = (
{
position = "{116, -212}";
},
{
angle = 270;
position = "{132, 220}";
},
{
angle = 270;
position = "{100, 220}";
}
);
layerId = "B45F0BEB-E489-4392-AE53-309DD1ADE040";
paths = (
{
closed = 1;
nodes = (
"80 -212 OFFCURVE",
"108 -149 OFFCURVE",
"119 -86 CURVE SMOOTH",
"226 525 LINE",
"192 525 LINE",
"84 -86 LINE SMOOTH",
"77 -128 OFFCURVE",
"65 -183 OFFCURVE",
"-16 -183 CURVE SMOOTH",
"-33 -183 OFFCURVE",
"-52 -181 OFFCURVE",
"-64 -178 CURVE",
"-69 -206 LINE",
"-57 -210 OFFCURVE",
"-39 -212 OFFCURVE",
"-18 -212 CURVE SMOOTH"
);
}
);
width = 224;
}
);
leftKerningGroup = j;
unicode = 006A;
},
{
glyphname = k;
lastChange = "2019-07-21 01:43:57 +0000";
layers = (
{
anchors = (
{
name = bottom;
position = "{303, 0}";
},
{
name = top;
position = "{469, 1050}";
}
);
guideLines = (
{
position = "{554, 0}";
},
{
position = "{554, 13}";
},
{
angle = 58.7173;
position = "{499, 402}";
},
{
angle = 117.9846;
position = "{499, 148}";
}
);
layerId = "D085834A-C5B8-45AD-B7CB-7C394966C9BB";
paths = (
{
closed = 1;
nodes = (
"242 0 LINE",
"282 251 LINE",
"288 251 LINE",
"367 0 LINE",
"578 0 LINE",
"472 283 LINE",
"661 530 LINE",
"451 530 LINE",
"300 332 LINE",
"295 332 LINE",
"359 740 LINE",
"167 740 LINE",
"50 0 LINE"
);
}
);
width = 606;
},
{
anchors = (
{
name = bottom;
position = "{236, 0}";
},
{
name = top;
position = "{447, 700}";
}
);
guideLines = (
{
angle = 39.4875;
position = "{272, 404}";
},
{
angle = 134.8982;
position = "{279, 153}";
},
{
angle = 219.8056;
position = "{250, 425}";
},
{
angle = -45.6688;
position = "{294, 135}";
},
{
angle = -45.6688;
position = "{257, 130}";
},
{
angle = 79.992;
position = "{221, 538}";
},
{
angle = 36.2538;
position = "{299, 410}";
},
{
angle = 36.2538;
position = "{348, 410}";
}
);
layerId = "B45F0BEB-E489-4392-AE53-309DD1ADE040";
paths = (
{
closed = 1;
nodes = (
"126 0 LINE",
"172 260 LINE",
"176 260 LINE",
"384 0 LINE",
"426 0 LINE",
"190 294 LINE",
"505 525 LINE",
"456 525 LINE",
"188 328 LINE",
"184 328 LINE",
"258 750 LINE",
"224 750 LINE",
"92 0 LINE"
);
}
);
width = 471;
}
);
leftKerningGroup = h;
rightKerningGroup = k;
unicode = 006B;
},
{
glyphname = l;
lastChange = "2019-07-18 14:24:21 +0000";
layers = (
{
anchors = (
{
name = bottom;
position = "{185, 0}";
},
{
name = center;
position = "{260, 475}";
},
{
name = top;
position = "{260, 739}";
},
{
name = topright;
position = "{499, 950}";
}
);
guideLines = (
{
position = "{135, 181}";
},
{
angle = 270;
position = "{143, 519}";
},
{
position = "{601, -3}";
},
{
position = "{132, 137}";
},
{
position = "{132, 135}";
}
);
layerId = "D085834A-C5B8-45AD-B7CB-7C394966C9BB";
paths = (
{
closed = 1;
nodes = (
"278 -3 OFFCURVE",
"319 1 OFFCURVE",
"339 3 CURVE",
"360 133 LINE",
"354 132 OFFCURVE",
"346 132 OFFCURVE",
"339 132 CURVE SMOOTH",
"260 132 OFFCURVE",
"267 165 OFFCURVE",
"275 218 CURVE SMOOTH",
"359 750 LINE",
"169 750 LINE",
"78 177 LINE SMOOTH",
"65 97 OFFCURVE",
"50 -3 OFFCURVE",
"240 -3 CURVE SMOOTH"
);
}
);
width = 369;
},
{
anchors = (
{
name = bottom;
position = "{143, 0}";
},
{
name = center;
position = "{226, 475}";
},
{
name = top;
position = "{242, 750}";
},
{
name = topright;
position = "{433, 950}";
}
);
guideLines = (
{
angle = 270;
position = "{175, 436}";
},
{
angle = 90;
position = "{207, 436}";
},
{
position = "{619, -5}";
},
{
position = "{274, 750}";
}
);
layerId = "B45F0BEB-E489-4392-AE53-309DD1ADE040";
paths = (
{
closed = 1;
nodes = (
"211 -5 OFFCURVE",
"227 -3 OFFCURVE",
"241 0 CURVE",
"246 28 LINE",
"232 26 OFFCURVE",
"217 24 OFFCURVE",
"201 24 CURVE SMOOTH",
"130 24 OFFCURVE",
"138 63 OFFCURVE",
"149 127 CURVE SMOOTH",
"259 750 LINE",
"225 750 LINE",
"114 127 LINE SMOOTH",
"100 47 OFFCURVE",
"100 -5 OFFCURVE",
"194 -5 CURVE SMOOTH"
);
}
);
width = 286;
}
);
leftKerningGroup = h;
rightKerningGroup = t;
unicode = 006C;
},
{
glyphname = m;
lastChange = "2019-07-18 14:24:21 +0000";
layers = (
{
guideLines = (
{
position = "{428, 363}";
},
{
position = "{496, 542}";
},
{
angle = 270;
position = "{595, 102}";
},
{
angle = 270;
position = "{704, 114}";
},
{
angle = 270;
position = "{578, 162}";
},
{
angle = 270;
position = "{404, 144}";
},
{
angle = 270;
position = "{506, 162}";
},
{
angle = 90;
position = "{836, 147}";
},
{
position = "{430, 462}";
},
{
position = "{551, 456}";
},
{
position = "{427, 387}";
}
);
layerId = "D085834A-C5B8-45AD-B7CB-7C394966C9BB";
paths = (
{
closed = 1;
nodes = (
"231 0 LINE",
"281 313 LINE SMOOTH",
"288 358 OFFCURVE",
"321 380 OFFCURVE",
"348 380 CURVE SMOOTH",
"377 380 OFFCURVE",
"402 358 OFFCURVE",
"395 313 CURVE SMOOTH",
"345 0 LINE",
"536 0 LINE",
"586 313 LINE SMOOTH",
"593 358 OFFCURVE",
"626 380 OFFCURVE",
"653 380 CURVE SMOOTH",
"682 380 OFFCURVE",
"707 358 OFFCURVE",
"700 313 CURVE SMOOTH",
"650 0 LINE",
"841 0 LINE",
"894 335 LINE SMOOTH",
"900 375 OFFCURVE",
"917 540 OFFCURVE",
"754 540 CURVE SMOOTH",
"639 540 OFFCURVE",
"592 451 OFFCURVE",
"585 438 CURVE",
"578 438 LINE",
"578 450 OFFCURVE",
"556 540 OFFCURVE",
"454 540 CURVE SMOOTH",
"365 540 OFFCURVE",
"319 471 OFFCURVE",
"311 456 CURVE",
"303 456 LINE",
"315 530 LINE",
"124 530 LINE",
"40 0 LINE"
);
}
);
width = 881;
},
{
guideLines = (
{
angle = 90;
position = "{747, 254}";
},
{
position = "{390, 504}";
},
{
position = "{390, 542}";
},
{
position = "{389, 407}";
}
);
layerId = "B45F0BEB-E489-4392-AE53-309DD1ADE040";
paths = (
{
closed = 1;
nodes = (
"125 0 LINE",
"179 306 LINE SMOOTH",
"202 438 OFFCURVE",
"304 503 OFFCURVE",
"400 503 CURVE SMOOTH",
"489 503 OFFCURVE",
"566 446 OFFCURVE",
"541 306 CURVE SMOOTH",
"487 0 LINE",
"520 0 LINE",
"574 306 LINE SMOOTH",
"597 438 OFFCURVE",
"699 503 OFFCURVE",
"795 503 CURVE SMOOTH",
"884 503 OFFCURVE",
"961 446 OFFCURVE",
"936 306 CURVE SMOOTH",
"882 0 LINE",
"915 0 LINE",
"969 306 LINE SMOOTH",
"994 450 OFFCURVE",
"929 542 OFFCURVE",
"810 542 CURVE SMOOTH",
"663 542 OFFCURVE",
"588 407 OFFCURVE",
"588 407 CURVE SMOOTH",
"580 407 LINE SMOOTH",
"580 407 OFFCURVE",
"558 542 OFFCURVE",
"414 542 CURVE SMOOTH",
"273 542 OFFCURVE",
"206 417 OFFCURVE",
"206 417 CURVE SMOOTH",
"199 417 LINE",
"218 525 LINE",
"185 525 LINE",
"92 0 LINE"
);
}
);
width = 997;
}
);
leftKerningGroup = h;
rightKerningGroup = n;
unicode = 006D;
},
{
glyphname = n;
lastChange = "2019-07-18 14:24:21 +0000";
layers = (
{
anchors = (
{
name = bottom;
position = "{296, 0}";
},
{
name = top;
position = "{380, 530}";
}
);
guideLines = (
{
position = "{427, 387}";
},
{
angle = 90;
position = "{551, 148}";
},
{
position = "{350, 540}";
},
{
position = "{551, 456}";
},
{
position = "{199, 462}";
}
);
layerId = "D085834A-C5B8-45AD-B7CB-7C394966C9BB";
paths = (
{
closed = 1;
nodes = (
"232 0 LINE",
"280 300 LINE SMOOTH",
"287 344 OFFCURVE",
"304 387 OFFCURVE",
"358 387 CURVE SMOOTH",
"410 387 OFFCURVE",
"416 346 OFFCURVE",
"409 300 CURVE SMOOTH",
"361 0 LINE",
"551 0 LINE",
"604 334 LINE SMOOTH",
"614 396 OFFCURVE",
"625 540 OFFCURVE",
"461 540 CURVE SMOOTH",
"359 540 OFFCURVE",
"313 462 OFFCURVE",
"313 462 CURVE",
"305 462 LINE",
"316 530 LINE",
"124 530 LINE",
"40 0 LINE"
);
}
);
width = 591;
},
{
anchors = (
{
name = bottom;
position = "{311, 0}";
},
{
name = top;
position = "{404, 525}";
}
);
guideLines = (
{
position = "{498, 504}";
},
{
position = "{498, 542}";
},
{
angle = 90;
position = "{316, 397}";
},
{
position = "{486, 407}";
},
{
angle = 90;
position = "{540, 412}";
},
{
angle = 90;
position = "{455, 460}";
},
{
angle = 90;
position = "{177, 335}";
},
{
angle = 90;
position = "{316, 398}";
},
{
position = "{516, 416}";
}
);
layerId = "B45F0BEB-E489-4392-AE53-309DD1ADE040";
paths = (
{
closed = 1;
nodes = (
"126 0 LINE",
"180 306 LINE SMOOTH",
"201 426 OFFCURVE",
"296 503 OFFCURVE",
"408 503 CURVE SMOOTH",
"508 503 OFFCURVE",
"584 443 OFFCURVE",
"560 306 CURVE SMOOTH",
"506 0 LINE",
"540 0 LINE",
"594 306 LINE SMOOTH",
"618 442 OFFCURVE",
"556 542 OFFCURVE",
"424 542 CURVE SMOOTH",
"276 542 OFFCURVE",
"207 417 OFFCURVE",
"207 417 CURVE SMOOTH",
"200 417 LINE",
"219 525 LINE",
"185 525 LINE",
"92 0 LINE"
);
}
);
width = 622;
}
);
leftKerningGroup = h;
rightKerningGroup = n;
unicode = 006E;
},
{
glyphname = o;
lastChange = "2019-07-21 01:51:25 +0000";
layers = (
{
anchors = (
{
name = bottom;
position = "{289, 0}";
},
{
name = center;
position = "{331, 265}";
},
{
name = ogonek;
position = "{522, 10}";
},
{
name = top;
position = "{373, 530}";
},
{
name = topright;
position = "{642, 530}";
}
);
guideLines = (
{
angle = 90;
position = "{30, -36}";
},
{
position = "{379, 141}";
},
{
angle = 90;
position = "{216, 48}";
},
{
position = "{91, 99}";
},
{
position = "{96, 389}";
},
{
position = "{638, 540}";
},
{
position = "{509, -10}";
}
);
layerId = "D085834A-C5B8-45AD-B7CB-7C394966C9BB";
paths = (
{
closed = 1;
nodes = (
"466 -10 OFFCURVE",
"595 131 OFFCURVE",
"595 325 CURVE SMOOTH",
"595 446 OFFCURVE",
"529 540 OFFCURVE",
"375 540 CURVE SMOOTH",
"196 540 OFFCURVE",
"67 400 OFFCURVE",
"67 204 CURVE SMOOTH",
"67 83 OFFCURVE",
"133 -10 OFFCURVE",
"288 -10 CURVE SMOOTH"
);
},
{
closed = 1;
nodes = (
"268 141 OFFCURVE",
"254 176 OFFCURVE",
"254 220 CURVE SMOOTH",
"254 319 OFFCURVE",
"295 389 OFFCURVE",
"351 389 CURVE SMOOTH",
"395 389 OFFCURVE",
"409 356 OFFCURVE",
"409 314 CURVE SMOOTH",
"409 214 OFFCURVE",
"368 141 OFFCURVE",
"311 141 CURVE SMOOTH"
);
}
);
width = 578;
},
{
anchors = (
{
name = bottom;
position = "{283, 0}";
},
{
name = center;
position = "{329, 263}";
},
{
name = ogonek;
position = "{527, 10}";
},
{
name = top;
position = "{375, 525}";
},
{
name = topright;
position = "{529, 525}";
}
);
guideLines = (
{
position = "{-126, -5}";
},
{
angle = 90;
position = "{43, 97}";
},
{
position = "{466, 507}";
},
{
position = "{466, 542}";
}
);
layerId = "B45F0BEB-E489-4392-AE53-309DD1ADE040";
paths = (
{
closed = 1;
nodes = (
"439 -5 OFFCURVE",
"575 148 OFFCURVE",
"575 326 CURVE SMOOTH",
"575 437 OFFCURVE",
"516 541 OFFCURVE",
"378 541 CURVE SMOOTH",
"221 541 OFFCURVE",
"85 388 OFFCURVE",
"85 210 CURVE SMOOTH",
"85 100 OFFCURVE",
"144 -5 OFFCURVE",
"282 -5 CURVE"
);
},
{
closed = 1;
nodes = (
"181 30 OFFCURVE",
"121 107 OFFCURVE",
"121 213 CURVE SMOOTH",
"121 373 OFFCURVE",
"236 507 OFFCURVE",
"372 507 CURVE SMOOTH",
"478 507 OFFCURVE",
"539 430 OFFCURVE",
"539 323 CURVE SMOOTH",
"539 165 OFFCURVE",
"424 30 OFFCURVE",
"288 30 CURVE SMOOTH"
);
}
);
width = 585;
}
);
leftKerningGroup = o;
rightKerningGroup = o;
unicode = 006F;
},
{
glyphname = oslash;
lastChange = "2019-07-18 14:24:21 +0000";
layers = (
{
components = (
{
name = o;
transform = "{1, 0, 0, 1, 0, 1}";
}
);
guideLines = (
{
position = "{-107, -5}";
},
{
position = "{485, 542}";
}
);
layerId = "B45F0BEB-E489-4392-AE53-309DD1ADE040";
paths = (
{
closed = 1;
nodes = (
"140 -46 LINE",
"597 590 LINE",
"560 590 LINE",
"103 -46 LINE"
);
}
);
width = 604;
},
{
components = (
{
name = o;
}
);
layerId = "D085834A-C5B8-45AD-B7CB-7C394966C9BB";
paths = (
{
closed = 1;
nodes = (
"173 -31 LINE",
"618 573 LINE",
"491 573 LINE",
"46 -31 LINE"
);
}
);
width = 578;
}
);
unicode = 00F8;
},
{
glyphname = oe;
lastChange = "2019-07-18 14:24:21 +0000";
layers = (
{
guideLines = (
{
position = "{-45, -5}";
},
{
position = "{683, 507}";
},
{
angle = 90;
position = "{520, -51}";
},
{
angle = 90;
position = "{542, -75}";
},
{
angle = 90;
position = "{504, -60}";
},
{
angle = 90;
position = "{504, -60}";
},
{
angle = 90;
position = "{526, -84}";
}
);
layerId = "B45F0BEB-E489-4392-AE53-309DD1ADE040";
paths = (
{
closed = 1;
nodes = (
"420 -5 OFFCURVE",
"505 78 OFFCURVE",
"549 160 CURVE SMOOTH",
"549 160 OFFCURVE",
"555 160 OFFCURVE",
"555 160 CURVE",
"571 72 OFFCURVE",
"625 -5 OFFCURVE",
"745 -5 CURVE SMOOTH",
"865 -5 OFFCURVE",
"949 74 OFFCURVE",
"989 154 CURVE",
"954 154 LINE",
"911 78 OFFCURVE",
"835 29 OFFCURVE",
"751 29 CURVE SMOOTH",
"640 29 OFFCURVE",
"572 130 OFFCURVE",
"589 250 CURVE SMOOTH",
"590 257 LINE",
"1016 257 LINE",
"1018 267 LINE SMOOTH",
"1054 446 OFFCURVE",
"974 542 OFFCURVE",
"841 542 CURVE SMOOTH",
"724 542 OFFCURVE",
"640 464 OFFCURVE",
"593 375 CURVE",
"587 375 LINE",
"571 467 OFFCURVE",
"509 541 OFFCURVE",
"395 541 CURVE SMOOTH",
"239 541 OFFCURVE",
"104 387 OFFCURVE",
"104 210 CURVE SMOOTH",
"104 98 OFFCURVE",
"163 -5 OFFCURVE",
"299 -5 CURVE SMOOTH"
);
},
{
closed = 1;
nodes = (
"203 30 OFFCURVE",
"140 102 OFFCURVE",
"140 212 CURVE SMOOTH",
"140 370 OFFCURVE",
"254 507 OFFCURVE",
"385 507 CURVE SMOOTH",
"487 507 OFFCURVE",
"555 429 OFFCURVE",
"555 318 CURVE SMOOTH",
"555 161 OFFCURVE",
"437 28 OFFCURVE",
"301 29 CURVE SMOOTH"
);
},
{
closed = 1;
nodes = (
"626 414 OFFCURVE",
"720 507 OFFCURVE",
"835 507 CURVE SMOOTH",
"930 507 OFFCURVE",
"1006 455 OFFCURVE",
"985 289 CURVE",
"596 289 LINE"
);
}
);
width = 1033;
},
{
guideLines = (
{
angle = 90;
position = "{554, 285}";
},
{
position = "{569, -10}";
},
{
angle = 90;
position = "{285, 215}";
},
{
position = "{420, 475}";
},
{
position = "{420, 386}";
}
);
layerId = "D085834A-C5B8-45AD-B7CB-7C394966C9BB";
paths = (
{
closed = 1;
nodes = (
"358 -13 OFFCURVE",
"425 15 OFFCURVE",
"459 50 CURVE",
"459 50 OFFCURVE",
"467 50 OFFCURVE",
"467 50 CURVE",
"491 18 OFFCURVE",
"546 -10 OFFCURVE",
"623 -10 CURVE SMOOTH",
"756 -10 OFFCURVE",
"856 73 OFFCURVE",
"896 176 CURVE",
"715 176 LINE",
"703 155 OFFCURVE",
"678 138 OFFCURVE",
"645 138 CURVE SMOOTH",
"602 138 OFFCURVE",
"581 167 OFFCURVE",
"586 204 CURVE SMOOTH",
"587 212 LINE",
"905 212 LINE",
"913 264 LINE SMOOTH",
"941 448 OFFCURVE",
"855 540 OFFCURVE",
"712 540 CURVE SMOOTH",
"630 540 OFFCURVE",
"567 509 OFFCURVE",
"535 475 CURVE",
"527 475 LINE",
"501 509 OFFCURVE",
"446 537 OFFCURVE",
"367 537 CURVE SMOOTH",
"195 537 OFFCURVE",
"66 394 OFFCURVE",
"66 202 CURVE SMOOTH",
"66 81 OFFCURVE",
"132 -13 OFFCURVE",
"278 -13 CURVE SMOOTH"
);
},
{
closed = 1;
nodes = (
"262 138 OFFCURVE",
"248 174 OFFCURVE",
"248 217 CURVE SMOOTH",
"248 315 OFFCURVE",
"289 386 OFFCURVE",
"346 386 CURVE SMOOTH",
"389 386 OFFCURVE",
"403 354 OFFCURVE",
"403 312 CURVE SMOOTH",
"403 212 OFFCURVE",
"362 138 OFFCURVE",
"306 138 CURVE SMOOTH"
);
},
{
closed = 1;
nodes = (
"614 383 OFFCURVE",
"648 406 OFFCURVE",
"688 406 CURVE SMOOTH",
"729 406 OFFCURVE",
"756 382 OFFCURVE",
"748 331 CURVE",
"606 331 LINE"
);
}
);
width = 902;
}
);
unicode = 0153;
},
{
glyphname = p;
lastChange = "2019-07-21 01:55:59 +0000";
layers = (
{
guideLines = (
{
position = "{453, 542}";
},
{
position = "{596, -228}";
},
{
position = "{427, 137}";
},
{
position = "{569, -212}";
}
);
layerId = "D085834A-C5B8-45AD-B7CB-7C394966C9BB";
paths = (
{
closed = 1;
nodes = (
"523 -10 OFFCURVE",
"627 142 OFFCURVE",
"627 346 CURVE SMOOTH",
"627 468 OFFCURVE",
"573 540 OFFCURVE",
"467 540 CURVE SMOOTH",
"365 540 OFFCURVE",
"318 472 OFFCURVE",
"313 462 CURVE",
"305 462 LINE",
"316 530 LINE",
"124 530 LINE",
"6 -212 LINE",
"198 -212 LINE",
"243 74 LINE",
"251 74 LINE",
"255 63 OFFCURVE",
"277 -10 OFFCURVE",
"380 -10 CURVE SMOOTH"
);
},
{
closed = 1;
nodes = (
"282 138 OFFCURVE",
"268 182 OFFCURVE",
"268 225 CURVE SMOOTH",
"268 315 OFFCURVE",
"312 387 OFFCURVE",
"369 387 CURVE SMOOTH",
"417 387 OFFCURVE",
"431 346 OFFCURVE",
"431 303 CURVE SMOOTH",
"431 210 OFFCURVE",
"386 138 OFFCURVE",
"329 138 CURVE SMOOTH"
);
}
);
width = 608;
},
{
guideLines = (
{
position = "{-10, 484}";
},
{
position = "{-1, 544}";
},
{
position = "{488, 407}";
},
{
position = "{488, 542}";
},
{
position = "{540, -225}";
},
{
position = "{538, -199}";
}
);
layerId = "B45F0BEB-E489-4392-AE53-309DD1ADE040";
paths = (
{
closed = 1;
nodes = (
"488 -5 OFFCURVE",
"618 147 OFFCURVE",
"618 332 CURVE SMOOTH",
"618 450 OFFCURVE",
"554 542 OFFCURVE",
"424 542 CURVE SMOOTH",
"319 542 OFFCURVE",
"248 478 OFFCURVE",
"205 413 CURVE",
"198 413 LINE",
"218 525 LINE",
"184 525 LINE",
"56 -199 LINE",
"90 -199 LINE",
"147 125 LINE",
"154 125 LINE",
"177 55 OFFCURVE",
"228 -5 OFFCURVE",
"331 -5 CURVE SMOOTH"
);
},
{
closed = 1;
nodes = (
"224 31 OFFCURVE",
"171 105 OFFCURVE",
"171 208 CURVE SMOOTH",
"171 375 OFFCURVE",
"279 506 OFFCURVE",
"418 506 CURVE SMOOTH",
"531 506 OFFCURVE",
"582 431 OFFCURVE",
"582 330 CURVE SMOOTH",
"582 161 OFFCURVE",
"474 31 OFFCURVE",
"335 31 CURVE SMOOTH"
);
}
);
width = 628;
}
);
leftKerningGroup = h;
rightKerningGroup = o;
rightMetricsKey = o;
unicode = 0070;
},
{
glyphname = thorn;
lastChange = "2019-07-18 14:24:21 +0000";
layers = (
{
layerId = "B45F0BEB-E489-4392-AE53-309DD1ADE040";
paths = (
{
closed = 1;
nodes = (
"488 -5 OFFCURVE",
"618 147 OFFCURVE",
"618 332 CURVE SMOOTH",
"618 450 OFFCURVE",
"554 542 OFFCURVE",
"423 542 CURVE SMOOTH",
"316 542 OFFCURVE",
"248 480 OFFCURVE",
"205 416 CURVE",
"198 416 LINE",
"257 750 LINE",
"223 750 LINE",
"51 -225 LINE",
"85 -225 LINE",
"146 122 LINE",
"153 122 LINE",
"176 52 OFFCURVE",
"228 -5 OFFCURVE",
"331 -5 CURVE SMOOTH"
);
},
{
closed = 1;
nodes = (
"223 31 OFFCURVE",
"170 106 OFFCURVE",
"170 208 CURVE SMOOTH",
"170 375 OFFCURVE",
"279 506 OFFCURVE",
"418 506 CURVE SMOOTH",
"531 506 OFFCURVE",
"582 430 OFFCURVE",
"582 330 CURVE SMOOTH",
"582 162 OFFCURVE",
"474 31 OFFCURVE",
"334 31 CURVE SMOOTH"
);
}
);
width = 623;
},
{
layerId = "D085834A-C5B8-45AD-B7CB-7C394966C9BB";
paths = (
{
closed = 1;
nodes = (
"523 -10 OFFCURVE",
"627 141 OFFCURVE",
"627 346 CURVE SMOOTH",
"627 468 OFFCURVE",
"573 540 OFFCURVE",
"467 540 CURVE SMOOTH",
"365 540 OFFCURVE",
"318 472 OFFCURVE",
"313 462 CURVE",
"305 462 LINE",
"351 751 LINE",
"159 751 LINE",
"0 -250 LINE",
"192 -250 LINE",
"243 74 LINE",
"251 74 LINE",
"255 63 OFFCURVE",
"277 -10 OFFCURVE",
"380 -10 CURVE SMOOTH"
);
},
{
closed = 1;
nodes = (
"282 138 OFFCURVE",
"268 182 OFFCURVE",
"268 225 CURVE SMOOTH",
"268 315 OFFCURVE",
"312 387 OFFCURVE",
"369 387 CURVE SMOOTH",
"417 387 OFFCURVE",
"431 346 OFFCURVE",
"431 303 CURVE SMOOTH",
"431 210 OFFCURVE",
"386 138 OFFCURVE",
"329 138 CURVE SMOOTH"
);
}
);
width = 619;
}
);
unicode = 00FE;
},
{
glyphname = q;
lastChange = "2019-07-21 01:56:02 +0000";
layers = (
{
guideLines = (
{
position = "{547, -258}";
},
{
position = "{547, -228}";
}
);
layerId = "D085834A-C5B8-45AD-B7CB-7C394966C9BB";
paths = (
{
closed = 1;
nodes = (
"329 -10 OFFCURVE",
"375 63 OFFCURVE",
"382 74 CURVE",
"390 74 LINE",
"344 -212 LINE",
"536 -212 LINE",
"654 530 LINE",
"462 530 LINE",
"451 462 LINE",
"443 462 LINE",
"441 472 OFFCURVE",
"416 540 OFFCURVE",
"313 540 CURVE SMOOTH",
"171 540 OFFCURVE",
"66 390 OFFCURVE",
"66 185 CURVE SMOOTH",
"66 64 OFFCURVE",
"120 -10 OFFCURVE",
"226 -10 CURVE SMOOTH"
);
},
{
closed = 1;
nodes = (
"276 138 OFFCURVE",
"262 180 OFFCURVE",
"262 223 CURVE SMOOTH",
"262 316 OFFCURVE",
"306 387 OFFCURVE",
"363 387 CURVE SMOOTH",
"411 387 OFFCURVE",
"425 344 OFFCURVE",
"425 302 CURVE SMOOTH",
"425 211 OFFCURVE",
"379 138 OFFCURVE",
"324 138 CURVE SMOOTH"
);
}
);
width = 610;
},
{
guideLines = (
{
position = "{-89, 544}";
}
);
layerId = "B45F0BEB-E489-4392-AE53-309DD1ADE040";
paths = (
{
closed = 1;
nodes = (
"379 -5 OFFCURVE",
"451 55 OFFCURVE",
"499 125 CURVE",
"506 125 LINE",
"448 -199 LINE",
"482 -199 LINE",
"610 525 LINE",
"576 525 LINE",
"556 413 LINE",
"549 413 LINE",
"529 478 OFFCURVE",
"481 542 OFFCURVE",
"376 542 CURVE SMOOTH",
"216 542 OFFCURVE",
"85 390 OFFCURVE",
"85 204 CURVE SMOOTH",
"85 87 OFFCURVE",
"148 -5 OFFCURVE",
"276 -5 CURVE SMOOTH"
);
},
{
closed = 1;
nodes = (
"173 31 OFFCURVE",
"121 106 OFFCURVE",
"121 207 CURVE SMOOTH",
"121 376 OFFCURVE",
"229 506 OFFCURVE",
"369 506 CURVE SMOOTH",
"480 506 OFFCURVE",
"532 431 OFFCURVE",
"532 329 CURVE SMOOTH",
"532 161 OFFCURVE",
"424 31 OFFCURVE",
"285 31 CURVE SMOOTH"
);
}
);
width = 609;
}
);
leftKerningGroup = o;
leftMetricsKey = o;
unicode = 0071;
},
{
glyphname = r;
lastChange = "2019-07-18 14:24:21 +0000";
layers = (
{
anchors = (
{
name = bottom;
position = "{211, 0}";
},
{
name = top;
position = "{324, 530}";
}
);
guideLines = (
{
angle = 90;
position = "{439, 476}";
}
);
layerId = "D085834A-C5B8-45AD-B7CB-7C394966C9BB";
paths = (
{
closed = 1;
nodes = (
"240 0 LINE",
"277 231 LINE SMOOTH",
"291 320 OFFCURVE",
"322 364 OFFCURVE",
"416 364 CURVE SMOOTH",
"439 364 OFFCURVE",
"450 362 OFFCURVE",
"465 357 CURVE",
"501 529 LINE",
"494 530 OFFCURVE",
"485 530 OFFCURVE",
"477 530 CURVE SMOOTH",
"354 530 OFFCURVE",
"319 446 OFFCURVE",
"319 446 CURVE SMOOTH",
"311 446 LINE",
"324 530 LINE",
"134 530 LINE",
"50 0 LINE"
);
}
);
width = 422;
},
{
anchors = (
{
name = bottom;
position = "{159, 0}";
},
{
name = top;
position = "{243, 525}";
}
);
layerId = "B45F0BEB-E489-4392-AE53-309DD1ADE040";
paths = (
{
closed = 1;
nodes = (
"115 0 LINE",
"173 331 LINE SMOOTH",
"194 451 OFFCURVE",
"267 485 OFFCURVE",
"329 485 CURVE SMOOTH",
"353 485 OFFCURVE",
"364 483 OFFCURVE",
"387 476 CURVE",
"394 515 LINE",
"376 522 OFFCURVE",
"366 525 OFFCURVE",
"337 525 CURVE SMOOTH",
"243 525 OFFCURVE",
"198 441 OFFCURVE",
"198 441 CURVE SMOOTH",
"193 441 LINE",
"208 525 LINE",
"175 525 LINE",
"82 0 LINE"
);
}
);
width = 318;
}
);
leftKerningGroup = r;
rightKerningGroup = r;
unicode = 0072;
},
{
glyphname = s;
lastChange = "2019-07-18 14:24:21 +0000";
layers = (
{
anchors = (
{
name = bottom;
position = "{299, -5}";
},
{
name = top;
position = "{342, 550}";
}
);
guideLines = (
{
angle = 90;
position = "{238, 277}";
},
{
position = "{634, 540}";
},
{
position = "{505, -10}";
},
{
position = "{127, 375}";
},
{
position = "{344, 171}";
},
{
angle = 90;
position = "{468, 215}";
},
{
angle = 167.4712;
position = "{271, 193}";
},
{
angle = 167.4712;
position = "{299, 334}";
}
);
layerId = "D085834A-C5B8-45AD-B7CB-7C394966C9BB";
paths = (
{
closed = 1;
nodes = (
"389 -10 OFFCURVE",
"495 77 OFFCURVE",
"495 192 CURVE SMOOTH",
"495 271 OFFCURVE",
"433 310 OFFCURVE",
"371 326 CURVE SMOOTH",
"317 340 LINE SMOOTH",
"294 346 OFFCURVE",
"266 351 OFFCURVE",
"266 373 CURVE SMOOTH",
"266 393 OFFCURVE",
"282 407 OFFCURVE",
"304 407 CURVE SMOOTH",
"330 407 OFFCURVE",
"336 389 OFFCURVE",
"336 373 CURVE SMOOTH",
"336 370 LINE",
"518 370 LINE",
"519 375 LINE",
"532 456 OFFCURVE",
"471 540 OFFCURVE",
"332 540 CURVE SMOOTH",
"197 540 OFFCURVE",
"99 460 OFFCURVE",
"99 346 CURVE SMOOTH",
"99 244 OFFCURVE",
"199 215 OFFCURVE",
"233 207 CURVE SMOOTH",
"283 195 LINE SMOOTH",
"300 191 OFFCURVE",
"318 183 OFFCURVE",
"318 166 CURVE SMOOTH",
"318 149 OFFCURVE",
"301 133 OFFCURVE",
"276 133 CURVE SMOOTH",
"247 133 OFFCURVE",
"238 151 OFFCURVE",
"240 167 CURVE SMOOTH",
"241 175 LINE",
"57 175 LINE",
"56 167 LINE SMOOTH",
"45 78 OFFCURVE",
"105 -10 OFFCURVE",
"249 -10 CURVE SMOOTH"
);
}
);
width = 492;
},
{
anchors = (
{
name = bottom;
position = "{265, -6}";
},
{
name = top;
position = "{344, 525}";
}
);
guideLines = (
{
position = "{520, 33}";
},
{
position = "{513, -5}";
},
{
position = "{481, 507}";
}
);
layerId = "B45F0BEB-E489-4392-AE53-309DD1ADE040";
paths = (
{
closed = 1;
nodes = (
"377 -5 OFFCURVE",
"474 74 OFFCURVE",
"474 173 CURVE SMOOTH",
"474 251 OFFCURVE",
"402 278 OFFCURVE",
"335 287 CURVE SMOOTH",
"252 298 LINE SMOOTH",
"206 304 OFFCURVE",
"175 334 OFFCURVE",
"175 377 CURVE SMOOTH",
"175 450 OFFCURVE",
"248 508 OFFCURVE",
"339 508 CURVE SMOOTH",
"453 508 OFFCURVE",
"467 423 OFFCURVE",
"467 381 CURVE SMOOTH",
"467 379 LINE",
"508 379 LINE",
"508 382 LINE SMOOTH",
"508 467 OFFCURVE",
"462 542 OFFCURVE",
"345 542 CURVE SMOOTH",
"226 542 OFFCURVE",
"137 467 OFFCURVE",
"137 368 CURVE SMOOTH",
"137 302 OFFCURVE",
"190 270 OFFCURVE",
"266 260 CURVE SMOOTH",
"342 250 LINE SMOOTH",
"388 244 OFFCURVE",
"435 219 OFFCURVE",
"435 165 CURVE SMOOTH",
"435 88 OFFCURVE",
"362 30 OFFCURVE",
"264 30 CURVE SMOOTH",
"152 30 OFFCURVE",
"119 106 OFFCURVE",
"119 170 CURVE SMOOTH",
"119 172 LINE",
"88 172 LINE",
"87 169 LINE SMOOTH",
"60 89 OFFCURVE",
"128 -5 OFFCURVE",
"256 -5 CURVE SMOOTH"
);
}
);
width = 498;
}
);
leftKerningGroup = s;
rightKerningGroup = s;
unicode = 0073;
},
{
glyphname = germandbls;
lastChange = "2019-07-18 14:24:21 +0000";
layers = (
{
layerId = "B45F0BEB-E489-4392-AE53-309DD1ADE040";
paths = (
{
closed = 1;
nodes = (
"476 681 OFFCURVE",
"528 643 OFFCURVE",
"528 568 CURVE SMOOTH",
"528 457 OFFCURVE",
"446 384 OFFCURVE",
"323 384 CURVE SMOOTH",
"260 384 LINE",
"255 352 LINE",
"318 352 LINE SMOOTH",
"408 352 OFFCURVE",
"487 318 OFFCURVE",
"487 225 CURVE SMOOTH",
"487 109 OFFCURVE",
"398 26 OFFCURVE",
"274 26 CURVE SMOOTH",
"253 26 OFFCURVE",
"233 28 OFFCURVE",
"220 30 CURVE",
"214 -2 LINE",
"227 -5 OFFCURVE",
"248 -7 OFFCURVE",
"268 -7 CURVE SMOOTH",
"413 -7 OFFCURVE",
"520 94 OFFCURVE",
"520 229 CURVE SMOOTH",
"520 344 OFFCURVE",
"415 366 OFFCURVE",
"407 366 CURVE",
"408 371 LINE",
"422 371 OFFCURVE",
"562 422 OFFCURVE",
"562 577 CURVE SMOOTH",
"562 655 OFFCURVE",
"513 715 OFFCURVE",
"403 715 CURVE SMOOTH",
"218 715 OFFCURVE",
"188 547 OFFCURVE",
"178 491 CURVE SMOOTH",
"91 -4 LINE",
"125 -4 LINE",
"212 491 LINE SMOOTH",
"221 543 OFFCURVE",
"245 681 OFFCURVE",
"397 681 CURVE SMOOTH"
);
}
);
width = 543;
},
{
guideLines = (
{
position = "{341, 571}";
},
{
position = "{341, 719}";
}
);
layerId = "D085834A-C5B8-45AD-B7CB-7C394966C9BB";
paths = (
{
closed = 1;
nodes = (
"442 571 OFFCURVE",
"471 557 OFFCURVE",
"471 520 CURVE SMOOTH",
"471 475 OFFCURVE",
"442 448 OFFCURVE",
"392 448 CURVE SMOOTH",
"339 448 LINE",
"317 312 LINE",
"364 312 LINE SMOOTH",
"380 312 OFFCURVE",
"446 312 OFFCURVE",
"446 250 CURVE SMOOTH",
"446 187 OFFCURVE",
"399 147 OFFCURVE",
"326 147 CURVE SMOOTH",
"309 147 OFFCURVE",
"298 149 OFFCURVE",
"292 151 CURVE",
"267 -4 LINE",
"272 -5 OFFCURVE",
"304 -11 OFFCURVE",
"338 -11 CURVE SMOOTH",
"487 -11 OFFCURVE",
"614 104 OFFCURVE",
"614 238 CURVE SMOOTH",
"614 340 OFFCURVE",
"528 372 OFFCURVE",
"528 372 CURVE",
"529 379 LINE",
"529 379 OFFCURVE",
"648 409 OFFCURVE",
"648 542 CURVE SMOOTH",
"648 622 OFFCURVE",
"599 719 OFFCURVE",
"411 719 CURVE SMOOTH",
"243 719 OFFCURVE",
"141 642 OFFCURVE",
"115 476 CURVE SMOOTH",
"40 0 LINE",
"229 0 LINE",
"307 495 LINE SMOOTH",
"310 515 OFFCURVE",
"320 571 OFFCURVE",
"401 571 CURVE SMOOTH"
);
}
);
width = 621;
}
);
unicode = 00DF;
},
{
glyphname = t;
lastChange = "2019-07-21 01:47:47 +0000";
layers = (
{
anchors = (
{
name = bottom;
position = "{292, 0}";
},
{
name = center;
position = "{267, 265}";
},
{
name = top;
position = "{309, 530}";
},
{
name = topright;
position = "{513, 530}";
}
);
guideLines = (
{
angle = 90;
position = "{141, 510}";
},
{
angle = 90;
position = "{4, 152}";
},
{
position = "{166, 135}";
},
{
angle = 90;
position = "{292, 493}";
},
{
angle = 270;
position = "{102, 493}";
}
);
layerId = "D085834A-C5B8-45AD-B7CB-7C394966C9BB";
paths = (
{
closed = 1;
nodes = (
"344 -3 OFFCURVE",
"405 4 OFFCURVE",
"405 4 CURVE",
"426 134 LINE",
"416 133 OFFCURVE",
"404 132 OFFCURVE",
"392 132 CURVE SMOOTH",
"314 132 OFFCURVE",
"320 165 OFFCURVE",
"328 218 CURVE SMOOTH",
"404 700 LINE",
"214 700 LINE",
"131 177 LINE SMOOTH",
"118 97 OFFCURVE",
"103 -3 OFFCURVE",
"294 -3 CURVE SMOOTH"
);
},
{
closed = 1;
nodes = (
"465 383 LINE",
"488 530 LINE",
"109 530 LINE",
"86 383 LINE"
);
}
);
width = 449;
},
{
anchors = (
{
name = bottom;
position = "{225, -6}";
},
{
name = center;
position = "{229, 263}";
},
{
name = top;
position = "{275, 525}";
},
{
name = topright;
position = "{437, 525}";
}
);
guideLines = (
{
angle = 180;
position = "{311, 525}";
},
{
angle = 90;
position = "{310, 485}";
},
{
angle = 180;
position = "{337, 34}";
},
{
position = "{572, -5}";
}
);
layerId = "B45F0BEB-E489-4392-AE53-309DD1ADE040";
paths = (
{
closed = 1;
nodes = (
"272 -5 OFFCURVE",
"296 0 OFFCURVE",
"311 5 CURVE",
"316 33 LINE",
"301 29 OFFCURVE",
"276 24 OFFCURVE",
"252 24 CURVE SMOOTH",
"181 24 OFFCURVE",
"188 54 OFFCURVE",
"199 119 CURVE SMOOTH",
"301 700 LINE",
"267 700 LINE",
"162 111 LINE SMOOTH",
"148 31 OFFCURVE",
"157 -5 OFFCURVE",
"245 -5 CURVE SMOOTH"
);
},
{
closed = 1;
nodes = (
"397 495 LINE",
"402 525 LINE",
"127 525 LINE",
"122 495 LINE"
);
}
);
width = 382;
}
);
leftKerningGroup = t;
rightKerningGroup = t;
unicode = 0074;
},
{
glyphname = tbar;
lastChange = "2019-07-18 14:24:21 +0000";
layers = (
{
layerId = "B45F0BEB-E489-4392-AE53-309DD1ADE040";
paths = (
{
closed = 1;
nodes = (
"273 -5 OFFCURVE",
"297 0 OFFCURVE",
"312 5 CURVE",
"317 33 LINE",
"302 29 OFFCURVE",
"277 24 OFFCURVE",
"253 24 CURVE SMOOTH",
"182 24 OFFCURVE",
"190 64 OFFCURVE",
"201 127 CURVE SMOOTH",
"302 700 LINE",
"268 700 LINE",
"166 127 LINE SMOOTH",
"152 47 OFFCURVE",
"152 -5 OFFCURVE",
"246 -5 CURVE SMOOTH"
);
},
{
closed = 1;
nodes = (
"363 296 LINE",
"368 322 LINE",
"93 322 LINE",
"88 296 LINE"
);
},
{
closed = 1;
nodes = (
"398 495 LINE",
"403 525 LINE",
"128 525 LINE",
"123 495 LINE"
);
}
);
width = 365;
},
{
layerId = "D085834A-C5B8-45AD-B7CB-7C394966C9BB";
paths = (
{
closed = 1;
nodes = (
"344 -3 OFFCURVE",
"405 4 OFFCURVE",
"405 4 CURVE",
"425 134 LINE",
"416 133 OFFCURVE",
"404 132 OFFCURVE",
"392 132 CURVE SMOOTH",
"314 132 OFFCURVE",
"320 165 OFFCURVE",
"328 218 CURVE SMOOTH",
"404 700 LINE",
"214 700 LINE",
"131 177 LINE SMOOTH",
"118 97 OFFCURVE",
"104 -3 OFFCURVE",
"294 -3 CURVE SMOOTH"
);
},
{
closed = 1;
nodes = (
"441 232 LINE",
"457 332 LINE",
"78 332 LINE",
"62 232 LINE"
);
},
{
closed = 1;
nodes = (
"465 383 LINE",
"488 530 LINE",
"109 530 LINE",
"86 383 LINE"
);
}
);
width = 449;
}
);
unicode = 0167;
},
{
glyphname = u;
lastChange = "2019-07-21 01:56:35 +0000";
layers = (
{
anchors = (
{
name = bottom;
position = "{291, 0}";
},
{
name = ogonek;
position = "{589, 51}";
},
{
name = top;
position = "{371, 530}";
},
{
name = topright;
position = "{597, 323}";
}
);
guideLines = (
{
position = "{364, 223}";
},
{
angle = 90;
position = "{44, -61}";
},
{
angle = 90;
position = "{182, 53}";
},
{
position = "{299, 74}";
},
{
position = "{498, -10}";
}
);
layerId = "D085834A-C5B8-45AD-B7CB-7C394966C9BB";
paths = (
{
closed = 1;
nodes = (
"433 530 LINE",
"385 230 LINE SMOOTH",
"379 191 OFFCURVE",
"365 143 OFFCURVE",
"312 143 CURVE SMOOTH",
"260 143 OFFCURVE",
"259 188 OFFCURVE",
"266 230 CURVE SMOOTH",
"314 530 LINE",
"124 530 LINE",
"71 196 LINE SMOOTH",
"62 140 OFFCURVE",
"45 -10 OFFCURVE",
"209 -10 CURVE SMOOTH",
"307 -10 OFFCURVE",
"353 68 OFFCURVE",
"353 68 CURVE",
"360 68 LINE",
"349 0 LINE",
"541 0 LINE",
"625 530 LINE"
);
}
);
width = 581;
},
{
anchors = (
{
name = bottom;
position = "{286, 0}";
},
{
name = ogonek;
position = "{544, 27}";
},
{
name = top;
position = "{379, 525}";
},
{
name = topright;
position = "{653, 525}";
}
);
guideLines = (
{
angle = 180;
position = "{330, -9}";
}
);
layerId = "B45F0BEB-E489-4392-AE53-309DD1ADE040";
paths = (
{
closed = 1;
nodes = (
"585 525 LINE",
"532 227 LINE SMOOTH",
"511 107 OFFCURVE",
"417 30 OFFCURVE",
"309 30 CURVE SMOOTH",
"215 30 OFFCURVE",
"137 88 OFFCURVE",
"162 227 CURVE SMOOTH",
"215 525 LINE",
"181 525 LINE",
"128 227 LINE SMOOTH",
"103 88 OFFCURVE",
"167 -9 OFFCURVE",
"293 -9 CURVE SMOOTH",
"437 -9 OFFCURVE",
"506 116 OFFCURVE",
"506 116 CURVE SMOOTH",
"512 116 LINE",
"492 0 LINE",
"526 0 LINE",
"619 525 LINE"
);
}
);
width = 612;
}
);
leftKerningGroup = u;
leftMetricsKey = n;
rightKerningGroup = u;
rightMetricsKey = n;
unicode = 0075;
},
{
glyphname = v;
lastChange = "2019-07-18 14:24:21 +0000";
layers = (
{
guideLines = (
{
position = "{357, 189}";
},
{
angle = -73.1385;
position = "{92, 259}";
},
{
angle = 73.1385;
position = "{472, 259}";
}
);
layerId = "D085834A-C5B8-45AD-B7CB-7C394966C9BB";
paths = (
{
closed = 1;
nodes = (
"393 0 LINE",
"638 530 LINE",
"460 530 LINE",
"315 190 LINE",
"308 190 LINE",
"268 530 LINE",
"90 530 LINE",
"166 0 LINE"
);
}
);
width = 560;
},
{
guideLines = (
{
angle = 90;
position = "{274, 15}";
},
{
position = "{447, 0}";
},
{
position = "{447, 41}";
},
{
angle = 68.5661;
position = "{401, 256}";
},
{
angle = -68.5661;
position = "{187, 256}";
},
{
angle = -68.5661;
position = "{148, 256}";
}
);
layerId = "B45F0BEB-E489-4392-AE53-309DD1ADE040";
paths = (
{
closed = 1;
nodes = (
"297 0 LINE",
"597 525 LINE",
"560 525 LINE",
"284 41 LINE",
"280 41 LINE",
"175 525 LINE",
"138 525 LINE",
"251 0 LINE"
);
}
);
width = 549;
}
);
leftKerningGroup = v;
rightKerningGroup = v;
unicode = 0076;
},
{
glyphname = w;
lastChange = "2019-07-18 14:24:21 +0000";
layers = (
{
anchors = (
{
name = bottom;
position = "{416, 0}";
},
{
name = top;
position = "{500, 530}";
}
);
guideLines = (
{
angle = 90;
position = "{416, 120}";
},
{
position = "{238, 136}";
},
{
angle = -76.3287;
position = "{247, 259}";
},
{
angle = -76.3287;
position = "{73, 259}";
},
{
angle = 76.7471;
position = "{757, 259}";
}
);
layerId = "D085834A-C5B8-45AD-B7CB-7C394966C9BB";
paths = (
{
closed = 1;
nodes = (
"361 0 LINE",
"452 250 LINE",
"460 250 LINE",
"471 0 LINE",
"696 0 LINE",
"905 530 LINE",
"730 530 LINE",
"620 205 LINE",
"613 205 LINE",
"581 530 LINE",
"415 530 LINE",
"285 205 LINE",
"278 205 LINE",
"266 530 LINE",
"91 530 LINE",
"136 0 LINE"
);
}
);
width = 828;
},
{
anchors = (
{
name = bottom;
position = "{406, 0}";
},
{
name = top;
position = "{499, 525}";
}
);
guideLines = (
{
position = "{453, 41}";
},
{
angle = 90;
position = "{406, 507}";
},
{
angle = -73.58;
position = "{162, 255}";
},
{
angle = -73.58;
position = "{126, 255}";
},
{
angle = 251.6712;
position = "{346, 282}";
},
{
angle = 251.6712;
position = "{310, 282}";
},
{
angle = 73.58;
position = "{687, 255}";
}
);
layerId = "B45F0BEB-E489-4392-AE53-309DD1ADE040";
paths = (
{
closed = 1;
nodes = (
"253 0 LINE",
"483 453 LINE",
"489 453 LINE",
"560 0 LINE",
"612 0 LINE",
"860 525 LINE",
"824 525 LINE",
"595 39 LINE",
"592 39 LINE",
"516 525 LINE",
"483 525 LINE",
"236 39 LINE",
"233 39 LINE",
"175 525 LINE",
"139 525 LINE",
"201 0 LINE"
);
}
);
width = 812;
}
);
leftKerningGroup = v;
rightKerningGroup = v;
unicode = 0077;
},
{
glyphname = x;
lastChange = "2019-07-18 14:24:21 +0000";
layers = (
{
guideLines = (
{
angle = 240.696;
position = "{96, 138}";
},
{
angle = 120.1578;
position = "{487, 138}";
},
{
angle = 60.0378;
position = "{487, 392}";
},
{
angle = -60.8882;
position = "{96, 392}";
}
);
layerId = "D085834A-C5B8-45AD-B7CB-7C394966C9BB";
paths = (
{
closed = 1;
nodes = (
"225 0 LINE",
"314 151 LINE",
"319 151 LINE",
"362 0 LINE",
"567 0 LINE",
"455 264 LINE",
"651 530 LINE",
"446 530 LINE",
"355 380 LINE",
"350 380 LINE",
"309 530 LINE",
"103 530 LINE",
"209 264 LINE",
"19 0 LINE"
);
}
);
width = 595;
},
{
guideLines = (
{
angle = -54.3314;
position = "{139, 388}";
},
{
angle = 54.946;
position = "{370, 388}";
},
{
angle = 234.8714;
position = "{139, 138}";
},
{
angle = 124.5181;
position = "{370, 138}";
}
);
layerId = "B45F0BEB-E489-4392-AE53-309DD1ADE040";
paths = (
{
closed = 1;
nodes = (
"86 0 LINE",
"297 243 LINE",
"299 243 LINE",
"422 0 LINE",
"465 0 LINE",
"330 264 LINE",
"559 525 LINE",
"516 525 LINE",
"305 280 LINE",
"303 280 LINE",
"177 525 LINE",
"134 525 LINE",
"275 264 LINE",
"42 0 LINE"
);
}
);
width = 535;
}
);
leftKerningGroup = x;
unicode = 0078;
},
{
glyphname = y;
lastChange = "2019-07-21 01:49:19 +0000";
layers = (
{
anchors = (
{
name = bottom;
position = "{349, 0}";
},
{
name = top;
position = "{319, 525}";
}
);
guideLines = (
{
angle = 66.412;
position = "{294, 149}";
},
{
angle = 247.1977;
position = "{154, -84}";
},
{
position = "{499, -199}";
},
{
angle = 90;
position = "{226, 247}";
},
{
angle = 90;
position = "{349, -200}";
},
{
angle = -67.5955;
position = "{108, 276}";
},
{
angle = 111.8678;
position = "{134, 301}";
},
{
angle = 246.8169;
position = "{325, 301}";
}
);
layerId = "B45F0BEB-E489-4392-AE53-309DD1ADE040";
paths = (
{
closed = 1;
nodes = (
"551 525 LINE",
"512 525 LINE",
"243 78 LINE",
"237 78 LINE",
"137 525 LINE",
"98 525 LINE",
"212 39 LINE",
"168 -36 LINE SMOOTH",
"126 -108 OFFCURVE",
"100 -152 OFFCURVE",
"33 -152 CURVE SMOOTH",
"19 -152 OFFCURVE",
"3 -150 OFFCURVE",
"-10 -147 CURVE",
"-15 -178 LINE",
"-3 -182 OFFCURVE",
"16 -184 OFFCURVE",
"31 -184 CURVE SMOOTH",
"116 -184 OFFCURVE",
"157 -118 OFFCURVE",
"186 -70 CURVE SMOOTH"
);
}
);
width = 461;
},
{
anchors = (
{
name = bottom;
position = "{481, 0}";
},
{
name = top;
position = "{372, 530}";
}
);
guideLines = (
{
angle = 70.1176;
position = "{422, 130}";
},
{
angle = 248.4861;
position = "{150, -122}";
},
{
angle = 90;
position = "{288, 349}";
},
{
angle = 90;
position = "{481, -175}";
},
{
angle = -70.7739;
position = "{107, 259}";
}
);
layerId = "D085834A-C5B8-45AD-B7CB-7C394966C9BB";
paths = (
{
closed = 1;
nodes = (
"650 530 LINE",
"459 530 LINE",
"324 208 LINE",
"318 208 LINE",
"287 530 LINE",
"96 530 LINE",
"196 -1 LINE",
"182 -27 LINE SMOOTH",
"158 -72 OFFCURVE",
"132 -104 OFFCURVE",
"64 -104 CURVE SMOOTH",
"54 -104 OFFCURVE",
"33 -103 OFFCURVE",
"23 -101 CURVE",
"2 -231 LINE",
"23 -235 OFFCURVE",
"44 -243 OFFCURVE",
"86 -243 CURVE SMOOTH",
"261 -243 OFFCURVE",
"320 -105 OFFCURVE",
"334 -78 CURVE SMOOTH"
);
}
);
width = 552;
}
);
leftKerningGroup = y;
unicode = 0079;
},
{
glyphname = z;
lastChange = "2019-07-18 14:24:21 +0000";
layers = (
{
anchors = (
{
name = bottom;
position = "{247, 0}";
},
{
name = center;
position = "{297, 265}";
},
{
name = top;
position = "{339, 530}";
}
);
layerId = "D085834A-C5B8-45AD-B7CB-7C394966C9BB";
paths = (
{
closed = 1;
nodes = (
"454 0 LINE",
"477 147 LINE",
"273 147 LINE",
"274 150 LINE",
"515 384 LINE",
"538 533 LINE",
"140 533 LINE",
"117 386 LINE",
"316 386 LINE",
"316 383 LINE",
"75 149 LINE",
"51 0 LINE"
);
}
);
width = 493;
},
{
anchors = (
{
name = bottom;
position = "{256, 0}";
},
{
name = center;
position = "{302, 263}";
},
{
name = top;
position = "{349, 525}";
}
);
layerId = "B45F0BEB-E489-4392-AE53-309DD1ADE040";
paths = (
{
closed = 1;
nodes = (
"455 0 LINE",
"461 34 LINE",
"103 34 LINE",
"103 36 LINE",
"542 495 LINE",
"548 525 LINE",
"168 525 LINE",
"162 491 LINE",
"497 491 LINE",
"496 489 LINE",
"57 30 LINE",
"52 0 LINE"
);
}
);
width = 502;
}
);
leftKerningGroup = z;
rightKerningGroup = z;
unicode = 007A;
},
{
glyphname = a.ss01;
lastChange = "2019-07-18 14:24:21 +0000";
layers = (
{
anchors = (
{
name = bottom;
position = "{292, 0}";
},
{
name = ogonek;
position = "{510, 10}";
},
{
name = top;
position = "{375, 530}";
}
);
guideLines = (
{
angle = 90;
position = "{684, 149}";
},
{
angle = 90;
position = "{287, 268}";
},
{
position = "{568, -10}";
},
{
position = "{437, 21}";
},
{
angle = 90;
position = "{544, 161}";
},
{
position = "{138, 400}";
},
{
position = "{437, 53}";
},
{
position = "{638, 540}";
},
{
position = "{636, 37}";
},
{
angle = 90;
position = "{35, 0}";
},
{
angle = 90;
position = "{218, -110}";
},
{
position = "{138, 400}";
},
{
position = "{324, 74}";
},
{
position = "{429, 211}";
},
{
position = "{429, 318}";
}
);
layerId = "D085834A-C5B8-45AD-B7CB-7C394966C9BB";
paths = (
{
closed = 1;
nodes = (
"267 -10 OFFCURVE",
"320 28 OFFCURVE",
"342 60 CURVE",
"350 60 LINE",
"341 0 LINE",
"526 0 LINE",
"580 345 LINE SMOOTH",
"592 421 OFFCURVE",
"577 540 OFFCURVE",
"371 540 CURVE SMOOTH",
"164 540 OFFCURVE",
"110 404 OFFCURVE",
"110 348 CURVE SMOOTH",
"110 345 LINE",
"284 345 LINE",
"284 348 LINE SMOOTH",
"284 381 OFFCURVE",
"309 400 OFFCURVE",
"346 400 CURVE SMOOTH",
"384 400 OFFCURVE",
"401 381 OFFCURVE",
"395 344 CURVE SMOOTH",
"391 318 LINE",
"309 318 LINE SMOOTH",
"154 318 OFFCURVE",
"55 238 OFFCURVE",
"55 114 CURVE SMOOTH",
"55 39 OFFCURVE",
"104 -10 OFFCURVE",
"191 -10 CURVE SMOOTH"
);
},
{
closed = 1;
nodes = (
"259 118 OFFCURVE",
"243 134 OFFCURVE",
"243 157 CURVE SMOOTH",
"243 190 OFFCURVE",
"270 211 OFFCURVE",
"315 211 CURVE SMOOTH",
"374 211 LINE",
"371 191 LINE SMOOTH",
"365 152 OFFCURVE",
"331 118 OFFCURVE",
"288 118 CURVE SMOOTH"
);
}
);
width = 566;
},
{
anchors = (
{
name = bottom;
position = "{280, 0}";
},
{
name = ogonek;
position = "{506, 10}";
},
{
name = top;
position = "{376, 542}";
}
);
guideLines = (
{
angle = 90;
position = "{444, -106}";
},
{
position = "{521, 33}";
},
{
position = "{324, 349}";
},
{
angle = 90;
position = "{416, 131}";
},
{
position = "{514, -5}";
},
{
position = "{484, 507}";
},
{
position = "{484, 542}";
},
{
position = "{512, 256}";
},
{
position = "{512, 289}";
},
{
angle = 90;
position = "{204, -119}";
},
{
angle = 90;
position = "{278, -106}";
},
{
angle = 90;
position = "{96, -151}";
}
);
layerId = "B45F0BEB-E489-4392-AE53-309DD1ADE040";
paths = (
{
closed = 1;
nodes = (
"381 -5 OFFCURVE",
"446 92 OFFCURVE",
"453 103 CURVE",
"461 103 LINE",
"443 0 LINE",
"478 0 LINE",
"539 349 LINE SMOOTH",
"560 469 OFFCURVE",
"495 542 OFFCURVE",
"371 542 CURVE SMOOTH",
"275 542 OFFCURVE",
"151 498 OFFCURVE",
"151 366 CURVE SMOOTH",
"151 364 LINE",
"181 364 LINE",
"181 366 LINE SMOOTH",
"181 447 OFFCURVE",
"251 509 OFFCURVE",
"365 509 CURVE SMOOTH",
"516 509 OFFCURVE",
"513 399 OFFCURVE",
"505 349 CURVE SMOOTH",
"495 289 LINE",
"295 289 LINE SMOOTH",
"158 289 OFFCURVE",
"79 228 OFFCURVE",
"79 123 CURVE SMOOTH",
"79 43 OFFCURVE",
"143 -5 OFFCURVE",
"242 -5 CURVE SMOOTH"
);
},
{
closed = 1;
nodes = (
"167 33 OFFCURVE",
"117 66 OFFCURVE",
"117 128 CURVE SMOOTH",
"117 248 OFFCURVE",
"230 256 OFFCURVE",
"289 256 CURVE SMOOTH",
"488 256 LINE",
"478 200 LINE SMOOTH",
"464 120 OFFCURVE",
"376 33 OFFCURVE",
"247 33 CURVE SMOOTH"
);
}
);
width = 560;
}
);
leftKerningGroup = a;
rightKerningGroup = a;
},
{
glyphname = ae.ss01;
lastChange = "2019-07-18 14:24:21 +0000";
layers = (
{
guideLines = (
{
angle = 90;
position = "{503, 51}";
},
{
angle = 90;
position = "{527, 51}";
},
{
position = "{513, 289}";
},
{
angle = 90;
position = "{438, -106}";
},
{
angle = 90;
position = "{468, -85}";
},
{
angle = 90;
position = "{97, -151}";
},
{
angle = 90;
position = "{205, -119}";
},
{
angle = 90;
position = "{279, -106}";
},
{
angle = 90;
position = "{464, -85}";
}
);
layerId = "B45F0BEB-E489-4392-AE53-309DD1ADE040";
paths = (
{
closed = 1;
nodes = (
"814 -5 OFFCURVE",
"901 94 OFFCURVE",
"928 189 CURVE",
"895 189 LINE",
"866 99 OFFCURVE",
"791 31 OFFCURVE",
"677 31 CURVE SMOOTH",
"555 31 OFFCURVE",
"497 123 OFFCURVE",
"516 234 CURVE SMOOTH",
"520 257 LINE",
"944 257 LINE",
"948 281 LINE SMOOTH",
"979 469 OFFCURVE",
"882 542 OFFCURVE",
"767 542 CURVE SMOOTH",
"633 542 OFFCURVE",
"516 439 OFFCURVE",
"493 310 CURVE SMOOTH",
"478 226 LINE SMOOTH",
"455 97 OFFCURVE",
"535 -5 OFFCURVE",
"671 -5 CURVE SMOOTH"
);
},
{
closed = 1;
nodes = (
"169 33 OFFCURVE",
"120 64 OFFCURVE",
"120 124 CURVE SMOOTH",
"120 256 OFFCURVE",
"268 257 OFFCURVE",
"324 257 CURVE SMOOTH",
"484 257 LINE",
"474 200 LINE SMOOTH",
"460 120 OFFCURVE",
"377 33 OFFCURVE",
"246 33 CURVE SMOOTH"
);
},
{
closed = 1;
nodes = (
"337 -5 OFFCURVE",
"446 47 OFFCURVE",
"501 166 CURVE",
"535 367 LINE",
"540 481 OFFCURVE",
"472 537 OFFCURVE",
"367 537 CURVE SMOOTH",
"266 537 OFFCURVE",
"174 483 OFFCURVE",
"137 386 CURVE",
"172 386 LINE",
"192 434 OFFCURVE",
"245 504 OFFCURVE",
"359 504 CURVE SMOOTH",
"511 504 OFFCURVE",
"507 381 OFFCURVE",
"500 342 CURVE SMOOTH",
"490 289 LINE",
"329 289 LINE SMOOTH",
"218 289 OFFCURVE",
"83 259 OFFCURVE",
"83 119 CURVE SMOOTH",
"83 41 OFFCURVE",
"146 -5 OFFCURVE",
"239 -5 CURVE SMOOTH"
);
},
{
closed = 1;
nodes = (
"527 302 LINE SMOOTH",
"545 417 OFFCURVE",
"639 506 OFFCURVE",
"761 506 CURVE SMOOTH",
"882 506 OFFCURVE",
"932 410 OFFCURVE",
"915 302 CURVE SMOOTH",
"913 289 LINE",
"525 289 LINE"
);
}
);
width = 971;
},
{
guideLines = (
{
angle = 90;
position = "{411, 225}";
},
{
position = "{492, 396}";
},
{
position = "{835, 540}";
},
{
position = "{797, 493}";
},
{
angle = 90;
position = "{403, 225}";
},
{
position = "{467, 211}";
},
{
position = "{467, 321}";
}
);
layerId = "D085834A-C5B8-45AD-B7CB-7C394966C9BB";
paths = (
{
closed = 1;
nodes = (
"733 -10 OFFCURVE",
"826 68 OFFCURVE",
"871 176 CURVE",
"685 176 LINE",
"669 147 OFFCURVE",
"643 137 OFFCURVE",
"617 137 CURVE SMOOTH",
"569 137 OFFCURVE",
"555 169 OFFCURVE",
"555 204 CURVE SMOOTH",
"555 212 LINE",
"878 212 LINE",
"886 264 LINE SMOOTH",
"914 448 OFFCURVE",
"828 540 OFFCURVE",
"680 540 CURVE SMOOTH",
"517 540 OFFCURVE",
"411 431 OFFCURVE",
"390 288 CURVE SMOOTH",
"383 240 LINE SMOOTH",
"362 96 OFFCURVE",
"432 -10 OFFCURVE",
"594 -10 CURVE SMOOTH"
);
},
{
closed = 1;
nodes = (
"260 118 OFFCURVE",
"243 134 OFFCURVE",
"243 157 CURVE SMOOTH",
"243 190 OFFCURVE",
"271 211 OFFCURVE",
"315 211 CURVE SMOOTH",
"374 211 LINE",
"371 191 LINE SMOOTH",
"365 152 OFFCURVE",
"331 118 OFFCURVE",
"289 118 CURVE SMOOTH"
);
},
{
closed = 1;
nodes = (
"326 -10 OFFCURVE",
"393 33 OFFCURVE",
"420 60 CURVE",
"567 337 LINE SMOOTH",
"601 401 OFFCURVE",
"578 540 OFFCURVE",
"372 540 CURVE SMOOTH",
"160 540 OFFCURVE",
"116 397 OFFCURVE",
"105 344 CURVE",
"281 344 LINE",
"291 388 OFFCURVE",
"328 396 OFFCURVE",
"350 396 CURVE SMOOTH",
"390 396 OFFCURVE",
"398 369 OFFCURVE",
"394 337 CURVE SMOOTH",
"392 321 LINE",
"323 321 LINE SMOOTH",
"155 321 OFFCURVE",
"57 248 OFFCURVE",
"57 126 CURVE SMOOTH",
"57 36 OFFCURVE",
"130 -10 OFFCURVE",
"229 -10 CURVE SMOOTH"
);
},
{
closed = 1;
nodes = (
"578 330 LINE SMOOTH",
"583 376 OFFCURVE",
"620 396 OFFCURVE",
"657 396 CURVE SMOOTH",
"694 396 OFFCURVE",
"721 375 OFFCURVE",
"716 330 CURVE SMOOTH",
"715 321 LINE",
"577 321 LINE"
);
}
);
width = 875;
}
);
},
{
glyphname = b.ss01;
lastChange = "2019-07-18 14:28:12 +0000";
layers = (
{
anchors = (
{
name = bottom;
position = "{312, 0}";
},
{
name = center;
position = "{357, 263}";
},
{
name = top;
position = "{682, 1050}";
},
{
name = topleft;
position = "{113, 525}";
}
);
layerId = "B45F0BEB-E489-4392-AE53-309DD1ADE040";
paths = (
{
closed = 1;
nodes = (
"466 -5 OFFCURVE",
"582 97 OFFCURVE",
"605 226 CURVE SMOOTH",
"620 310 LINE SMOOTH",
"643 439 OFFCURVE",
"562 542 OFFCURVE",
"424 542 CURVE SMOOTH",
"318 542 OFFCURVE",
"249 481 OFFCURVE",
"205 416 CURVE",
"198 416 LINE",
"257 750 LINE",
"223 750 LINE",
"91 0 LINE",
"125 0 LINE",
"147 122 LINE",
"154 122 LINE",
"176 52 OFFCURVE",
"229 -5 OFFCURVE",
"331 -5 CURVE SMOOTH"
);
},
{
closed = 1;
nodes = (
"216 31 OFFCURVE",
"149 115 OFFCURVE",
"169 226 CURVE SMOOTH",
"184 310 LINE SMOOTH",
"204 421 OFFCURVE",
"299 506 OFFCURVE",
"418 506 CURVE SMOOTH",
"538 506 OFFCURVE",
"604 421 OFFCURVE",
"584 310 CURVE SMOOTH",
"569 226 LINE SMOOTH",
"549 115 OFFCURVE",
"453 31 OFFCURVE",
"334 31 CURVE SMOOTH"
);
}
);
width = 623;
},
{
anchors = (
{
name = bottom;
position = "{300, 0}";
},
{
name = center;
position = "{352, 265}";
},
{
name = top;
position = "{632, 1050}";
},
{
name = topleft;
position = "{114, 530}";
}
);
layerId = "D085834A-C5B8-45AD-B7CB-7C394966C9BB";
paths = (
{
closed = 1;
nodes = (
"494 -10 OFFCURVE",
"593 79 OFFCURVE",
"614 213 CURVE SMOOTH",
"630 315 LINE SMOOTH",
"652 453 OFFCURVE",
"577 540 OFFCURVE",
"467 540 CURVE SMOOTH",
"365 540 OFFCURVE",
"319 472 OFFCURVE",
"313 462 CURVE",
"305 462 LINE",
"351 750 LINE",
"159 750 LINE",
"40 0 LINE",
"232 0 LINE",
"244 74 LINE",
"252 74 LINE",
"255 63 OFFCURVE",
"278 -10 OFFCURVE",
"381 -10 CURVE SMOOTH"
);
},
{
closed = 1;
nodes = (
"277 140 OFFCURVE",
"256 181 OFFCURVE",
"266 240 CURVE SMOOTH",
"274 288 LINE SMOOTH",
"284 347 OFFCURVE",
"316 389 OFFCURVE",
"370 389 CURVE SMOOTH",
"423 389 OFFCURVE",
"444 347 OFFCURVE",
"434 288 CURVE SMOOTH",
"426 240 LINE SMOOTH",
"416 181 OFFCURVE",
"384 140 OFFCURVE",
"330 140 CURVE SMOOTH"
);
}
);
width = 610;
}
);
leftKerningGroup = h;
rightKerningGroup = o;
},
{
glyphname = c.ss01;
lastChange = "2019-07-18 14:24:21 +0000";
layers = (
{
anchors = (
{
name = bottom;
position = "{312, -5}";
},
{
name = top;
position = "{390, 525}";
}
);
guideLines = (
{
position = "{539, -5}";
},
{
angle = 90;
position = "{313, -58}";
}
);
layerId = "B45F0BEB-E489-4392-AE53-309DD1ADE040";
paths = (
{
closed = 1;
nodes = (
"437 -5 OFFCURVE",
"525 94 OFFCURVE",
"551 189 CURVE",
"518 189 LINE",
"490 99 OFFCURVE",
"415 31 OFFCURVE",
"303 31 CURVE SMOOTH",
"180 31 OFFCURVE",
"119 123 OFFCURVE",
"139 234 CURVE SMOOTH",
"151 302 LINE SMOOTH",
"171 413 OFFCURVE",
"261 506 OFFCURVE",
"386 506 CURVE SMOOTH",
"499 506 OFFCURVE",
"549 437 OFFCURVE",
"546 347 CURVE",
"579 347 LINE",
"586 442 OFFCURVE",
"534 542 OFFCURVE",
"393 542 CURVE SMOOTH",
"256 542 OFFCURVE",
"140 439 OFFCURVE",
"117 310 CURVE SMOOTH",
"102 226 LINE SMOOTH",
"79 97 OFFCURVE",
"159 -5 OFFCURVE",
"296 -5 CURVE SMOOTH"
);
}
);
width = 570;
},
{
anchors = (
{
name = bottom;
position = "{318, 0}";
},
{
name = top;
position = "{369, 530}";
}
);
guideLines = (
{
position = "{392, 140}";
}
);
layerId = "D085834A-C5B8-45AD-B7CB-7C394966C9BB";
paths = (
{
closed = 1;
nodes = (
"442 -10 OFFCURVE",
"538 90 OFFCURVE",
"570 212 CURVE",
"390 212 LINE",
"380 172 OFFCURVE",
"352 140 OFFCURVE",
"307 140 CURVE SMOOTH",
"257 140 OFFCURVE",
"238 181 OFFCURVE",
"248 240 CURVE SMOOTH",
"256 288 LINE SMOOTH",
"266 347 OFFCURVE",
"296 389 OFFCURVE",
"347 389 CURVE SMOOTH",
"394 389 OFFCURVE",
"409 356 OFFCURVE",
"406 318 CURVE",
"586 318 LINE",
"594 440 OFFCURVE",
"527 540 OFFCURVE",
"371 540 CURVE SMOOTH",
"203 540 OFFCURVE",
"99 428 OFFCURVE",
"76 288 CURVE SMOOTH",
"68 240 LINE SMOOTH",
"45 103 OFFCURVE",
"113 -10 OFFCURVE",
"283 -10 CURVE SMOOTH"
);
}
);
width = 566;
}
);
leftKerningGroup = o;
rightKerningGroup = o;
},
{
glyphname = d.ss01;
lastChange = "2019-07-18 14:28:12 +0000";
layers = (
{
anchors = (
{
name = bottom;
position = "{312, 0}";
},
{
name = center;
position = "{359, 263}";
},
{
name = top;
position = "{497, 1050}";
},
{
name = topright;
position = "{696, 525}";
}
);
layerId = "B45F0BEB-E489-4392-AE53-309DD1ADE040";
paths = (
{
closed = 1;
nodes = (
"394 -5 OFFCURVE",
"465 52 OFFCURVE",
"513 122 CURVE",
"520 122 LINE",
"498 0 LINE",
"532 0 LINE",
"664 750 LINE",
"630 750 LINE",
"572 416 LINE",
"565 416 LINE",
"544 481 OFFCURVE",
"496 542 OFFCURVE",
"391 542 CURVE SMOOTH",
"252 542 OFFCURVE",
"136 439 OFFCURVE",
"113 310 CURVE SMOOTH",
"98 226 LINE SMOOTH",
"75 97 OFFCURVE",
"156 -5 OFFCURVE",
"290 -5 CURVE SMOOTH"
);
},
{
closed = 1;
nodes = (
"180 31 OFFCURVE",
"114 115 OFFCURVE",
"134 226 CURVE SMOOTH",
"149 310 LINE SMOOTH",
"169 421 OFFCURVE",
"264 506 OFFCURVE",
"383 506 CURVE SMOOTH",
"503 506 OFFCURVE",
"569 421 OFFCURVE",
"549 310 CURVE SMOOTH",
"534 226 LINE SMOOTH",
"514 115 OFFCURVE",
"418 31 OFFCURVE",
"300 31 CURVE SMOOTH"
);
}
);
width = 623;
},
{
anchors = (
{
name = bottom;
position = "{300, 0}";
},
{
name = center;
position = "{342, 265}";
},
{
name = top;
position = "{467, 1050}";
},
{
name = topright;
position = "{664, 530}";
}
);
guideLines = (
{
position = "{436, -10}";
}
);
layerId = "D085834A-C5B8-45AD-B7CB-7C394966C9BB";
paths = (
{
closed = 1;
nodes = (
"329 -10 OFFCURVE",
"375 63 OFFCURVE",
"382 74 CURVE",
"390 74 LINE",
"378 0 LINE",
"570 0 LINE",
"689 750 LINE",
"497 750 LINE",
"451 462 LINE",
"443 462 LINE",
"441 472 OFFCURVE",
"416 540 OFFCURVE",
"315 540 CURVE SMOOTH",
"204 540 OFFCURVE",
"102 453 OFFCURVE",
"80 315 CURVE SMOOTH",
"64 213 LINE SMOOTH",
"43 79 OFFCURVE",
"114 -10 OFFCURVE",
"226 -10 CURVE SMOOTH"
);
},
{
closed = 1;
nodes = (
"271 140 OFFCURVE",
"250 181 OFFCURVE",
"260 240 CURVE SMOOTH",
"268 288 LINE SMOOTH",
"278 347 OFFCURVE",
"310 389 OFFCURVE",
"364 389 CURVE SMOOTH",
"417 389 OFFCURVE",
"438 347 OFFCURVE",
"428 288 CURVE SMOOTH",
"420 240 LINE SMOOTH",
"410 181 OFFCURVE",
"378 140 OFFCURVE",
"324 140 CURVE SMOOTH"
);
}
);
width = 610;
}
);
leftKerningGroup = o;
rightKerningGroup = I;
},
{
glyphname = eth.ss01;
lastChange = "2019-07-18 14:24:21 +0000";
layers = (
{
guideLines = (
{
position = "{509, 226}";
},
{
position = "{509, 310}";
},
{
position = "{429, -5}";
}
);
layerId = "B45F0BEB-E489-4392-AE53-309DD1ADE040";
paths = (
{
closed = 1;
nodes = (
"431 -5 OFFCURVE",
"548 97 OFFCURVE",
"571 226 CURVE SMOOTH",
"605 416 LINE SMOOTH",
"630 556 OFFCURVE",
"599 639 OFFCURVE",
"553 691 CURVE",
"645 739 LINE",
"635 764 LINE",
"532 710 LINE",
"475 759 OFFCURVE",
"405 765 OFFCURVE",
"386 765 CURVE",
"381 736 LINE",
"390 736 OFFCURVE",
"448 732 OFFCURVE",
"499 693 CURVE",
"400 641 LINE",
"411 616 LINE",
"521 674 LINE",
"565 629 OFFCURVE",
"585 551 OFFCURVE",
"585 419 CURVE SMOOTH",
"585 416 LINE",
"566 416 LINE",
"545 481 OFFCURVE",
"497 542 OFFCURVE",
"392 542 CURVE SMOOTH",
"253 542 OFFCURVE",
"137 439 OFFCURVE",
"114 310 CURVE SMOOTH",
"99 226 LINE SMOOTH",
"76 97 OFFCURVE",
"158 -5 OFFCURVE",
"294 -5 CURVE SMOOTH"
);
},
{
closed = 1;
nodes = (
"183 31 OFFCURVE",
"115 115 OFFCURVE",
"135 226 CURVE SMOOTH",
"150 310 LINE SMOOTH",
"170 421 OFFCURVE",
"265 506 OFFCURVE",
"384 506 CURVE SMOOTH",
"504 506 OFFCURVE",
"570 421 OFFCURVE",
"550 310 CURVE SMOOTH",
"535 226 LINE SMOOTH",
"515 115 OFFCURVE",
"418 31 OFFCURVE",
"301 31 CURVE SMOOTH"
);
}
);
width = 611;
},
{
guideLines = (
{
position = "{476, 240}";
},
{
position = "{466, -10}";
}
);
layerId = "D085834A-C5B8-45AD-B7CB-7C394966C9BB";
paths = (
{
closed = 1;
nodes = (
"487 -10 OFFCURVE",
"590 128 OFFCURVE",
"613 272 CURVE SMOOTH",
"648 492 LINE SMOOTH",
"663 586 OFFCURVE",
"648 653 OFFCURVE",
"619 701 CURVE",
"687 737 LINE",
"651 824 LINE",
"555 773 LINE",
"478 829 OFFCURVE",
"376 842 OFFCURVE",
"312 841 CURVE",
"289 700 LINE",
"319 701 OFFCURVE",
"352 695 OFFCURVE",
"381 681 CURVE",
"333 656 LINE",
"369 569 LINE",
"449 611 LINE",
"461 583 OFFCURVE",
"464 545 OFFCURVE",
"458 502 CURVE SMOOTH",
"452 462 LINE",
"444 462 LINE",
"441 472 OFFCURVE",
"417 540 OFFCURVE",
"315 540 CURVE SMOOTH",
"205 540 OFFCURVE",
"101 453 OFFCURVE",
"80 315 CURVE SMOOTH",
"69 244 LINE SMOOTH",
"48 110 OFFCURVE",
"115 -10 OFFCURVE",
"301 -10 CURVE SMOOTH"
);
},
{
closed = 1;
nodes = (
"271 140 OFFCURVE",
"250 181 OFFCURVE",
"260 240 CURVE SMOOTH",
"268 288 LINE SMOOTH",
"278 347 OFFCURVE",
"310 389 OFFCURVE",
"364 389 CURVE SMOOTH",
"417 389 OFFCURVE",
"438 347 OFFCURVE",
"428 288 CURVE SMOOTH",
"420 240 LINE SMOOTH",
"410 181 OFFCURVE",
"378 140 OFFCURVE",
"325 140 CURVE SMOOTH"
);
}
);
width = 626;
}
);
leftKerningGroup = o;
rightKerningGroup = dcroat;
},
{
glyphname = dcroat.ss01;
lastChange = "2019-07-18 14:24:21 +0000";
layers = (
{
components = (
{
name = d.ss01;
}
);
layerId = "B45F0BEB-E489-4392-AE53-309DD1ADE040";
paths = (
{
closed = 1;
nodes = (
"727 626 LINE",
"732 656 LINE",
"420 656 LINE",
"415 626 LINE"
);
}
);
width = 618;
},
{
components = (
{
name = d.ss01;
}
);
layerId = "D085834A-C5B8-45AD-B7CB-7C394966C9BB";
paths = (
{
closed = 1;
nodes = (
"711 571 LINE",
"730 691 LINE",
"415 691 LINE",
"396 571 LINE"
);
}
);
width = 631;
}
);
leftKerningGroup = o;
rightKerningGroup = dcroat;
},
{
glyphname = e.ss01;
lastChange = "2019-07-18 14:24:21 +0000";
layers = (
{
anchors = (
{
name = bottom;
position = "{295, 0}";
},
{
name = ogonek;
position = "{528, 10}";
},
{
name = top;
position = "{388, 525}";
}
);
guideLines = (
{
position = "{500, -5}";
},
{
angle = 90;
position = "{522, 136}";
},
{
angle = 90;
position = "{486, 136}";
},
{
angle = 90;
position = "{98, 77}";
},
{
angle = 90;
position = "{62, 77}";
}
);
layerId = "B45F0BEB-E489-4392-AE53-309DD1ADE040";
paths = (
{
closed = 1;
nodes = (
"438 -5 OFFCURVE",
"525 94 OFFCURVE",
"551 189 CURVE",
"518 189 LINE",
"490 99 OFFCURVE",
"415 31 OFFCURVE",
"301 31 CURVE SMOOTH",
"179 31 OFFCURVE",
"120 123 OFFCURVE",
"139 234 CURVE SMOOTH",
"143 257 LINE",
"567 257 LINE",
"571 281 LINE SMOOTH",
"602 467 OFFCURVE",
"507 542 OFFCURVE",
"391 542 CURVE SMOOTH",
"256 542 OFFCURVE",
"140 439 OFFCURVE",
"117 310 CURVE SMOOTH",
"102 226 LINE SMOOTH",
"79 97 OFFCURVE",
"160 -5 OFFCURVE",
"294 -5 CURVE SMOOTH"
);
},
{
closed = 1;
nodes = (
"151 302 LINE SMOOTH",
"168 412 OFFCURVE",
"258 506 OFFCURVE",
"384 506 CURVE SMOOTH",
"505 506 OFFCURVE",
"556 411 OFFCURVE",
"539 302 CURVE SMOOTH",
"537 289 LINE",
"149 289 LINE"
);
}
);
width = 584;
},
{
anchors = (
{
name = bottom;
position = "{281, 0}";
},
{
name = ogonek;
position = "{506, 10}";
},
{
name = top;
position = "{364, 530}";
}
);
guideLines = (
{
position = "{424, 176}";
},
{
position = "{252, 340}";
},
{
position = "{252, 331}";
},
{
position = "{392, 140}";
}
);
layerId = "D085834A-C5B8-45AD-B7CB-7C394966C9BB";
paths = (
{
closed = 1;
nodes = (
"416 -10 OFFCURVE",
"511 67 OFFCURVE",
"556 176 CURVE",
"370 176 LINE",
"354 147 OFFCURVE",
"329 137 OFFCURVE",
"302 137 CURVE SMOOTH",
"251 137 OFFCURVE",
"239 172 OFFCURVE",
"243 204 CURVE SMOOTH",
"244 212 LINE",
"564 212 LINE",
"572 264 LINE SMOOTH",
"600 448 OFFCURVE",
"513 540 OFFCURVE",
"366 540 CURVE SMOOTH",
"201 540 OFFCURVE",
"99 428 OFFCURVE",
"76 288 CURVE SMOOTH",
"68 240 LINE SMOOTH",
"45 102 OFFCURVE",
"112 -10 OFFCURVE",
"279 -10 CURVE SMOOTH"
);
},
{
closed = 1;
nodes = (
"265 340 LINE SMOOTH",
"275 385 OFFCURVE",
"306 406 OFFCURVE",
"343 406 CURVE SMOOTH",
"382 406 OFFCURVE",
"413 384 OFFCURVE",
"403 340 CURVE SMOOTH",
"401 331 LINE",
"263 331 LINE"
);
}
);
width = 560;
}
);
leftKerningGroup = o;
rightKerningGroup = o;
},
{
glyphname = f.ss01;
lastChange = "2019-07-18 14:24:21 +0000";
layers = (
{
layerId = "B45F0BEB-E489-4392-AE53-309DD1ADE040";
paths = (
{
closed = 1;
nodes = (
"169 0 LINE",
"277 611 LINE SMOOTH",
"284 653 OFFCURVE",
"294 703 OFFCURVE",
"376 703 CURVE SMOOTH",
"425 703 LINE",
"431 737 LINE",
"379 737 LINE SMOOTH",
"282 737 OFFCURVE",
"253 674 OFFCURVE",
"242 611 CURVE SMOOTH",
"135 0 LINE"
);
},
{
closed = 1;
nodes = (
"388 495 LINE",
"394 525 LINE",
"148 525 LINE",
"142 495 LINE"
);
}
);
width = 356;
},
{
layerId = "D085834A-C5B8-45AD-B7CB-7C394966C9BB";
paths = (
{
closed = 1;
nodes = (
"280 0 LINE",
"363 524 LINE SMOOTH",
"370 566 OFFCURVE",
"373 591 OFFCURVE",
"433 591 CURVE SMOOTH",
"485 591 LINE",
"508 740 LINE",
"411 740 LINE SMOOTH",
"229 740 OFFCURVE",
"189 623 OFFCURVE",
"180 566 CURVE SMOOTH",
"90 0 LINE"
);
},
{
closed = 1;
nodes = (
"452 383 LINE",
"475 530 LINE",
"114 530 LINE",
"91 383 LINE"
);
}
);
width = 406;
}
);
leftKerningGroup = f;
rightKerningGroup = f;
},
{
glyphname = g.ss01;
lastChange = "2019-07-18 14:24:21 +0000";
layers = (
{
guideLines = (
{
position = "{519, 432}";
},
{
angle = 90;
position = "{295, 195}";
},
{
angle = 90;
position = "{641, -109}";
},
{
position = "{575, 25}";
},
{
angle = 90;
position = "{418, -97}";
},
{
angle = 90;
position = "{30, -320}";
},
{
position = "{569, -205}";
},
{
position = "{700, 540}";
},
{
position = "{-8, -254}";
},
{
position = "{526, -118}";
},
{
position = "{601, 456}";
},
{
position = "{470, 540}";
}
);
layerId = "D085834A-C5B8-45AD-B7CB-7C394966C9BB";
paths = (
{
closed = 1;
nodes = (
"520 -253 OFFCURVE",
"561 -51 OFFCURVE",
"568 -7 CURVE SMOOTH",
"654 530 LINE",
"462 530 LINE",
"452 462 LINE",
"444 462 LINE",
"440 472 OFFCURVE",
"417 540 OFFCURVE",
"315 540 CURVE SMOOTH",
"203 540 OFFCURVE",
"102 453 OFFCURVE",
"80 315 CURVE SMOOTH",
"64 213 LINE SMOOTH",
"43 79 OFFCURVE",
"114 -10 OFFCURVE",
"226 -10 CURVE SMOOTH",
"329 -10 OFFCURVE",
"375 62 OFFCURVE",
"382 74 CURVE",
"390 74 LINE",
"376 -7 LINE SMOOTH",
"369 -48 OFFCURVE",
"360 -119 OFFCURVE",
"283 -119 CURVE SMOOTH",
"236 -119 OFFCURVE",
"217 -92 OFFCURVE",
"221 -41 CURVE",
"39 -41 LINE",
"36 -182 OFFCURVE",
"108 -253 OFFCURVE",
"261 -253 CURVE SMOOTH"
);
},
{
closed = 1;
nodes = (
"272 140 OFFCURVE",
"252 181 OFFCURVE",
"261 240 CURVE SMOOTH",
"268 288 LINE SMOOTH",
"277 347 OFFCURVE",
"310 389 OFFCURVE",
"364 389 CURVE SMOOTH",
"417 389 OFFCURVE",
"438 347 OFFCURVE",
"428 288 CURVE SMOOTH",
"420 240 LINE SMOOTH",
"410 181 OFFCURVE",
"378 140 OFFCURVE",
"325 140 CURVE SMOOTH"
);
}
);
width = 609;
},
{
guideLines = (
{
position = "{-86, 508}";
},
{
position = "{-90, 544}";
},
{
position = "{39, 482}";
},
{
position = "{154, 544}";
},
{
angle = 90;
position = "{77, -220}";
},
{
position = "{22, -185}";
},
{
position = "{12, -220}";
},
{
position = "{519, -218}";
},
{
position = "{538, -199}";
}
);
layerId = "B45F0BEB-E489-4392-AE53-309DD1ADE040";
paths = (
{
closed = 1;
nodes = (
"420 -199 OFFCURVE",
"518 -103 OFFCURVE",
"540 20 CURVE SMOOTH",
"629 525 LINE",
"595 525 LINE",
"576 416 LINE",
"570 416 LINE",
"549 481 OFFCURVE",
"503 542 OFFCURVE",
"398 542 CURVE SMOOTH",
"265 542 OFFCURVE",
"149 439 OFFCURVE",
"127 310 CURVE SMOOTH",
"116 246 LINE SMOOTH",
"94 117 OFFCURVE",
"171 15 OFFCURVE",
"305 15 CURVE SMOOTH",
"404 15 OFFCURVE",
"474 72 OFFCURVE",
"521 142 CURVE",
"527 142 LINE",
"506 20 LINE SMOOTH",
"486 -98 OFFCURVE",
"402 -164 OFFCURVE",
"286 -164 CURVE SMOOTH",
"187 -164 OFFCURVE",
"120 -115 OFFCURVE",
"110 -36 CURVE",
"72 -36 LINE",
"77 -125 OFFCURVE",
"151 -199 OFFCURVE",
"277 -199 CURVE SMOOTH"
);
},
{
closed = 1;
nodes = (
"191 51 OFFCURVE",
"132 143 OFFCURVE",
"153 254 CURVE SMOOTH",
"162 302 LINE SMOOTH",
"183 413 OFFCURVE",
"270 506 OFFCURVE",
"392 506 CURVE SMOOTH",
"515 506 OFFCURVE",
"573 413 OFFCURVE",
"552 302 CURVE SMOOTH",
"543 254 LINE SMOOTH",
"522 143 OFFCURVE",
"434 51 OFFCURVE",
"311 51 CURVE SMOOTH"
);
}
);
width = 628;
}
);
leftKerningGroup = o;
rightKerningGroup = g;
},
{
glyphname = j.ss01;
lastChange = "2019-07-18 14:24:21 +0000";
layers = (
{
components = (
{
name = dotaccentcomb;
transform = "{1, 0, 0, 1, -9, 0}";
}
);
guideLines = (
{
position = "{-9, -212}";
},
{
angle = 270;
position = "{122, 220}";
},
{
angle = 270;
position = "{88, 220}";
}
);
layerId = "B45F0BEB-E489-4392-AE53-309DD1ADE040";
paths = (
{
closed = 1;
nodes = (
"76 -212 OFFCURVE",
"95 -160 OFFCURVE",
"109 -80 CURVE SMOOTH",
"215 525 LINE",
"181 525 LINE",
"74 -80 LINE SMOOTH",
"62 -145 OFFCURVE",
"51 -182 OFFCURVE",
"-14 -182 CURVE SMOOTH",
"-65 -182 LINE",
"-70 -212 LINE",
"-17 -212 LINE SMOOTH"
);
}
);
width = 213;
},
{
components = (
{
name = dotaccentcomb;
transform = "{1, 0, 0, 1, -19, 0}";
}
);
guideLines = (
{
angle = 90;
position = "{234, 374}";
},
{
angle = 90;
position = "{44, 374}";
}
);
layerId = "D085834A-C5B8-45AD-B7CB-7C394966C9BB";
paths = (
{
closed = 1;
nodes = (
"194 -250 OFFCURVE",
"214 -122 OFFCURVE",
"229 -29 CURVE SMOOTH",
"318 530 LINE",
"128 530 LINE",
"43 -3 LINE SMOOTH",
"31 -76 OFFCURVE",
"23 -101 OFFCURVE",
"-50 -101 CURVE SMOOTH",
"-66 -101 LINE",
"-90 -250 LINE",
"3 -250 LINE SMOOTH"
);
}
);
width = 296;
}
);
leftKerningGroup = j;
},
{
glyphname = l.ss01;
lastChange = "2019-07-18 14:24:21 +0000";
layers = (
{
anchors = (
{
name = bottom;
position = "{147, 0}";
},
{
name = center;
position = "{240, 525}";
},
{
name = top;
position = "{332, 1050}";
},
{
name = topright;
position = "{458, 1050}";
}
);
layerId = "B45F0BEB-E489-4392-AE53-309DD1ADE040";
paths = (
{
closed = 1;
nodes = (
"127 0 LINE",
"259 750 LINE",
"225 750 LINE",
"92 0 LINE"
);
}
);
width = 219;
},
{
anchors = (
{
name = bottom;
position = "{182, 0}";
},
{
name = center;
position = "{265, 525}";
},
{
name = top;
position = "{348, 1050}";
},
{
name = topright;
position = "{510, 1050}";
}
);
layerId = "D085834A-C5B8-45AD-B7CB-7C394966C9BB";
paths = (
{
closed = 1;
nodes = (
"240 0 LINE",
"359 750 LINE",
"169 750 LINE",
"50 0 LINE"
);
}
);
width = 290;
}
);
leftKerningGroup = h;
rightKerningGroup = t;
},
{
glyphname = o.ss01;
lastChange = "2019-07-18 14:24:21 +0000";
layers = (
{
anchors = (
{
name = bottom;
position = "{293, 0}";
},
{
name = center;
position = "{340, 263}";
},
{
name = ogonek;
position = "{529, 10}";
},
{
name = top;
position = "{386, 525}";
},
{
name = topright;
position = "{533, 525}";
}
);
guideLines = (
{
position = "{163, 236}";
},
{
position = "{163, 300}";
}
);
layerId = "B45F0BEB-E489-4392-AE53-309DD1ADE040";
paths = (
{
closed = 1;
nodes = (
"431 -5 OFFCURVE",
"545 93 OFFCURVE",
"570 236 CURVE SMOOTH",
"581 300 LINE SMOOTH",
"606 443 OFFCURVE",
"525 542 OFFCURVE",
"389 542 CURVE SMOOTH",
"252 542 OFFCURVE",
"136 443 OFFCURVE",
"111 300 CURVE SMOOTH",
"100 236 LINE SMOOTH",
"75 93 OFFCURVE",
"157 -5 OFFCURVE",
"293 -5 CURVE SMOOTH"
);
},
{
closed = 1;
nodes = (
"172 31 OFFCURVE",
"114 123 OFFCURVE",
"137 244 CURVE SMOOTH",
"146 292 LINE SMOOTH",
"170 420 OFFCURVE",
"261 506 OFFCURVE",
"383 506 CURVE SMOOTH",
"509 506 OFFCURVE",
"567 415 OFFCURVE",
"544 292 CURVE SMOOTH",
"535 244 LINE SMOOTH",
"511 117 OFFCURVE",
"421 31 OFFCURVE",
"299 31 CURVE SMOOTH"
);
}
);
width = 586;
},
{
anchors = (
{
name = bottom;
position = "{285, 0}";
},
{
name = center;
position = "{327, 265}";
},
{
name = ogonek;
position = "{515, 10}";
},
{
name = top;
position = "{369, 530}";
},
{
name = topright;
position = "{634, 530}";
}
);
guideLines = (
{
position = "{277, 288}";
},
{
position = "{277, 315}";
},
{
position = "{277, 213}";
},
{
position = "{277, 240}";
},
{
angle = 90;
position = "{218, 78}";
},
{
angle = 90;
position = "{25, 70}";
}
);
layerId = "D085834A-C5B8-45AD-B7CB-7C394966C9BB";
paths = (
{
closed = 1;
nodes = (
"453 -10 OFFCURVE",
"555 102 OFFCURVE",
"578 240 CURVE SMOOTH",
"586 288 LINE SMOOTH",
"609 428 OFFCURVE",
"539 540 OFFCURVE",
"371 540 CURVE SMOOTH",
"203 540 OFFCURVE",
"99 428 OFFCURVE",
"76 288 CURVE SMOOTH",
"68 240 LINE SMOOTH",
"45 103 OFFCURVE",
"113 -10 OFFCURVE",
"283 -10 CURVE SMOOTH"
);
},
{
closed = 1;
nodes = (
"257 140 OFFCURVE",
"238 181 OFFCURVE",
"248 240 CURVE SMOOTH",
"256 288 LINE SMOOTH",
"266 347 OFFCURVE",
"296 389 OFFCURVE",
"347 389 CURVE SMOOTH",
"397 389 OFFCURVE",
"416 347 OFFCURVE",
"406 288 CURVE SMOOTH",
"398 240 LINE SMOOTH",
"388 181 OFFCURVE",
"358 140 OFFCURVE",
"307 140 CURVE SMOOTH"
);
}
);
width = 570;
}
);
leftKerningGroup = o;
rightKerningGroup = o;
},
{
glyphname = oslash.ss01;
lastChange = "2019-07-18 14:24:21 +0000";
layers = (
{
components = (
{
name = o.ss01;
transform = "{1, 0, 0, 1, 0, 1}";
}
);
guideLines = (
{
position = "{-107, -5}";
},
{
position = "{485, 542}";
}
);
layerId = "B45F0BEB-E489-4392-AE53-309DD1ADE040";
paths = (
{
closed = 1;
nodes = (
"140 -46 LINE",
"597 590 LINE",
"560 590 LINE",
"103 -46 LINE"
);
}
);
width = 604;
},
{
components = (
{
name = o.ss01;
}
);
layerId = "D085834A-C5B8-45AD-B7CB-7C394966C9BB";
paths = (
{
closed = 1;
nodes = (
"173 -31 LINE",
"618 573 LINE",
"491 573 LINE",
"46 -31 LINE"
);
}
);
width = 578;
}
);
leftKerningGroup = o;
rightKerningGroup = o;
},
{
glyphname = oe.ss01;
lastChange = "2019-07-18 14:24:21 +0000";
layers = (
{
guideLines = (
{
position = "{-45, -5}";
},
{
position = "{683, 507}";
},
{
angle = 90;
position = "{520, -51}";
},
{
angle = 90;
position = "{542, -75}";
},
{
angle = 90;
position = "{504, -60}";
},
{
angle = 90;
position = "{504, -60}";
},
{
angle = 90;
position = "{526, -84}";
}
);
layerId = "B45F0BEB-E489-4392-AE53-309DD1ADE040";
paths = (
{
closed = 1;
nodes = (
"431 -5 OFFCURVE",
"545 93 OFFCURVE",
"570 236 CURVE SMOOTH",
"581 300 LINE SMOOTH",
"606 443 OFFCURVE",
"525 542 OFFCURVE",
"389 542 CURVE SMOOTH",
"252 542 OFFCURVE",
"136 443 OFFCURVE",
"111 300 CURVE SMOOTH",
"100 236 LINE SMOOTH",
"75 93 OFFCURVE",
"157 -5 OFFCURVE",
"293 -5 CURVE SMOOTH"
);
},
{
closed = 1;
nodes = (
"172 31 OFFCURVE",
"114 123 OFFCURVE",
"137 244 CURVE SMOOTH",
"146 292 LINE SMOOTH",
"170 420 OFFCURVE",
"261 506 OFFCURVE",
"383 506 CURVE SMOOTH",
"509 506 OFFCURVE",
"567 415 OFFCURVE",
"544 292 CURVE SMOOTH",
"535 244 LINE SMOOTH",
"511 117 OFFCURVE",
"421 31 OFFCURVE",
"299 31 CURVE SMOOTH"
);
},
{
closed = 1;
nodes = (
"868 -5 OFFCURVE",
"955 94 OFFCURVE",
"982 189 CURVE",
"949 189 LINE",
"920 99 OFFCURVE",
"845 31 OFFCURVE",
"731 31 CURVE SMOOTH",
"609 31 OFFCURVE",
"551 123 OFFCURVE",
"570 234 CURVE SMOOTH",
"574 257 LINE",
"998 257 LINE",
"1002 281 LINE SMOOTH",
"1032 461 OFFCURVE",
"943 542 OFFCURVE",
"821 542 CURVE SMOOTH",
"687 542 OFFCURVE",
"570 439 OFFCURVE",
"547 310 CURVE SMOOTH",
"532 226 LINE SMOOTH",
"509 97 OFFCURVE",
"590 -5 OFFCURVE",
"725 -5 CURVE SMOOTH"
);
},
{
closed = 1;
nodes = (
"581 302 LINE SMOOTH",
"598 411 OFFCURVE",
"687 506 OFFCURVE",
"815 506 CURVE SMOOTH",
"936 506 OFFCURVE",
"986 410 OFFCURVE",
"969 302 CURVE SMOOTH",
"967 289 LINE",
"579 289 LINE"
);
}
);
width = 1014;
},
{
guideLines = (
{
angle = 90;
position = "{554, 285}";
},
{
position = "{569, -10}";
},
{
angle = 90;
position = "{285, 215}";
},
{
position = "{420, 475}";
},
{
position = "{420, 386}";
}
);
layerId = "D085834A-C5B8-45AD-B7CB-7C394966C9BB";
paths = (
{
closed = 1;
nodes = (
"453 -10 OFFCURVE",
"555 102 OFFCURVE",
"578 240 CURVE SMOOTH",
"586 288 LINE SMOOTH",
"609 428 OFFCURVE",
"539 540 OFFCURVE",
"371 540 CURVE SMOOTH",
"203 540 OFFCURVE",
"99 428 OFFCURVE",
"76 288 CURVE SMOOTH",
"68 240 LINE SMOOTH",
"45 103 OFFCURVE",
"113 -10 OFFCURVE",
"283 -10 CURVE SMOOTH"
);
},
{
closed = 1;
nodes = (
"257 140 OFFCURVE",
"238 181 OFFCURVE",
"248 240 CURVE SMOOTH",
"256 288 LINE SMOOTH",
"266 347 OFFCURVE",
"296 389 OFFCURVE",
"347 389 CURVE SMOOTH",
"397 389 OFFCURVE",
"416 347 OFFCURVE",
"406 288 CURVE SMOOTH",
"398 240 LINE SMOOTH",
"388 181 OFFCURVE",
"358 140 OFFCURVE",
"307 140 CURVE SMOOTH"
);
},
{
closed = 1;
nodes = (
"746 -10 OFFCURVE",
"841 67 OFFCURVE",
"886 176 CURVE",
"700 176 LINE",
"684 147 OFFCURVE",
"659 137 OFFCURVE",
"632 137 CURVE SMOOTH",
"581 137 OFFCURVE",
"569 172 OFFCURVE",
"573 204 CURVE SMOOTH",
"574 212 LINE",
"894 212 LINE",
"902 264 LINE SMOOTH",
"930 448 OFFCURVE",
"843 540 OFFCURVE",
"696 540 CURVE SMOOTH",
"531 540 OFFCURVE",
"429 428 OFFCURVE",
"406 288 CURVE SMOOTH",
"398 240 LINE SMOOTH",
"375 102 OFFCURVE",
"442 -10 OFFCURVE",
"609 -10 CURVE SMOOTH"
);
},
{
closed = 1;
nodes = (
"595 340 LINE SMOOTH",
"605 385 OFFCURVE",
"636 406 OFFCURVE",
"673 406 CURVE SMOOTH",
"711 406 OFFCURVE",
"743 384 OFFCURVE",
"733 340 CURVE SMOOTH",
"731 331 LINE",
"593 331 LINE"
);
}
);
width = 902;
}
);
leftKerningGroup = o;
rightKerningGroup = o;
},
{
glyphname = p.ss01;
lastChange = "2019-07-18 14:28:12 +0000";
layers = (
{
anchors = (
{
name = bottom;
position = "{312, 0}";
},
{
name = top;
position = "{498, 525}";
}
);
guideLines = (
{
position = "{538, -199}";
}
);
layerId = "B45F0BEB-E489-4392-AE53-309DD1ADE040";
paths = (
{
closed = 1;
nodes = (
"466 -5 OFFCURVE",
"582 97 OFFCURVE",
"605 226 CURVE SMOOTH",
"620 310 LINE SMOOTH",
"643 439 OFFCURVE",
"562 542 OFFCURVE",
"424 542 CURVE SMOOTH",
"318 542 OFFCURVE",
"249 481 OFFCURVE",
"205 416 CURVE",
"198 416 LINE",
"218 525 LINE",
"184 525 LINE",
"56 -199 LINE",
"90 -199 LINE",
"147 122 LINE",
"154 122 LINE",
"176 52 OFFCURVE",
"229 -5 OFFCURVE",
"331 -5 CURVE SMOOTH"
);
},
{
closed = 1;
nodes = (
"215 31 OFFCURVE",
"149 115 OFFCURVE",
"169 226 CURVE SMOOTH",
"184 310 LINE SMOOTH",
"204 421 OFFCURVE",
"299 506 OFFCURVE",
"418 506 CURVE SMOOTH",
"537 506 OFFCURVE",
"604 421 OFFCURVE",
"584 310 CURVE SMOOTH",
"569 226 LINE SMOOTH",
"549 115 OFFCURVE",
"454 31 OFFCURVE",
"335 31 CURVE SMOOTH"
);
}
);
width = 623;
},
{
anchors = (
{
name = bottom;
position = "{310, 0}";
},
{
name = top;
position = "{478, 530}";
}
);
layerId = "D085834A-C5B8-45AD-B7CB-7C394966C9BB";
paths = (
{
closed = 1;
nodes = (
"503 -10 OFFCURVE",
"603 79 OFFCURVE",
"624 213 CURVE SMOOTH",
"640 315 LINE SMOOTH",
"662 453 OFFCURVE",
"587 540 OFFCURVE",
"477 540 CURVE SMOOTH",
"375 540 OFFCURVE",
"329 472 OFFCURVE",
"323 462 CURVE",
"315 462 LINE",
"326 530 LINE",
"134 530 LINE",
"14 -228 LINE",
"206 -228 LINE",
"254 74 LINE",
"262 74 LINE",
"265 63 OFFCURVE",
"288 -10 OFFCURVE",
"392 -10 CURVE SMOOTH"
);
},
{
closed = 1;
nodes = (
"287 140 OFFCURVE",
"266 181 OFFCURVE",
"276 240 CURVE SMOOTH",
"284 288 LINE SMOOTH",
"294 347 OFFCURVE",
"326 389 OFFCURVE",
"380 389 CURVE SMOOTH",
"433 389 OFFCURVE",
"454 347 OFFCURVE",
"444 288 CURVE SMOOTH",
"436 240 LINE SMOOTH",
"426 181 OFFCURVE",
"394 140 OFFCURVE",
"340 140 CURVE SMOOTH"
);
}
);
width = 620;
}
);
leftKerningGroup = h;
rightKerningGroup = o;
},
{
glyphname = thorn.ss01;
lastChange = "2019-07-21 01:56:21 +0000";
layers = (
{
layerId = "B45F0BEB-E489-4392-AE53-309DD1ADE040";
paths = (
{
closed = 1;
nodes = (
"467 -5 OFFCURVE",
"583 97 OFFCURVE",
"606 226 CURVE SMOOTH",
"621 310 LINE SMOOTH",
"644 439 OFFCURVE",
"563 542 OFFCURVE",
"424 542 CURVE SMOOTH",
"317 542 OFFCURVE",
"249 480 OFFCURVE",
"206 416 CURVE",
"199 416 LINE",
"258 750 LINE",
"224 750 LINE",
"52 -225 LINE",
"86 -225 LINE",
"147 122 LINE",
"154 122 LINE",
"177 52 OFFCURVE",
"229 -5 OFFCURVE",
"332 -5 CURVE SMOOTH"
);
},
{
closed = 1;
nodes = (
"217 31 OFFCURVE",
"150 115 OFFCURVE",
"170 226 CURVE SMOOTH",
"185 310 LINE SMOOTH",
"205 421 OFFCURVE",
"299 506 OFFCURVE",
"419 506 CURVE SMOOTH",
"538 506 OFFCURVE",
"604 421 OFFCURVE",
"584 310 CURVE SMOOTH",
"569 226 LINE SMOOTH",
"549 115 OFFCURVE",
"454 31 OFFCURVE",
"335 31 CURVE SMOOTH"
);
}
);
width = 630;
},
{
layerId = "D085834A-C5B8-45AD-B7CB-7C394966C9BB";
paths = (
{
closed = 1;
nodes = (
"496 -10 OFFCURVE",
"596 79 OFFCURVE",
"617 213 CURVE SMOOTH",
"633 315 LINE SMOOTH",
"655 453 OFFCURVE",
"580 540 OFFCURVE",
"470 540 CURVE SMOOTH",
"369 540 OFFCURVE",
"322 472 OFFCURVE",
"317 462 CURVE",
"309 462 LINE",
"355 751 LINE",
"163 751 LINE",
"4 -250 LINE",
"196 -250 LINE",
"247 74 LINE",
"255 74 LINE",
"259 63 OFFCURVE",
"281 -10 OFFCURVE",
"385 -10 CURVE SMOOTH"
);
},
{
closed = 1;
nodes = (
"281 140 OFFCURVE",
"261 181 OFFCURVE",
"270 240 CURVE SMOOTH",
"277 288 LINE SMOOTH",
"286 347 OFFCURVE",
"319 389 OFFCURVE",
"373 389 CURVE SMOOTH",
"426 389 OFFCURVE",
"446 347 OFFCURVE",
"437 288 CURVE SMOOTH",
"430 240 LINE SMOOTH",
"421 181 OFFCURVE",
"388 140 OFFCURVE",
"334 140 CURVE SMOOTH"
);
}
);
width = 613;
}
);
leftKerningGroup = h;
leftMetricsKey = p;
rightKerningGroup = o;
rightMetricsKey = o;
},
{
glyphname = q.ss01;
lastChange = "2019-07-18 14:28:12 +0000";
layers = (
{
anchors = (
{
name = bottom;
position = "{312, 0}";
},
{
name = top;
position = "{405, 525}";
}
);
guideLines = (
{
position = "{538, -199}";
}
);
layerId = "B45F0BEB-E489-4392-AE53-309DD1ADE040";
paths = (
{
closed = 1;
nodes = (
"394 -5 OFFCURVE",
"465 52 OFFCURVE",
"513 122 CURVE",
"520 122 LINE",
"463 -199 LINE",
"497 -199 LINE",
"625 525 LINE",
"591 525 LINE",
"572 416 LINE",
"565 416 LINE",
"544 481 OFFCURVE",
"496 542 OFFCURVE",
"391 542 CURVE SMOOTH",
"252 542 OFFCURVE",
"136 439 OFFCURVE",
"113 310 CURVE SMOOTH",
"98 226 LINE SMOOTH",
"75 97 OFFCURVE",
"156 -5 OFFCURVE",
"290 -5 CURVE SMOOTH"
);
},
{
closed = 1;
nodes = (
"180 31 OFFCURVE",
"114 115 OFFCURVE",
"134 226 CURVE SMOOTH",
"149 310 LINE SMOOTH",
"169 421 OFFCURVE",
"264 506 OFFCURVE",
"383 506 CURVE SMOOTH",
"503 506 OFFCURVE",
"569 421 OFFCURVE",
"549 310 CURVE SMOOTH",
"534 226 LINE SMOOTH",
"514 115 OFFCURVE",
"418 31 OFFCURVE",
"300 31 CURVE SMOOTH"
);
}
);
width = 623;
},
{
anchors = (
{
name = bottom;
position = "{310, 0}";
},
{
name = top;
position = "{394, 530}";
}
);
layerId = "D085834A-C5B8-45AD-B7CB-7C394966C9BB";
paths = (
{
closed = 1;
nodes = (
"329 -10 OFFCURVE",
"375 63 OFFCURVE",
"382 74 CURVE",
"390 74 LINE",
"342 -228 LINE",
"534 -228 LINE",
"654 530 LINE",
"462 530 LINE",
"451 462 LINE",
"443 462 LINE",
"441 472 OFFCURVE",
"416 540 OFFCURVE",
"315 540 CURVE SMOOTH",
"204 540 OFFCURVE",
"102 453 OFFCURVE",
"80 315 CURVE SMOOTH",
"64 213 LINE SMOOTH",
"43 79 OFFCURVE",
"114 -10 OFFCURVE",
"226 -10 CURVE SMOOTH"
);
},
{
closed = 1;
nodes = (
"271 140 OFFCURVE",
"250 181 OFFCURVE",
"260 240 CURVE SMOOTH",
"268 288 LINE SMOOTH",
"278 347 OFFCURVE",
"310 389 OFFCURVE",
"364 389 CURVE SMOOTH",
"417 389 OFFCURVE",
"438 347 OFFCURVE",
"428 288 CURVE SMOOTH",
"420 240 LINE SMOOTH",
"410 181 OFFCURVE",
"378 140 OFFCURVE",
"324 140 CURVE SMOOTH"
);
}
);
width = 620;
}
);
leftKerningGroup = o;
},
{
glyphname = r.ss01;
lastChange = "2019-07-18 14:24:21 +0000";
layers = (
{
anchors = (
{
name = bottom;
position = "{149, 0}";
},
{
name = top;
position = "{243, 525}";
}
);
layerId = "B45F0BEB-E489-4392-AE53-309DD1ADE040";
paths = (
{
closed = 1;
nodes = (
"115 0 LINE",
"173 331 LINE SMOOTH",
"194 451 OFFCURVE",
"267 485 OFFCURVE",
"329 485 CURVE SMOOTH",
"369 485 LINE",
"376 525 LINE",
"337 525 LINE SMOOTH",
"272 525 OFFCURVE",
"223 487 OFFCURVE",
"198 441 CURVE",
"193 441 LINE",
"208 525 LINE",
"175 525 LINE",
"82 0 LINE"
);
}
);
width = 298;
},
{
anchors = (
{
name = bottom;
position = "{203, 0}";
},
{
name = top;
position = "{287, 530}";
}
);
layerId = "D085834A-C5B8-45AD-B7CB-7C394966C9BB";
paths = (
{
closed = 1;
nodes = (
"240 0 LINE",
"277 231 LINE SMOOTH",
"294 340 OFFCURVE",
"344 364 OFFCURVE",
"431 364 CURVE SMOOTH",
"459 364 LINE",
"485 530 LINE",
"457 530 LINE SMOOTH",
"356 530 OFFCURVE",
"336 480 OFFCURVE",
"319 446 CURVE",
"311 446 LINE",
"324 530 LINE",
"134 530 LINE",
"50 0 LINE"
);
}
);
width = 406;
}
);
leftKerningGroup = r;
rightKerningGroup = r;
},
{
glyphname = t.ss01;
lastChange = "2019-07-18 14:24:21 +0000";
layers = (
{
anchors = (
{
name = bottom;
position = "{183, 0}";
},
{
name = center;
position = "{229, 263}";
},
{
name = top;
position = "{275, 525}";
},
{
name = topright;
position = "{437, 525}";
}
);
layerId = "B45F0BEB-E489-4392-AE53-309DD1ADE040";
paths = (
{
closed = 1;
nodes = (
"310 0 LINE",
"315 29 LINE",
"253 29 LINE SMOOTH",
"188 29 OFFCURVE",
"190 67 OFFCURVE",
"201 132 CURVE SMOOTH",
"301 700 LINE",
"267 700 LINE",
"166 132 LINE SMOOTH",
"151 46 OFFCURVE",
"156 0 OFFCURVE",
"246 0 CURVE SMOOTH"
);
},
{
closed = 1;
nodes = (
"397 495 LINE",
"402 525 LINE",
"127 525 LINE",
"122 495 LINE"
);
}
);
width = 365;
},
{
anchors = (
{
name = bottom;
position = "{225, 0}";
},
{
name = center;
position = "{267, 265}";
},
{
name = top;
position = "{309, 530}";
},
{
name = topright;
position = "{513, 530}";
}
);
guideLines = (
{
position = "{321, 200}";
}
);
layerId = "D085834A-C5B8-45AD-B7CB-7C394966C9BB";
paths = (
{
closed = 1;
nodes = (
"387 0 LINE",
"411 149 LINE",
"395 149 LINE SMOOTH",
"319 149 OFFCURVE",
"321 179 OFFCURVE",
"332 247 CURVE SMOOTH",
"404 700 LINE",
"214 700 LINE",
"135 200 LINE SMOOTH",
"120 102 OFFCURVE",
"119 0 OFFCURVE",
"294 0 CURVE SMOOTH"
);
},
{
closed = 1;
nodes = (
"465 383 LINE",
"488 530 LINE",
"109 530 LINE",
"86 383 LINE"
);
}
);
width = 449;
}
);
leftKerningGroup = t;
rightKerningGroup = t;
},
{
glyphname = y.ss01;
lastChange = "2019-07-18 14:24:21 +0000";
layers = (
{
anchors = (
{
name = bottom;
position = "{481, 0}";
},
{
name = top;
position = "{372, 530}";
}
);
guideLines = (
{
position = "{443, -316}";
},
{
position = "{469, -316}";
},
{
angle = 90;
position = "{481, -175}";
}
);
layerId = "D085834A-C5B8-45AD-B7CB-7C394966C9BB";
paths = (
{
closed = 1;
nodes = (
"240 -259 LINE",
"644 518 LINE",
"646 530 LINE",
"459 530 LINE",
"324 208 LINE",
"318 208 LINE",
"287 530 LINE",
"100 530 LINE",
"98 518 LINE",
"197 -1 LINE",
"64 -242 LINE",
"61 -259 LINE"
);
}
);
width = 552;
},
{
anchors = (
{
name = bottom;
position = "{382, 0}";
},
{
name = top;
position = "{351, 525}";
}
);
guideLines = (
{
angle = -68.1376;
position = "{136, 262}";
},
{
angle = 246.818;
position = "{347, 321}";
},
{
angle = -68.1376;
position = "{196, 286}";
},
{
angle = 90;
position = "{382, -200}";
}
);
layerId = "B45F0BEB-E489-4392-AE53-309DD1ADE040";
paths = (
{
closed = 1;
nodes = (
"130 -214 LINE",
"575 512 LINE",
"577 524 LINE",
"545 524 LINE",
"275 78 LINE",
"269 78 LINE",
"169 524 LINE",
"135 524 LINE",
"133 512 LINE",
"245 39 LINE",
"98 -206 LINE",
"97 -214 LINE"
);
}
);
width = 534;
}
);
leftKerningGroup = y;
rightKerningGroup = v;
},
{
glyphname = a.ss02;
lastChange = "2019-07-18 14:24:21 +0000";
layers = (
{
anchors = (
{
name = bottom;
position = "{300, 0}";
},
{
name = ogonek;
position = "{532, 10}";
},
{
name = top;
position = "{381, 525}";
}
);
guideLines = (
{
position = "{289, 268}";
},
{
angle = 90;
position = "{53, 90}";
},
{
position = "{300, 302}";
},
{
position = "{289, 268}";
},
{
position = "{300, 234}";
},
{
angle = 90;
position = "{300, 131}";
}
);
layerId = "B45F0BEB-E489-4392-AE53-309DD1ADE040";
paths = (
{
closed = 1;
nodes = (
"386 -5 OFFCURVE",
"456 52 OFFCURVE",
"504 122 CURVE",
"510 122 LINE",
"488 0 LINE",
"522 0 LINE",
"615 525 LINE",
"581 525 LINE",
"562 416 LINE",
"556 416 LINE",
"535 481 OFFCURVE",
"488 542 OFFCURVE",
"384 542 CURVE SMOOTH",
"250 542 OFFCURVE",
"136 439 OFFCURVE",
"113 310 CURVE SMOOTH",
"98 226 LINE SMOOTH",
"75 97 OFFCURVE",
"154 -5 OFFCURVE",
"287 -5 CURVE SMOOTH"
);
},
{
closed = 1;
nodes = (
"174 31 OFFCURVE",
"115 123 OFFCURVE",
"135 234 CURVE SMOOTH",
"147 302 LINE SMOOTH",
"167 413 OFFCURVE",
"255 506 OFFCURVE",
"377 506 CURVE SMOOTH",
"500 506 OFFCURVE",
"557 413 OFFCURVE",
"537 302 CURVE SMOOTH",
"525 234 LINE SMOOTH",
"505 123 OFFCURVE",
"417 31 OFFCURVE",
"294 31 CURVE SMOOTH"
);
}
);
width = 613;
},
{
anchors = (
{
name = bottom;
position = "{288, 0}";
},
{
name = ogonek;
position = "{543, 10}";
},
{
name = top;
position = "{398, 530}";
}
);
guideLines = (
{
angle = 90;
position = "{224, 78}";
},
{
position = "{203, 320}";
},
{
position = "{203, 288}";
},
{
angle = 90;
position = "{31, 70}";
},
{
angle = 90;
position = "{288, -83}";
},
{
position = "{409, -10}";
},
{
position = "{203, 209}";
},
{
position = "{203, 240}";
}
);
layerId = "D085834A-C5B8-45AD-B7CB-7C394966C9BB";
paths = (
{
closed = 1;
nodes = (
"329 -10 OFFCURVE",
"375 63 OFFCURVE",
"382 74 CURVE",
"390 74 LINE",
"378 0 LINE",
"570 0 LINE",
"654 530 LINE",
"462 530 LINE",
"451 462 LINE",
"443 462 LINE",
"440 472 OFFCURVE",
"416 540 OFFCURVE",
"315 540 CURVE SMOOTH",
"204 540 OFFCURVE",
"102 453 OFFCURVE",
"80 315 CURVE SMOOTH",
"64 213 LINE SMOOTH",
"43 79 OFFCURVE",
"114 -10 OFFCURVE",
"226 -10 CURVE SMOOTH"
);
},
{
closed = 1;
nodes = (
"271 140 OFFCURVE",
"250 181 OFFCURVE",
"260 240 CURVE SMOOTH",
"268 288 LINE SMOOTH",
"278 347 OFFCURVE",
"310 389 OFFCURVE",
"364 389 CURVE SMOOTH",
"417 389 OFFCURVE",
"438 347 OFFCURVE",
"428 288 CURVE SMOOTH",
"420 240 LINE SMOOTH",
"410 181 OFFCURVE",
"378 140 OFFCURVE",
"324 140 CURVE SMOOTH"
);
}
);
width = 620;
}
);
leftKerningGroup = o;
rightKerningGroup = a;
},
{
glyphname = f_h.dlig;
lastChange = "2019-07-18 14:24:21 +0000";
layers = (
{
layerId = "D085834A-C5B8-45AD-B7CB-7C394966C9BB";
paths = (
{
closed = 1;
nodes = (
"281 0 LINE",
"367 541 LINE SMOOTH",
"373 581 OFFCURVE",
"398 617 OFFCURVE",
"438 617 CURVE SMOOTH",
"498 617 LINE SMOOTH",
"559 617 OFFCURVE",
"558 585 OFFCURVE",
"549 530 CURVE SMOOTH",
"465 0 LINE",
"657 0 LINE",
"705 300 LINE SMOOTH",
"712 344 OFFCURVE",
"729 387 OFFCURVE",
"783 387 CURVE SMOOTH",
"835 387 OFFCURVE",
"841 346 OFFCURVE",
"834 300 CURVE SMOOTH",
"786 0 LINE",
"976 0 LINE",
"1029 334 LINE SMOOTH",
"1039 396 OFFCURVE",
"1050 540 OFFCURVE",
"886 540 CURVE SMOOTH",
"784 540 OFFCURVE",
"738 462 OFFCURVE",
"738 462 CURVE",
"730 462 LINE",
"737 507 LINE SMOOTH",
"766 695 OFFCURVE",
"708 774 OFFCURVE",
"523 774 CURVE SMOOTH",
"443 774 LINE SMOOTH",
"301 774 OFFCURVE",
"198 685 OFFCURVE",
"175 541 CURVE SMOOTH",
"89 0 LINE"
);
},
{
closed = 1;
nodes = (
"452 383 LINE",
"475 530 LINE",
"114 530 LINE",
"91 383 LINE"
);
}
);
width = 1016;
},
{
guideLines = (
{
position = "{376, 715}";
}
);
layerId = "B45F0BEB-E489-4392-AE53-309DD1ADE040";
paths = (
{
closed = 1;
nodes = (
"178 0 LINE",
"276 559 LINE SMOOTH",
"298 686 OFFCURVE",
"354 715 OFFCURVE",
"449 715 CURVE SMOOTH",
"504 715 LINE SMOOTH",
"618 715 OFFCURVE",
"638 667 OFFCURVE",
"619 559 CURVE SMOOTH",
"521 0 LINE",
"555 0 LINE",
"609 306 LINE SMOOTH",
"632 438 OFFCURVE",
"739 503 OFFCURVE",
"833 503 CURVE SMOOTH",
"932 503 OFFCURVE",
"1014 448 OFFCURVE",
"989 306 CURVE SMOOTH",
"935 0 LINE",
"969 0 LINE",
"1023 306 LINE SMOOTH",
"1047 443 OFFCURVE",
"984 542 OFFCURVE",
"852 542 CURVE SMOOTH",
"705 542 OFFCURVE",
"635 417 OFFCURVE",
"635 417 CURVE SMOOTH",
"628 417 LINE",
"653 559 LINE SMOOTH",
"678 700 OFFCURVE",
"618 749 OFFCURVE",
"510 749 CURVE SMOOTH",
"455 749 LINE SMOOTH",
"345 749 OFFCURVE",
"267 699 OFFCURVE",
"242 559 CURVE SMOOTH",
"144 0 LINE"
);
},
{
closed = 1;
nodes = (
"388 495 LINE",
"393 525 LINE",
"147 525 LINE",
"142 495 LINE"
);
}
);
width = 1041;
}
);
leftKerningGroup = f;
rightKerningGroup = h;
},
{
glyphname = f_k.dlig;
lastChange = "2019-07-18 14:24:21 +0000";
layers = (
{
layerId = "D085834A-C5B8-45AD-B7CB-7C394966C9BB";
paths = (
{
closed = 1;
nodes = (
"281 0 LINE",
"367 541 LINE SMOOTH",
"373 581 OFFCURVE",
"398 617 OFFCURVE",
"438 617 CURVE SMOOTH",
"498 617 LINE SMOOTH",
"559 617 OFFCURVE",
"558 585 OFFCURVE",
"549 530 CURVE SMOOTH",
"465 0 LINE",
"657 0 LINE",
"697 251 LINE",
"703 251 LINE",
"782 0 LINE",
"993 0 LINE",
"887 283 LINE",
"1076 530 LINE",
"866 530 LINE",
"715 332 LINE",
"710 332 LINE",
"737 507 LINE SMOOTH",
"768 708 OFFCURVE",
"695 774 OFFCURVE",
"523 774 CURVE SMOOTH",
"443 774 LINE SMOOTH",
"301 774 OFFCURVE",
"198 685 OFFCURVE",
"175 541 CURVE SMOOTH",
"89 0 LINE"
);
},
{
closed = 1;
nodes = (
"452 383 LINE",
"475 530 LINE",
"114 530 LINE",
"91 383 LINE"
);
}
);
width = 1017;
},
{
layerId = "B45F0BEB-E489-4392-AE53-309DD1ADE040";
paths = (
{
closed = 1;
nodes = (
"178 0 LINE",
"276 559 LINE SMOOTH",
"298 686 OFFCURVE",
"354 715 OFFCURVE",
"449 715 CURVE SMOOTH",
"504 715 LINE SMOOTH",
"618 715 OFFCURVE",
"638 667 OFFCURVE",
"619 559 CURVE SMOOTH",
"521 0 LINE",
"555 0 LINE",
"601 260 LINE",
"605 260 LINE",
"813 0 LINE",
"855 0 LINE",
"619 294 LINE",
"933 525 LINE",
"891 525 LINE",
"616 325 LINE",
"612 325 LINE",
"654 559 LINE SMOOTH",
"681 708 OFFCURVE",
"611 749 OFFCURVE",
"510 749 CURVE SMOOTH",
"455 749 LINE SMOOTH",
"345 749 OFFCURVE",
"267 699 OFFCURVE",
"242 559 CURVE SMOOTH",
"144 0 LINE"
);
},
{
closed = 1;
nodes = (
"388 495 LINE",
"393 525 LINE",
"147 525 LINE",
"142 495 LINE"
);
}
);
width = 905;
}
);
leftKerningGroup = f;
rightKerningGroup = k;
},
{
glyphname = f_l.dlig;
lastChange = "2019-07-18 14:24:21 +0000";
layers = (
{
layerId = "D085834A-C5B8-45AD-B7CB-7C394966C9BB";
paths = (
{
closed = 1;
nodes = (
"692 -3 OFFCURVE",
"734 1 OFFCURVE",
"754 3 CURVE",
"775 133 LINE",
"769 132 OFFCURVE",
"761 132 OFFCURVE",
"754 132 CURVE SMOOTH",
"675 132 OFFCURVE",
"682 165 OFFCURVE",
"690 218 CURVE SMOOTH",
"735 507 LINE SMOOTH",
"766 705 OFFCURVE",
"698 774 OFFCURVE",
"523 774 CURVE SMOOTH",
"443 774 LINE SMOOTH",
"301 774 OFFCURVE",
"198 685 OFFCURVE",
"175 541 CURVE SMOOTH",
"89 0 LINE",
"281 0 LINE",
"367 541 LINE SMOOTH",
"373 581 OFFCURVE",
"398 617 OFFCURVE",
"438 617 CURVE SMOOTH",
"498 617 LINE SMOOTH",
"559 617 OFFCURVE",
"558 585 OFFCURVE",
"549 530 CURVE SMOOTH",
"493 177 LINE SMOOTH",
"480 97 OFFCURVE",
"465 -3 OFFCURVE",
"656 -3 CURVE SMOOTH"
);
},
{
closed = 1;
nodes = (
"461 383 LINE",
"484 530 LINE",
"114 530 LINE",
"91 383 LINE"
);
}
);
width = 784;
},
{
layerId = "B45F0BEB-E489-4392-AE53-309DD1ADE040";
paths = (
{
closed = 1;
nodes = (
"641 -5 OFFCURVE",
"655 -3 OFFCURVE",
"669 0 CURVE",
"674 28 LINE",
"660 26 OFFCURVE",
"645 24 OFFCURVE",
"629 24 CURVE SMOOTH",
"559 24 OFFCURVE",
"566 62 OFFCURVE",
"577 127 CURVE SMOOTH",
"653 559 LINE SMOOTH",
"678 701 OFFCURVE",
"618 749 OFFCURVE",
"510 749 CURVE SMOOTH",
"455 749 LINE SMOOTH",
"345 749 OFFCURVE",
"267 699 OFFCURVE",
"242 559 CURVE SMOOTH",
"144 0 LINE",
"178 0 LINE",
"276 559 LINE SMOOTH",
"298 686 OFFCURVE",
"354 715 OFFCURVE",
"449 715 CURVE SMOOTH",
"504 715 LINE SMOOTH",
"619 715 OFFCURVE",
"638 666 OFFCURVE",
"619 559 CURVE SMOOTH",
"542 127 LINE SMOOTH",
"528 47 OFFCURVE",
"527 -5 OFFCURVE",
"622 -5 CURVE SMOOTH"
);
},
{
closed = 1;
nodes = (
"388 495 LINE",
"393 525 LINE",
"147 525 LINE",
"142 495 LINE"
);
}
);
width = 709;
}
);
},
{
glyphname = f_t.dlig;
lastChange = "2019-07-18 14:24:21 +0000";
layers = (
{
layerId = "D085834A-C5B8-45AD-B7CB-7C394966C9BB";
paths = (
{
closed = 1;
nodes = (
"280 0 LINE",
"363 524 LINE SMOOTH",
"370 566 OFFCURVE",
"376 609 OFFCURVE",
"435 609 CURVE SMOOTH",
"448 609 OFFCURVE",
"475 607 OFFCURVE",
"487 605 CURVE",
"506 728 LINE",
"495 733 OFFCURVE",
"439 740 OFFCURVE",
"400 740 CURVE SMOOTH",
"218 740 OFFCURVE",
"186 610 OFFCURVE",
"182 584 CURVE SMOOTH",
"90 0 LINE"
);
},
{
closed = 1;
nodes = (
"870 383 LINE",
"893 530 LINE",
"114 530 LINE",
"91 383 LINE"
);
},
{
closed = 1;
nodes = (
"749 -3 OFFCURVE",
"810 4 OFFCURVE",
"810 4 CURVE",
"830 134 LINE",
"821 133 OFFCURVE",
"808 132 OFFCURVE",
"797 132 CURVE SMOOTH",
"718 132 OFFCURVE",
"725 165 OFFCURVE",
"733 218 CURVE SMOOTH",
"809 700 LINE",
"619 700 LINE",
"536 177 LINE SMOOTH",
"523 97 OFFCURVE",
"508 -3 OFFCURVE",
"699 -3 CURVE SMOOTH"
);
}
);
width = 851;
},
{
layerId = "B45F0BEB-E489-4392-AE53-309DD1ADE040";
paths = (
{
closed = 1;
nodes = (
"169 0 LINE",
"277 611 LINE SMOOTH",
"284 653 OFFCURVE",
"294 708 OFFCURVE",
"377 708 CURVE SMOOTH",
"394 708 OFFCURVE",
"413 706 OFFCURVE",
"425 703 CURVE",
"430 731 LINE",
"418 735 OFFCURVE",
"400 737 OFFCURVE",
"379 737 CURVE SMOOTH",
"282 737 OFFCURVE",
"253 674 OFFCURVE",
"242 611 CURVE SMOOTH",
"135 0 LINE"
);
},
{
closed = 1;
nodes = (
"754 495 LINE",
"760 525 LINE",
"148 525 LINE",
"142 495 LINE"
);
},
{
closed = 1;
nodes = (
"630 -5 OFFCURVE",
"653 0 OFFCURVE",
"668 5 CURVE",
"673 33 LINE",
"658 29 OFFCURVE",
"634 24 OFFCURVE",
"609 24 CURVE SMOOTH",
"538 24 OFFCURVE",
"546 65 OFFCURVE",
"557 127 CURVE SMOOTH",
"658 700 LINE",
"624 700 LINE",
"522 127 LINE SMOOTH",
"508 47 OFFCURVE",
"507 -5 OFFCURVE",
"602 -5 CURVE SMOOTH"
);
}
);
width = 722;
}
);
leftKerningGroup = f;
rightKerningGroup = t;
},
{
glyphname = r_f.dlig;
lastChange = "2019-07-18 14:24:21 +0000";
layers = (
{
layerId = "D085834A-C5B8-45AD-B7CB-7C394966C9BB";
paths = (
{
closed = 1;
nodes = (
"230 0 LINE",
"270 250 LINE SMOOTH",
"288 362 OFFCURVE",
"327 383 OFFCURVE",
"398 383 CURVE SMOOTH",
"791 383 LINE",
"814 530 LINE",
"458 530 LINE SMOOTH",
"350 530 OFFCURVE",
"309 446 OFFCURVE",
"309 446 CURVE SMOOTH",
"301 446 LINE",
"314 530 LINE",
"124 530 LINE",
"40 0 LINE"
);
},
{
closed = 1;
nodes = (
"619 0 LINE",
"702 524 LINE SMOOTH",
"709 566 OFFCURVE",
"715 609 OFFCURVE",
"774 609 CURVE SMOOTH",
"787 609 OFFCURVE",
"814 607 OFFCURVE",
"826 605 CURVE",
"845 728 LINE",
"834 733 OFFCURVE",
"778 740 OFFCURVE",
"739 740 CURVE SMOOTH",
"557 740 OFFCURVE",
"525 610 OFFCURVE",
"521 584 CURVE SMOOTH",
"429 0 LINE"
);
}
);
width = 753;
},
{
guideLines = (
{
position = "{347, 470}";
}
);
layerId = "B45F0BEB-E489-4392-AE53-309DD1ADE040";
paths = (
{
closed = 1;
nodes = (
"115 0 LINE",
"173 329 LINE SMOOTH",
"194 449 OFFCURVE",
"279 495 OFFCURVE",
"340 495 CURVE SMOOTH",
"672 495 LINE",
"678 525 LINE",
"347 525 LINE SMOOTH",
"253 525 OFFCURVE",
"197 439 OFFCURVE",
"197 439 CURVE SMOOTH",
"192 439 LINE",
"208 525 LINE",
"175 525 LINE",
"82 0 LINE"
);
},
{
closed = 1;
nodes = (
"453 0 LINE",
"561 611 LINE SMOOTH",
"568 653 OFFCURVE",
"578 708 OFFCURVE",
"661 708 CURVE SMOOTH",
"678 708 OFFCURVE",
"697 706 OFFCURVE",
"709 703 CURVE",
"714 731 LINE",
"702 735 OFFCURVE",
"684 737 OFFCURVE",
"663 737 CURVE SMOOTH",
"560 737 OFFCURVE",
"536 667 OFFCURVE",
"526 611 CURVE SMOOTH",
"419 0 LINE"
);
}
);
width = 640;
}
);
leftKerningGroup = h;
rightKerningGroup = f;
},
{
glyphname = r_t.dlig;
lastChange = "2019-07-18 14:24:21 +0000";
layers = (
{
layerId = "D085834A-C5B8-45AD-B7CB-7C394966C9BB";
paths = (
{
closed = 1;
nodes = (
"230 0 LINE",
"267 231 LINE SMOOTH",
"285 343 OFFCURVE",
"327 383 OFFCURVE",
"398 383 CURVE SMOOTH",
"491 383 LINE",
"514 530 LINE",
"458 530 LINE SMOOTH",
"350 530 OFFCURVE",
"309 446 OFFCURVE",
"309 446 CURVE SMOOTH",
"301 446 LINE",
"314 530 LINE",
"124 530 LINE",
"40 0 LINE"
);
},
{
closed = 1;
nodes = (
"729 -3 OFFCURVE",
"790 4 OFFCURVE",
"790 4 CURVE",
"810 134 LINE",
"801 133 OFFCURVE",
"788 132 OFFCURVE",
"777 132 CURVE SMOOTH",
"698 132 OFFCURVE",
"705 165 OFFCURVE",
"713 218 CURVE SMOOTH",
"789 700 LINE",
"599 700 LINE",
"516 177 LINE SMOOTH",
"503 97 OFFCURVE",
"488 -3 OFFCURVE",
"679 -3 CURVE SMOOTH"
);
},
{
closed = 1;
nodes = (
"850 383 LINE",
"873 530 LINE",
"494 530 LINE",
"471 383 LINE"
);
}
);
width = 834;
},
{
layerId = "B45F0BEB-E489-4392-AE53-309DD1ADE040";
paths = (
{
closed = 1;
nodes = (
"125 0 LINE",
"183 329 LINE SMOOTH",
"204 449 OFFCURVE",
"289 495 OFFCURVE",
"350 495 CURVE SMOOTH",
"535 495 LINE",
"541 525 LINE",
"357 525 LINE SMOOTH",
"263 525 OFFCURVE",
"207 439 OFFCURVE",
"207 439 CURVE SMOOTH",
"202 439 LINE",
"218 525 LINE",
"185 525 LINE",
"92 0 LINE"
);
},
{
closed = 1;
nodes = (
"568 -5 OFFCURVE",
"591 0 OFFCURVE",
"606 5 CURVE",
"611 33 LINE",
"596 29 OFFCURVE",
"572 24 OFFCURVE",
"547 24 CURVE SMOOTH",
"476 24 OFFCURVE",
"484 64 OFFCURVE",
"495 127 CURVE SMOOTH",
"596 700 LINE",
"562 700 LINE",
"460 127 LINE SMOOTH",
"446 47 OFFCURVE",
"445 -5 OFFCURVE",
"540 -5 CURVE SMOOTH"
);
},
{
closed = 1;
nodes = (
"692 495 LINE",
"698 525 LINE",
"423 525 LINE",
"417 495 LINE"
);
}
);
width = 660;
}
);
leftKerningGroup = h;
rightKerningGroup = t;
},
{
glyphname = f_f.liga;
lastChange = "2019-07-18 14:24:21 +0000";
layers = (
{
guideLines = (
{
angle = 90;
position = "{581, -51}";
},
{
angle = 90;
position = "{82, -51}";
}
);
layerId = "D085834A-C5B8-45AD-B7CB-7C394966C9BB";
paths = (
{
closed = 1;
nodes = (
"677 0 LINE",
"760 524 LINE SMOOTH",
"767 566 OFFCURVE",
"773 609 OFFCURVE",
"832 609 CURVE SMOOTH",
"845 609 OFFCURVE",
"872 607 OFFCURVE",
"884 605 CURVE",
"903 728 LINE",
"892 733 OFFCURVE",
"836 740 OFFCURVE",
"797 740 CURVE SMOOTH",
"615 740 OFFCURVE",
"583 610 OFFCURVE",
"579 584 CURVE SMOOTH",
"487 0 LINE"
);
},
{
closed = 1;
nodes = (
"280 0 LINE",
"363 524 LINE SMOOTH",
"370 566 OFFCURVE",
"376 609 OFFCURVE",
"435 609 CURVE SMOOTH",
"448 609 OFFCURVE",
"475 607 OFFCURVE",
"487 605 CURVE",
"506 728 LINE",
"495 733 OFFCURVE",
"439 740 OFFCURVE",
"400 740 CURVE SMOOTH",
"218 740 OFFCURVE",
"186 610 OFFCURVE",
"182 584 CURVE SMOOTH",
"90 0 LINE"
);
},
{
closed = 1;
nodes = (
"848 383 LINE",
"871 530 LINE",
"114 530 LINE",
"91 383 LINE"
);
}
);
width = 803;
},
{
layerId = "B45F0BEB-E489-4392-AE53-309DD1ADE040";
paths = (
{
closed = 1;
nodes = (
"521 0 LINE",
"629 611 LINE SMOOTH",
"636 653 OFFCURVE",
"646 708 OFFCURVE",
"729 708 CURVE SMOOTH",
"748 708 OFFCURVE",
"764 706 OFFCURVE",
"777 703 CURVE",
"782 731 LINE",
"770 735 OFFCURVE",
"752 737 OFFCURVE",
"731 737 CURVE SMOOTH",
"628 737 OFFCURVE",
"604 667 OFFCURVE",
"594 611 CURVE SMOOTH",
"487 0 LINE"
);
},
{
closed = 1;
nodes = (
"169 0 LINE",
"277 611 LINE SMOOTH",
"284 653 OFFCURVE",
"294 708 OFFCURVE",
"377 708 CURVE SMOOTH",
"394 708 OFFCURVE",
"413 706 OFFCURVE",
"425 703 CURVE",
"430 731 LINE",
"418 735 OFFCURVE",
"400 737 OFFCURVE",
"379 737 CURVE SMOOTH",
"282 737 OFFCURVE",
"253 674 OFFCURVE",
"242 611 CURVE SMOOTH",
"135 0 LINE"
);
},
{
closed = 1;
nodes = (
"740 495 LINE",
"746 525 LINE",
"148 525 LINE",
"142 495 LINE"
);
}
);
width = 708;
}
);
leftKerningGroup = f;
rightKerningGroup = f;
},
{
glyphname = f_i.liga;
lastChange = "2019-07-18 14:24:21 +0000";
layers = (
{
components = (
{
name = idotless;
transform = "{1, 0, 0, 1, 403, 0}";
},
{
name = dotaccentcomb;
transform = "{1, 0, 0, 1, 403, 0}";
}
);
guideLines = (
{
position = "{624, 750}";
},
{
position = "{631, 636}";
}
);
layerId = "D085834A-C5B8-45AD-B7CB-7C394966C9BB";
paths = (
{
closed = 1;
nodes = (
"280 0 LINE",
"363 524 LINE SMOOTH",
"370 566 OFFCURVE",
"376 609 OFFCURVE",
"435 609 CURVE SMOOTH",
"448 609 OFFCURVE",
"475 607 OFFCURVE",
"487 605 CURVE",
"506 728 LINE",
"495 733 OFFCURVE",
"439 740 OFFCURVE",
"400 740 CURVE SMOOTH",
"218 740 OFFCURVE",
"186 610 OFFCURVE",
"182 584 CURVE SMOOTH",
"90 0 LINE"
);
},
{
closed = 1;
nodes = (
"697 383 LINE",
"720 530 LINE",
"114 530 LINE",
"91 383 LINE"
);
}
);
width = 713;
},
{
components = (
{
name = idotless;
transform = "{1, 0, 0, 1, 359, 0}";
},
{
name = dotaccentcomb;
transform = "{1, 0, 0, 1, 353, 0}";
}
);
guideLines = (
{
position = "{408, 749}";
}
);
layerId = "B45F0BEB-E489-4392-AE53-309DD1ADE040";
paths = (
{
closed = 1;
nodes = (
"169 0 LINE",
"277 611 LINE SMOOTH",
"284 653 OFFCURVE",
"294 708 OFFCURVE",
"377 708 CURVE SMOOTH",
"394 708 OFFCURVE",
"413 706 OFFCURVE",
"425 703 CURVE",
"430 731 LINE",
"418 735 OFFCURVE",
"400 737 OFFCURVE",
"379 737 CURVE SMOOTH",
"282 737 OFFCURVE",
"253 674 OFFCURVE",
"242 611 CURVE SMOOTH",
"135 0 LINE"
);
},
{
closed = 1;
nodes = (
"568 495 LINE",
"574 525 LINE",
"148 525 LINE",
"142 495 LINE"
);
}
);
width = 581;
}
);
leftKerningGroup = f;
rightKerningGroup = i;
},
{
glyphname = t_t.liga;
lastChange = "2019-07-18 14:24:21 +0000";
layers = (
{
layerId = "D085834A-C5B8-45AD-B7CB-7C394966C9BB";
paths = (
{
closed = 1;
nodes = (
"791 -3 OFFCURVE",
"852 4 OFFCURVE",
"852 4 CURVE",
"873 134 LINE",
"863 133 OFFCURVE",
"851 132 OFFCURVE",
"839 132 CURVE SMOOTH",
"761 132 OFFCURVE",
"767 165 OFFCURVE",
"775 218 CURVE SMOOTH",
"851 700 LINE",
"661 700 LINE",
"578 177 LINE SMOOTH",
"565 97 OFFCURVE",
"550 -3 OFFCURVE",
"741 -3 CURVE SMOOTH"
);
},
{
closed = 1;
nodes = (
"344 -3 OFFCURVE",
"405 4 OFFCURVE",
"405 4 CURVE",
"426 134 LINE",
"416 133 OFFCURVE",
"404 132 OFFCURVE",
"392 132 CURVE SMOOTH",
"314 132 OFFCURVE",
"320 165 OFFCURVE",
"328 218 CURVE SMOOTH",
"404 700 LINE",
"214 700 LINE",
"131 177 LINE SMOOTH",
"118 97 OFFCURVE",
"103 -3 OFFCURVE",
"294 -3 CURVE SMOOTH"
);
},
{
closed = 1;
nodes = (
"912 383 LINE",
"935 530 LINE",
"109 530 LINE",
"86 383 LINE"
);
}
);
width = 896;
},
{
layerId = "B45F0BEB-E489-4392-AE53-309DD1ADE040";
paths = (
{
closed = 1;
nodes = (
"637 -5 OFFCURVE",
"661 0 OFFCURVE",
"676 5 CURVE",
"681 33 LINE",
"666 29 OFFCURVE",
"642 24 OFFCURVE",
"617 24 CURVE SMOOTH",
"548 24 OFFCURVE",
"553 61 OFFCURVE",
"565 127 CURVE SMOOTH",
"666 700 LINE",
"632 700 LINE",
"530 127 LINE SMOOTH",
"516 47 OFFCURVE",
"516 -5 OFFCURVE",
"610 -5 CURVE SMOOTH"
);
},
{
closed = 1;
nodes = (
"272 -5 OFFCURVE",
"296 0 OFFCURVE",
"311 5 CURVE",
"316 33 LINE",
"301 29 OFFCURVE",
"276 24 OFFCURVE",
"252 24 CURVE SMOOTH",
"183 24 OFFCURVE",
"188 61 OFFCURVE",
"200 127 CURVE SMOOTH",
"301 700 LINE",
"267 700 LINE",
"165 127 LINE SMOOTH",
"151 47 OFFCURVE",
"151 -5 OFFCURVE",
"245 -5 CURVE SMOOTH"
);
},
{
closed = 1;
nodes = (
"762 495 LINE",
"767 525 LINE",
"127 525 LINE",
"122 495 LINE"
);
}
);
width = 730;
}
);
leftKerningGroup = t;
rightKerningGroup = t;
},
{
glyphname = f_f.liga.ss01;
lastChange = "2019-07-18 14:24:21 +0000";
layers = (
{
guideLines = (
{
angle = 90;
position = "{581, -51}";
},
{
angle = 90;
position = "{82, -51}";
}
);
layerId = "D085834A-C5B8-45AD-B7CB-7C394966C9BB";
paths = (
{
closed = 1;
nodes = (
"676 0 LINE",
"759 524 LINE SMOOTH",
"766 566 OFFCURVE",
"769 591 OFFCURVE",
"829 591 CURVE SMOOTH",
"881 591 LINE",
"904 740 LINE",
"807 740 LINE SMOOTH",
"625 740 OFFCURVE",
"585 623 OFFCURVE",
"576 566 CURVE SMOOTH",
"486 0 LINE"
);
},
{
closed = 1;
nodes = (
"280 0 LINE",
"363 524 LINE SMOOTH",
"370 566 OFFCURVE",
"373 591 OFFCURVE",
"433 591 CURVE SMOOTH",
"485 591 LINE",
"508 740 LINE",
"411 740 LINE SMOOTH",
"229 740 OFFCURVE",
"189 623 OFFCURVE",
"180 566 CURVE SMOOTH",
"90 0 LINE"
);
},
{
closed = 1;
nodes = (
"848 383 LINE",
"871 530 LINE",
"114 530 LINE",
"91 383 LINE"
);
}
);
width = 802;
},
{
layerId = "B45F0BEB-E489-4392-AE53-309DD1ADE040";
paths = (
{
closed = 1;
nodes = (
"521 0 LINE",
"629 611 LINE SMOOTH",
"636 653 OFFCURVE",
"646 703 OFFCURVE",
"728 703 CURVE SMOOTH",
"777 703 LINE",
"783 737 LINE",
"731 737 LINE SMOOTH",
"628 737 OFFCURVE",
"604 667 OFFCURVE",
"594 611 CURVE SMOOTH",
"487 0 LINE"
);
},
{
closed = 1;
nodes = (
"169 0 LINE",
"277 611 LINE SMOOTH",
"284 653 OFFCURVE",
"294 703 OFFCURVE",
"376 703 CURVE SMOOTH",
"425 703 LINE",
"431 737 LINE",
"379 737 LINE SMOOTH",
"282 737 OFFCURVE",
"253 674 OFFCURVE",
"242 611 CURVE SMOOTH",
"135 0 LINE"
);
},
{
closed = 1;
nodes = (
"740 495 LINE",
"746 525 LINE",
"148 525 LINE",
"142 495 LINE"
);
}
);
width = 708;
}
);
leftKerningGroup = f;
rightKerningGroup = f;
},
{
glyphname = f_i.liga.ss01;
lastChange = "2019-07-18 14:24:21 +0000";
layers = (
{
components = (
{
name = idotless;
transform = "{1, 0, 0, 1, 403, 0}";
},
{
name = dotaccentcomb;
transform = "{1, 0, 0, 1, 403, 0}";
}
);
guideLines = (
{
position = "{624, 750}";
},
{
position = "{631, 636}";
}
);
layerId = "D085834A-C5B8-45AD-B7CB-7C394966C9BB";
paths = (
{
closed = 1;
nodes = (
"697 383 LINE",
"720 530 LINE",
"114 530 LINE",
"91 383 LINE"
);
},
{
closed = 1;
nodes = (
"280 0 LINE",
"363 524 LINE SMOOTH",
"370 566 OFFCURVE",
"373 591 OFFCURVE",
"433 591 CURVE SMOOTH",
"485 591 LINE",
"508 740 LINE",
"411 740 LINE SMOOTH",
"229 740 OFFCURVE",
"189 623 OFFCURVE",
"180 566 CURVE SMOOTH",
"90 0 LINE"
);
}
);
width = 713;
},
{
components = (
{
name = idotless;
transform = "{1, 0, 0, 1, 359, 0}";
},
{
name = dotaccentcomb;
transform = "{1, 0, 0, 1, 353, 0}";
}
);
guideLines = (
{
position = "{408, 749}";
}
);
layerId = "B45F0BEB-E489-4392-AE53-309DD1ADE040";
paths = (
{
closed = 1;
nodes = (
"568 495 LINE",
"574 525 LINE",
"148 525 LINE",
"142 495 LINE"
);
},
{
closed = 1;
nodes = (
"169 0 LINE",
"277 611 LINE SMOOTH",
"284 653 OFFCURVE",
"294 703 OFFCURVE",
"376 703 CURVE SMOOTH",
"425 703 LINE",
"431 737 LINE",
"379 737 LINE SMOOTH",
"282 737 OFFCURVE",
"253 674 OFFCURVE",
"242 611 CURVE SMOOTH",
"135 0 LINE"
);
}
);
width = 581;
}
);
leftKerningGroup = f;
rightKerningGroup = i;
},
{
glyphname = t_t.liga.ss01;
lastChange = "2019-07-18 14:24:21 +0000";
layers = (
{
layerId = "D085834A-C5B8-45AD-B7CB-7C394966C9BB";
paths = (
{
closed = 1;
nodes = (
"912 383 LINE",
"935 530 LINE",
"109 530 LINE",
"86 383 LINE"
);
},
{
closed = 1;
nodes = (
"387 0 LINE",
"411 149 LINE",
"395 149 LINE SMOOTH",
"319 149 OFFCURVE",
"321 179 OFFCURVE",
"332 247 CURVE SMOOTH",
"404 700 LINE",
"214 700 LINE",
"135 200 LINE SMOOTH",
"120 102 OFFCURVE",
"119 0 OFFCURVE",
"294 0 CURVE SMOOTH"
);
},
{
closed = 1;
nodes = (
"834 0 LINE",
"858 149 LINE",
"842 149 LINE SMOOTH",
"766 149 OFFCURVE",
"768 179 OFFCURVE",
"779 247 CURVE SMOOTH",
"851 700 LINE",
"661 700 LINE",
"582 200 LINE SMOOTH",
"567 102 OFFCURVE",
"566 0 OFFCURVE",
"741 0 CURVE SMOOTH"
);
}
);
width = 896;
},
{
layerId = "B45F0BEB-E489-4392-AE53-309DD1ADE040";
paths = (
{
closed = 1;
nodes = (
"762 495 LINE",
"767 525 LINE",
"127 525 LINE",
"122 495 LINE"
);
},
{
closed = 1;
nodes = (
"310 0 LINE",
"315 29 LINE",
"253 29 LINE SMOOTH",
"188 29 OFFCURVE",
"190 67 OFFCURVE",
"201 132 CURVE SMOOTH",
"301 700 LINE",
"267 700 LINE",
"166 132 LINE SMOOTH",
"151 46 OFFCURVE",
"156 0 OFFCURVE",
"246 0 CURVE SMOOTH"
);
},
{
closed = 1;
nodes = (
"675 0 LINE",
"680 29 LINE",
"618 29 LINE SMOOTH",
"552 29 OFFCURVE",
"555 67 OFFCURVE",
"566 132 CURVE SMOOTH",
"666 700 LINE",
"632 700 LINE",
"531 132 LINE SMOOTH",
"516 46 OFFCURVE",
"521 0 OFFCURVE",
"611 0 CURVE SMOOTH"
);
}
);
width = 730;
}
);
leftKerningGroup = t;
rightKerningGroup = t;
},
